<svg width="412" height="264" viewBox="0 0 412 264" fill="none" xmlns="http://www.w3.org/2000/svg">
<g clip-path="url(#clip0_345_2311)">
<path d="M386.039 263.085C399.383 263.085 410.449 251.862 411.377 237.393C413.497 204.32 395.482 172.688 350.721 164.202C322.933 158.934 291.558 121.212 277.039 92.5183C252.118 43.2647 217.593 18.9043 181.979 18.9043C123.83 18.9043 115.652 50.6266 90.3217 89.5845C45.7396 158.152 26.2891 159.089 4.09881 204.87C-0.403886 214.163 -0.330262 226.655 0.327859 237.397C1.21628 251.868 12.3226 263.085 25.6651 263.085H386.039Z" fill="#F3F5FD"/>
<path d="M177.821 31.8975H51.9277V258.231H177.821V31.8975Z" fill="white"/>
<path d="M51.9277 258.231H144.175V47.1802L51.9277 31.8975V258.231Z" fill="#F3F5FD"/>
<path d="M51.9269 31.8974H177.821V258.23H51.9269V31.8974ZM47.0723 27.0427V263.087H182.675V27.0427H47.0723Z" fill="#DEE8F5"/>
<path d="M132.58 150.763C135.727 150.763 138.279 148.211 138.279 145.064C138.279 141.916 135.727 139.365 132.58 139.365C129.432 139.365 126.881 141.916 126.881 145.064C126.881 148.211 129.432 150.763 132.58 150.763Z" fill="white"/>
<path d="M176.93 77.2109C176.93 77.2109 180.54 75.6603 180.54 66.1759L187.797 65.4365C187.797 65.4365 186.301 73.817 189.697 76.7943L176.93 77.2109Z" fill="#E98862"/>
<path d="M176.784 62.1898C177.044 65.089 178.382 67.9235 180.828 69.0534C183.486 70.3697 186.427 71.0153 189.393 70.9339C197.271 70.9339 197.182 53.0138 193.75 49.2532C190.318 45.4926 179.235 46.7868 177.435 52.459C176.504 55.3922 176.536 59.4307 176.784 62.1898Z" fill="#E98862"/>
<path d="M193.335 56.5315C194.864 56.5198 196.39 56.3911 197.899 56.1468C197.899 56.1468 197.437 44.5098 185.079 45.1733C183.474 45.1001 181.866 45.1949 180.281 45.4561C176.566 46.0258 171.299 49.8237 170.449 59.3279C170.059 63.6883 168.556 67.7986 167.409 70.401C167.274 70.7065 167.218 71.0408 167.245 71.3736C167.272 71.7064 167.381 72.0272 167.564 72.3071C167.746 72.5869 167.995 72.8168 168.288 72.9761C168.582 73.1354 168.91 73.219 169.244 73.2194L195.721 73.0093C196.034 73.0096 196.343 72.9366 196.623 72.7961C196.903 72.6556 197.146 72.4516 197.333 72.2003C197.52 71.949 197.645 71.6574 197.699 71.3489C197.753 71.0405 197.734 70.7237 197.643 70.4239C196.203 65.6577 193.568 62.7343 193.335 56.5315Z" fill="#0F1011"/>
<path d="M207.473 258.228L198.111 257.115C198.533 253.572 199.009 249.315 199.042 248.618V248.728H208.469C208.467 249.01 208.467 249.871 207.473 258.228Z" fill="#E98862"/>
<path d="M169.908 259.355L160.48 259.325C160.48 259.325 160.512 249.59 160.512 248.728H169.939C169.939 249.592 169.908 259.355 169.908 259.355Z" fill="#E98862"/>
<path d="M194.342 255.251L210.953 254.968C210.172 235.202 210.124 214.467 209.882 194.653C206.64 173.296 204.934 149.843 200.932 128.639L166.163 126.83C166.163 126.83 165.393 140.908 165.086 146.486C163.315 178.537 160.083 223.679 158.055 254.716L174.606 256.115C177.588 225.684 182.203 181.344 185.041 149.376C188.301 164.939 190.518 181.055 193.353 196.486C193.916 215.801 194.396 235.993 194.342 255.251Z" fill="#262626"/>
<path d="M181.368 263.001C181.61 263 181.85 262.951 182.073 262.858C182.296 262.764 182.499 262.627 182.67 262.455C182.84 262.283 182.975 262.079 183.067 261.855C183.158 261.631 183.205 261.391 183.204 261.148C183.204 261.104 183.202 261.059 183.198 261.014C183.171 260.663 183.044 260.328 182.832 260.048C182.621 259.767 182.334 259.552 182.005 259.43L171.031 255.754C170.819 255.684 170.594 255.66 170.371 255.685C170.149 255.71 169.934 255.782 169.742 255.898C168.234 256.944 166.429 257.479 164.594 257.424C163.165 257.323 161.793 256.821 160.634 255.978C160.533 255.894 160.409 255.841 160.279 255.825C160.148 255.809 160.015 255.831 159.896 255.887C159.777 255.944 159.677 256.033 159.607 256.144C159.537 256.256 159.5 256.385 159.5 256.516V261.882C159.5 262.201 159.627 262.507 159.852 262.732C160.078 262.958 160.383 263.084 160.702 263.084H160.707L181.368 263.001Z" fill="#C1D8ED"/>
<path d="M218.958 263.001C219.2 263 219.44 262.951 219.663 262.858C219.886 262.764 220.089 262.627 220.259 262.455C220.43 262.283 220.565 262.08 220.656 261.856C220.748 261.631 220.795 261.392 220.793 261.149C220.793 261.105 220.793 261.06 220.788 261.015C220.761 260.664 220.634 260.329 220.423 260.049C220.211 259.768 219.924 259.553 219.595 259.43L208.622 255.755C208.409 255.685 208.184 255.661 207.961 255.686C207.739 255.711 207.524 255.783 207.332 255.899C205.824 256.945 204.019 257.48 202.184 257.425C200.755 257.324 199.383 256.822 198.224 255.979C198.122 255.895 197.999 255.842 197.868 255.826C197.738 255.81 197.605 255.832 197.486 255.888C197.367 255.945 197.267 256.034 197.197 256.145C197.126 256.257 197.089 256.386 197.09 256.517V261.883C197.09 262.202 197.217 262.508 197.442 262.733C197.667 262.959 197.973 263.085 198.292 263.085H198.297L218.958 263.001Z" fill="#C1D8ED"/>
<path d="M238.098 108.542C239.435 108.542 243.908 107.835 244.227 108.971C244.419 109.653 241.085 110.457 241.085 110.457" fill="#E98862"/>
<path d="M237.395 113.905C237.395 113.905 246.425 117.615 251.613 113.384C251.745 113.276 251.841 113.131 251.889 112.967C251.937 112.804 251.935 112.629 251.883 112.467C251.83 112.305 251.73 112.162 251.595 112.058C251.46 111.953 251.297 111.892 251.127 111.882C247.629 111.676 240.445 110.97 241.284 108.664H235.645" fill="#E98862"/>
<path d="M213.678 106.174C215.009 106.045 219.393 104.912 219.82 106.013C220.077 106.672 216.836 107.793 216.836 107.793" fill="#E98862"/>
<path d="M213.493 111.58C213.493 111.58 222.837 114.405 227.594 109.694C227.715 109.574 227.797 109.42 227.83 109.253C227.862 109.085 227.843 108.912 227.775 108.755C227.707 108.599 227.593 108.467 227.449 108.376C227.305 108.285 227.136 108.239 226.966 108.246C223.464 108.377 216.245 108.365 216.86 105.989L211.248 106.528" fill="#E98862"/>
<path d="M166.776 117.483C165.478 117.483 164.234 116.967 163.316 116.05C162.398 115.132 161.883 113.888 161.883 112.59C161.883 112.512 161.883 112.435 161.888 112.357L163.214 84.3381L172.991 84.8005L171.922 107.403L214.527 105.051L215.065 114.825L167.045 117.475C166.956 117.48 166.866 117.483 166.776 117.483Z" fill="#7C9070" fill-opacity="0.973958"/>
<path opacity="0.9" d="M212.998 106.61L202.125 83.1158C201.223 79.0351 198.689 76.2194 192.787 75.9662C190.985 75.889 182.19 75.8765 175.751 75.8765C171.425 75.8765 167.874 77.2039 165.823 79.2551C158.751 86.326 167.431 98.3751 167.431 107.807C167.431 117.238 163.166 121.462 163.48 126.302C163.974 133.909 200.934 132.112 202.817 127.791C204.756 123.335 200.82 120.59 200.993 106.014C201.003 105.152 201.044 104.267 201.106 103.369L205.677 113.245C206.048 114.046 206.636 114.727 207.375 115.211C208.114 115.694 208.974 115.96 209.856 115.978L238.673 116.584L238.873 107.158L212.998 106.61Z" fill="#7C9070" fill-opacity="0.973958"/>
<path d="M310.781 258.228L320.143 257.115C319.721 253.572 319.245 249.316 319.213 248.618V248.728H309.785C309.787 249.01 309.787 249.871 310.781 258.228Z" fill="#E98862"/>
<path d="M348.344 259.355L357.771 259.325C357.771 259.325 357.74 249.59 357.74 248.728H348.312C348.312 249.592 348.344 259.355 348.344 259.355Z" fill="#E98862"/>
<path d="M323.911 255.252L307.301 254.968C307.991 237.477 308.109 217.471 308.294 199.367C308.346 194.88 308.684 190.401 309.308 185.957C311.98 166.777 313.724 147.708 317.321 128.639L317.441 128.675L317.792 126.282L351.944 124.172L353.722 146.483C353.722 146.483 358.171 223.675 360.2 254.712L343.651 256.115C340.669 225.684 336.054 181.344 333.215 149.376C329.956 164.939 327.738 181.055 324.904 196.486C324.337 215.801 323.858 235.994 323.911 255.252Z" fill="#262626"/>
<path d="M336.884 263.001C336.642 263 336.402 262.951 336.179 262.858C335.956 262.764 335.753 262.627 335.583 262.455C335.412 262.283 335.278 262.08 335.186 261.856C335.094 261.631 335.048 261.392 335.049 261.149C335.049 261.105 335.049 261.06 335.054 261.015C335.082 260.664 335.208 260.329 335.42 260.049C335.631 259.768 335.918 259.553 336.247 259.43L347.22 255.755C347.433 255.685 347.658 255.661 347.881 255.686C348.103 255.711 348.318 255.783 348.51 255.899C350.018 256.945 351.823 257.48 353.658 257.425C355.087 257.324 356.459 256.822 357.618 255.979C357.719 255.895 357.843 255.842 357.974 255.826C358.104 255.81 358.237 255.832 358.356 255.888C358.475 255.945 358.575 256.034 358.645 256.145C358.716 256.257 358.753 256.386 358.752 256.517V261.883C358.752 262.202 358.626 262.508 358.4 262.733C358.175 262.959 357.869 263.085 357.55 263.085H357.545L336.884 263.001Z" fill="#C1D8ED"/>
<path d="M299.294 263.001C299.052 263 298.812 262.951 298.589 262.858C298.366 262.764 298.163 262.627 297.993 262.455C297.822 262.283 297.688 262.079 297.596 261.855C297.504 261.63 297.458 261.39 297.459 261.148C297.459 261.103 297.459 261.058 297.464 261.013C297.492 260.663 297.618 260.328 297.83 260.047C298.041 259.766 298.329 259.552 298.658 259.429L309.631 255.754C309.843 255.684 310.069 255.66 310.291 255.685C310.514 255.71 310.728 255.782 310.92 255.898C312.429 256.944 314.233 257.479 316.068 257.424C317.498 257.322 318.87 256.821 320.028 255.977C320.13 255.894 320.253 255.841 320.384 255.825C320.515 255.809 320.647 255.83 320.766 255.887C320.885 255.943 320.986 256.033 321.056 256.144C321.126 256.255 321.163 256.384 321.163 256.516V261.882C321.163 262.201 321.036 262.506 320.81 262.732C320.585 262.957 320.279 263.084 319.96 263.084H319.955L299.294 263.001Z" fill="#C1D8ED"/>
<path d="M263.395 102.74C263.395 102.74 259.709 100.949 256.941 101.636C255.687 101.947 255.273 102.362 255.377 102.763C254.767 102.927 254.356 103.186 254.339 103.581C254.339 103.581 254.04 108.654 254.967 109.436C256.368 110.62 263.308 109.693 263.308 109.693L263.395 102.74Z" fill="#E98862"/>
<path d="M279.303 111.035H306.004C306.794 111.035 307.572 110.836 308.266 110.456C308.96 110.077 309.547 109.529 309.973 108.864L326.845 82.5262L318.906 77.4395L303.427 101.607H279.303V111.035Z" fill="#FF4411" fill-opacity="0.973958"/>
<path d="M315.357 127.101C317.238 131.424 354.198 133.219 354.691 125.615C355.006 120.775 350.741 116.551 350.741 107.119C350.741 97.6872 359.419 85.6426 352.348 78.572C350.296 76.5205 346.754 75.1961 342.436 75.1917C342.113 77.7101 326.822 77.7191 326.706 75.25C326.122 75.259 325.669 75.268 325.386 75.2814C310.49 75.9234 317.036 92.8747 317.179 105.328C317.354 119.9 313.417 122.646 315.357 127.101Z" fill="#FF4133" fill-opacity="0.973958"/>
<path d="M326.705 75.25C326.822 77.7191 328.164 81.3509 332.308 81.6247C337.829 81.9883 342.112 77.7101 342.435 75.1917H342.422C336.985 75.1917 329.874 75.2006 326.705 75.25Z" fill="#E98862"/>
<path d="M310.56 89.3594H265.232V127.054H310.56V89.3594Z" fill="#0CBC8B"/>
<path opacity="0.26" d="M310.56 89.3594H265.232V127.054H310.56V89.3594Z" fill="#0F1011"/>
<path d="M296.194 89.3594H255.355V127.054H296.194V89.3594Z" fill="#0CBC8B"/>
<path d="M310.712 107.556H310.702C310.634 107.544 310.564 107.534 310.493 107.527C309.386 107.372 304.343 106.707 303.11 107.231C302.695 107.407 302.77 107.71 303.044 108.034C300.78 108.248 298.829 108.803 298.771 110.499C298.669 113.436 305.864 114.218 308.243 113.973C310.38 113.753 313.632 108.087 310.712 107.556Z" fill="#E98862"/>
<path d="M308.726 115.778L336.506 114.93C337.373 114.904 338.217 114.648 338.953 114.187C339.688 113.727 340.288 113.08 340.69 112.311L354.406 86.1598L345.737 81.6145L333.35 105.235L308.428 105.995L308.726 115.778Z" fill="#FF4133" fill-opacity="0.973958"/>
<path d="M338.19 68.8735C338.186 68.7568 338.186 68.6356 338.186 68.5144C338.181 67.6974 338.217 66.8085 338.298 65.8388L337.436 65.6772L336.565 65.5156L331.124 64.51C331.249 66.104 331.225 67.706 331.053 69.2955C331.03 69.511 330.999 69.731 330.967 69.951C330.945 70.1081 330.918 70.2607 330.891 70.4178C330.886 70.4582 330.877 70.5031 330.868 70.548C330.806 70.8982 330.734 71.2439 330.644 71.585C330.63 71.6549 330.612 71.7238 330.59 71.7915C330.589 71.8039 330.586 71.8161 330.581 71.8275C330.545 71.9756 330.5 72.1282 330.451 72.2719C330.402 72.438 330.348 72.5996 330.285 72.7612C330.262 72.8286 330.236 72.8959 330.209 72.9632C330.203 72.982 330.196 73.0001 330.186 73.0171C330.155 73.1024 330.119 73.1832 330.078 73.2685C330.062 73.316 330.042 73.3624 330.02 73.4077C329.944 73.5783 329.863 73.7399 329.778 73.897C329.776 73.897 329.775 73.8975 329.774 73.8983C329.774 73.8991 329.773 73.9003 329.773 73.9015C329.435 74.5645 328.959 75.1476 328.377 75.6119H339.657C338.958 74.4088 338.24 72.3347 338.19 68.8735Z" fill="#E98862"/>
<path d="M329.771 73.9033L335.73 69.3454L331.05 69.2969C330.914 70.8986 330.481 72.4608 329.771 73.9033Z" fill="#C98481"/>
<path d="M342.367 62.1761C341.87 65.0443 340.305 67.7598 337.775 68.6855C335.018 69.78 332.034 70.183 329.085 69.8594C321.234 69.2156 322.787 51.3638 326.514 47.8954C330.242 44.427 341.182 46.6236 342.513 52.4237C343.203 55.422 342.839 59.4444 342.367 62.1761Z" fill="#E98862"/>
<path d="M331.135 59.9653C331.494 59.9653 331.785 59.6741 331.785 59.3148C331.785 58.9555 331.494 58.6643 331.135 58.6643C330.776 58.6643 330.484 58.9555 330.484 59.3148C330.484 59.6741 330.776 59.9653 331.135 59.9653Z" fill="#0F1011"/>
<path d="M326.004 59.5441C326.363 59.5441 326.654 59.2529 326.654 58.8937C326.654 58.5344 326.363 58.2432 326.004 58.2432C325.645 58.2432 325.354 58.5344 325.354 58.8937C325.354 59.2529 325.645 59.5441 326.004 59.5441Z" fill="#0F1011"/>
<path d="M324.876 57.5073H324.88L326.603 57.4862C326.685 57.4857 326.762 57.4529 326.819 57.3952C326.876 57.3375 326.908 57.2595 326.907 57.1785C326.907 57.0974 326.874 57.0198 326.816 56.9629C326.758 56.9059 326.681 56.8742 326.599 56.8748H326.595L324.872 56.8963C324.793 56.8998 324.719 56.9337 324.664 56.991C324.61 57.0483 324.58 57.1245 324.58 57.2035C324.581 57.2826 324.612 57.3584 324.667 57.4151C324.722 57.4717 324.797 57.5048 324.876 57.5073Z" fill="#0F1011"/>
<path d="M332.539 58.1359C332.614 58.1357 332.686 58.1081 332.742 58.0584C332.797 58.0086 332.833 57.9401 332.842 57.8659C332.851 57.7916 332.832 57.7168 332.789 57.6554C332.746 57.5941 332.683 57.5505 332.61 57.533L330.911 57.124C330.832 57.1039 330.749 57.1159 330.679 57.1573C330.609 57.1987 330.559 57.2661 330.539 57.3447C330.519 57.4232 330.531 57.5066 330.572 57.5763C330.613 57.6461 330.681 57.6965 330.759 57.7166H330.768L332.467 58.1256C332.49 58.1319 332.515 58.1354 332.539 58.1359Z" fill="#0F1011"/>
<path d="M337.876 68.3417C338.026 68.8184 338.13 69.0263 338.559 68.7713C340.245 67.7693 343.35 66.8319 344.643 58.6642C345.802 51.3468 339.849 48.7637 336.248 47.6863C333.145 46.7579 333.883 47.0412 330.485 49.09C327.555 50.8557 324.182 52.8089 324.182 52.8089C325.476 52.8686 325.737 53.9815 328.792 53.9815C331.153 53.9815 332.688 52.9265 334.899 53.0195C336.923 53.1043 337.339 54.338 337.267 55.1294C336.832 59.9244 337.349 66.6555 337.876 68.3417Z" fill="#0F1011"/>
<path d="M334.52 60.906C334.471 61.629 334.709 62.3421 335.182 62.8912C335.655 63.4403 336.325 63.7811 337.047 63.8401C337.769 63.8991 338.486 63.6715 339.041 63.2064C339.597 62.7413 339.947 62.0762 340.017 61.3549C340.052 61.0006 340.017 60.6428 339.914 60.3019C339.811 59.9611 339.641 59.6439 339.416 59.3684C339.19 59.093 338.912 58.8647 338.598 58.6966C338.284 58.5286 337.94 58.424 337.586 58.3889C337.556 58.3857 337.525 58.3831 337.494 58.3813C335.527 58.3189 334.644 59.3882 334.52 60.906Z" fill="#E98862"/>
<g opacity="0.15">
<path d="M328.247 62.9222C328.301 62.9222 328.353 62.9029 328.393 62.8679C328.434 62.8328 328.461 62.7842 328.469 62.7311C328.477 62.6779 328.466 62.6236 328.437 62.5781C328.408 62.5326 328.364 62.4989 328.313 62.4831L326.99 62.0768L327.915 60.0163C327.94 59.9623 327.943 59.9005 327.923 59.8446C327.902 59.7886 327.86 59.7431 327.806 59.718C327.752 59.6929 327.691 59.6902 327.635 59.7106C327.579 59.731 327.533 59.7728 327.508 59.8268V59.8322L326.479 62.1253C326.467 62.1522 326.46 62.1813 326.459 62.2107C326.458 62.2402 326.463 62.2696 326.474 62.2971C326.484 62.3247 326.5 62.3499 326.52 62.3713C326.541 62.3928 326.565 62.41 326.592 62.4221C326.6 62.4257 326.609 62.4288 326.617 62.4315L328.183 62.9123C328.204 62.9187 328.225 62.922 328.247 62.9222Z" fill="black"/>
</g>
<path d="M335.731 57.1096L337.268 57.6259C337.268 57.6259 337.068 63.0776 336.5 65.8506C335.931 68.6236 335.489 72.2379 333.725 72.6352C331.383 73.1622 328.034 73.1847 326.003 72.4592C323.714 71.6413 323.77 63.1544 323.77 63.1544C323.77 63.1544 331.132 63.9521 333.172 62.9748C335.212 61.9975 335.731 57.1096 335.731 57.1096Z" fill="#0F1011"/>
<path d="M330.835 64.4374C330.835 64.4374 328.434 64.6906 326.75 64.1025C326.75 64.1025 326.763 65.6841 328.663 65.8399C330.563 65.9956 330.835 64.4374 330.835 64.4374Z" fill="#F8FCFF"/>
<path d="M337.491 58.383C337.491 58.383 342.059 57.8587 344.615 58.8934C344.615 58.8934 347.037 46.6472 335.335 45.5155C323.633 44.3838 324.423 54.1312 324.423 54.1312L333.646 53.58L337.491 58.383Z" fill="#262626"/>
<path d="M337.492 58.383C337.492 58.383 333.509 55.324 330.189 55.324H323.45C323.45 55.324 317.994 51.76 318.014 50.8797C318.055 49.0463 327.736 49.211 329.773 50.0016C331.81 50.7921 337.492 58.383 337.492 58.383Z" fill="#262626"/>
<path opacity="0.21" d="M337.492 58.383C337.492 58.383 333.509 55.324 330.189 55.324H323.45C323.45 55.324 317.994 51.76 318.014 50.8797C318.055 49.0463 327.736 49.211 329.773 50.0016C331.81 50.7921 337.492 58.383 337.492 58.383Z" fill="black"/>
<path d="M254.969 109.438C255.095 109.538 255.236 109.618 255.387 109.675C256.192 109.841 258.222 109.355 258.547 108.793C259.077 107.876 258.748 104.566 258.281 103.365C257.842 102.242 255.658 102.712 255.371 102.765C255.362 102.769 255.353 102.771 255.344 102.772C254.748 102.936 254.356 103.191 254.339 103.583C254.339 103.583 254.039 108.652 254.969 109.438Z" fill="#E98862"/>
<path d="M47.4021 237.281C43.7456 236.231 40.9933 232.959 39.8997 229.316C38.8061 225.672 39.1913 221.718 40.2588 218.067C41.1302 215.088 42.4514 212.207 42.7769 209.12C43.861 198.84 33.8882 188.335 38.5821 179.125C40.0995 176.147 43.0359 173.819 43.5598 170.517C43.9943 167.787 42.6476 165.134 41.98 162.451C41.0602 158.759 41.5266 154.571 43.9216 151.614C46.3166 148.658 50.8427 147.367 54.1427 149.26C58.4591 151.736 58.8335 157.849 57.7242 162.7C56.6149 167.551 54.5588 172.541 55.9141 177.329C57.2061 181.893 61.4103 185.329 62.1641 190.012C62.7925 193.905 60.8905 197.7 60.0541 201.554C58.7415 207.61 60.0775 213.889 60.1345 220.085C60.1915 226.281 58.4447 233.231 47.4021 237.281Z" fill="#98AED9" fill-opacity="0.973958"/>
<path d="M41.7596 237.869C39.5836 237.178 37.6309 235.919 36.1019 234.224C34.573 232.528 33.5229 230.456 33.0594 228.22C32.3439 224.533 33.2228 220.391 31.2045 217.222C28.4697 212.929 25.6657 212.444 22.261 208.659C17.0266 202.842 16.8425 200.265 17.1882 189.49C17.3341 184.934 11.0429 179.794 13.2583 175.414C15.2107 171.557 21.1446 171.537 24.5097 174.251C27.8748 176.966 29.3531 181.316 30.8193 185.385C32.2855 189.453 34.1342 193.754 37.8512 195.962C40.0802 197.286 42.9986 197.897 44.2295 200.182C45.2172 202.015 44.7207 204.252 44.3229 206.297C43.3236 211.437 43.5741 217.708 47.8878 220.676C49.8339 222.016 52.3824 222.477 53.9824 224.215C55.5644 225.934 55.8194 228.48 55.7126 230.814C55.5021 235.301 54.266 239.679 52.0992 243.613" fill="#DEE8F5"/>
<path d="M46.9608 241.449C43.0771 237.011 42.5281 229.982 45.6755 224.995C48.3165 220.811 53.238 217.929 54.2715 213.09C55.1918 208.781 52.6392 204.327 53.4032 199.987C54.2342 195.268 58.5942 192.171 62.0576 188.859C62.9587 188.054 63.7338 187.117 64.357 186.082C65.8802 183.34 65.4555 179.977 65.9731 176.884C66.9634 170.96 71.8441 165.706 77.7699 164.727C82.9671 163.868 86.69 166.853 86.69 172.352C86.69 178.865 81.8102 181.656 79.3209 184.607C75.7456 188.877 73.8481 194.303 73.9832 199.871C74.1588 206.089 76.8065 212.71 73.9778 218.25C71.902 222.316 67.4685 224.484 63.9844 227.434C61.3519 229.69 59.2089 232.46 57.6873 235.575C56.1658 238.69 55.2978 242.083 55.137 245.546" fill="white"/>
<path d="M63.7226 231.236H32.3828V262.576H63.7226V231.236Z" fill="#0CBC8B"/>
<g opacity="0.42">
<path d="M63.7226 237.347H32.3828V243.464H63.7226V237.347Z" fill="white"/>
</g>
<path d="M253.712 65.7845C271.878 65.7845 286.605 51.0582 286.605 32.8924C286.605 14.7266 271.878 0.000244141 253.712 0.000244141C235.547 0.000244141 220.82 14.7266 220.82 32.8924C220.82 51.0582 235.547 65.7845 253.712 65.7845Z" fill="#262626"/>
<path d="M273.545 52.7258C284.499 41.7721 284.499 24.0126 273.545 13.0589C262.592 2.1052 244.832 2.1052 233.878 13.0589C222.925 24.0126 222.925 41.7721 233.878 52.7258C244.832 63.6795 262.592 63.6795 273.545 52.7258Z" fill="#F3F5FD"/>
<path d="M267.764 28.3918L254.646 35.7631C254.356 35.9253 254.029 36.0088 253.696 36.0056C253.364 36.0023 253.038 35.9124 252.751 35.7446C252.464 35.5768 252.226 35.3371 252.06 35.049C251.894 34.761 251.806 34.4346 251.805 34.1021V14.0173C251.805 13.5113 252.006 13.026 252.363 12.6682C252.721 12.3104 253.207 12.1094 253.713 12.1094C254.219 12.1094 254.704 12.3104 255.062 12.6682C255.42 13.026 255.621 13.5113 255.621 14.0173V30.8411L265.892 25.0635C266.11 24.9406 266.351 24.8619 266.6 24.8319C266.848 24.8019 267.101 24.8213 267.342 24.8888C267.583 24.9563 267.809 25.0707 268.006 25.2255C268.203 25.3803 268.368 25.5723 268.491 25.7908C268.614 26.0092 268.693 26.2497 268.723 26.4985C268.753 26.7473 268.733 26.9996 268.666 27.241C268.598 27.4824 268.484 27.7081 268.329 27.9052C268.174 28.1024 267.982 28.2671 267.764 28.39V28.3918Z" fill="#DEE8F5"/>
<path d="M267.764 28.3918L254.646 35.7631C254.356 35.9253 254.029 36.0088 253.696 36.0056C253.364 36.0023 253.038 35.9124 252.751 35.7446C252.464 35.5768 252.226 35.3371 252.06 35.049C251.894 34.761 251.806 34.4346 251.805 34.1021V14.0173C251.805 13.5113 252.006 13.026 252.363 12.6682C252.721 12.3104 253.207 12.1094 253.713 12.1094C254.219 12.1094 254.704 12.3104 255.062 12.6682C255.42 13.026 255.621 13.5113 255.621 14.0173V30.8411L265.892 25.0635C266.11 24.9406 266.351 24.8619 266.6 24.8319C266.848 24.8019 267.101 24.8213 267.342 24.8888C267.583 24.9563 267.809 25.0707 268.006 25.2255C268.203 25.3803 268.368 25.5723 268.491 25.7908C268.614 26.0092 268.693 26.2497 268.723 26.4985C268.753 26.7473 268.733 26.9996 268.666 27.241C268.598 27.4824 268.484 27.7081 268.329 27.9052C268.174 28.1024 267.982 28.2671 267.764 28.39V28.3918Z" fill="#262626"/>
<path d="M281.759 70.0168C290.104 70.0168 296.869 63.2516 296.869 54.9064C296.869 46.5613 290.104 39.7961 281.759 39.7961C273.414 39.7961 266.648 46.5613 266.648 54.9064C266.648 63.2516 273.414 70.0168 281.759 70.0168Z" fill="#0CBC8B"/>
<path d="M278.844 63.0067C278.505 63.0068 278.178 62.8771 277.931 62.644L271.474 56.5512C271.217 56.309 271.067 55.9747 271.057 55.6219C271.047 55.2691 271.177 54.9267 271.42 54.67C271.662 54.4133 271.996 54.2634 272.349 54.2531C272.702 54.2429 273.044 54.3732 273.301 54.6155L278.771 59.7781L290.146 47.2428C290.383 46.9815 290.715 46.825 291.067 46.808C291.42 46.7909 291.764 46.9145 292.026 47.1517C292.287 47.3889 292.444 47.7201 292.461 48.0726C292.478 48.4251 292.354 48.77 292.117 49.0313L279.83 62.5713C279.711 62.7023 279.567 62.8083 279.407 62.8831C279.247 62.9578 279.073 62.9999 278.896 63.0067H278.844Z" fill="white"/>
</g>
<defs>
<clipPath id="clip0_345_2311">
<rect width="411.543" height="263.085" fill="white"/>
</clipPath>
</defs>
</svg>
