<svg width="390" height="313" viewBox="0 0 390 313" fill="none" xmlns="http://www.w3.org/2000/svg">
<path d="M380.064 121.112L375.93 136.326L378.861 137.974L382.995 122.76L380.064 121.112Z" fill="#367CFF"/>
<path d="M121.794 83.8052L119.449 86.8252L127.026 98.9934L129.371 95.9734L121.794 83.8052Z" fill="#0CBC8B"/>
<path d="M156.531 138.268L147.441 148.061L149.328 151.684L158.418 141.891L156.531 138.268Z" fill="#367CFF"/>
<path d="M261.665 25.8894L259.508 29.186L267.779 40.3807L269.936 37.0841L261.665 25.8894Z" fill="#367CFF"/>
<path d="M201.522 29.5298L195.861 43.6919L198.59 45.948L204.25 31.7859L201.522 29.5298Z" fill="#0CBC8B"/>
<path d="M283.718 150.638L281.057 153.054L287.118 166.869L289.779 164.453L283.718 150.638Z" fill="#0CBC8B"/>
<path d="M160.304 217.908L157.488 219.931L162.564 234.544L165.379 232.52L160.304 217.908Z" fill="#0CBC8B"/>
<path d="M119.115 179.458L115.854 195.105L118.868 196.405L122.129 180.758L119.115 179.458Z" fill="#367CFF"/>
<path d="M316.128 228.216L306.695 237.314L308.448 241.074L317.881 231.976L316.128 228.216Z" fill="#367CFF"/>
<path d="M317.541 -8.06375e-05L311.881 14.1616L314.609 16.4176L320.269 2.25592L317.541 -8.06375e-05Z" fill="#0CBC8B"/>
<path d="M2.93124 115.858L0 117.506L4.13451 132.72L7.06575 131.072L2.93124 115.858Z" fill="#0CBC8B"/>
<path d="M307.213 97.0629L305.326 100.686L314.416 110.479L316.303 106.856L307.213 97.0629Z" fill="#0CBC8B"/>
<path d="M51.8825 30.3195L43.6113 41.5142L45.7681 44.8108L54.0393 33.6161L51.8825 30.3195Z" fill="#367CFF"/>
<path d="M143.494 16.9883L140.766 19.2444L146.426 33.4065L149.155 31.1504L143.494 16.9883Z" fill="#367CFF"/>
<path d="M32.2074 194.8L26.1465 208.615L28.808 211.03L34.869 197.216L32.2074 194.8Z" fill="#0CBC8B"/>
<path d="M5.36041 232.642L3.60742 236.404L13.0451 245.503L14.7981 241.741L5.36041 232.642Z" fill="#367CFF"/>
<path d="M369.475 52.244L366.746 54.5L372.406 68.6617L375.135 66.4057L369.475 52.244Z" fill="#367CFF"/>
<path d="M251.229 90.8379L243.652 103.006L245.997 106.026L253.574 93.8579L251.229 90.8379Z" fill="#367CFF"/>
<path d="M184.712 227.994L179.637 242.607L182.452 244.63L187.528 230.017L184.712 227.994Z" fill="#0CBC8B"/>
<path d="M225.905 189.546L222.891 190.845L226.152 206.492L229.166 205.193L225.905 189.546Z" fill="#367CFF"/>
<path d="M226.92 198.475L216.193 186.747C215.958 186.49 215.687 186.305 215.399 186.206C215.111 186.107 214.812 186.096 214.521 186.172C214.23 186.248 213.953 186.411 213.707 186.65C213.462 186.888 213.254 187.198 213.097 187.559C212.821 188.237 212.73 189.039 212.841 189.809C212.953 190.579 213.259 191.262 213.701 191.726L216.001 194.24L206.245 191.108C205.164 190.732 203.671 191.266 203.458 193.037C203.345 193.711 203.395 194.42 203.598 195.048C203.801 195.677 204.146 196.188 204.577 196.498C204.572 196.511 204.568 196.526 204.566 196.541C204.565 196.552 204.565 196.564 204.566 196.576L202.899 195.997C202.59 195.89 202.269 195.883 201.958 195.977C201.648 196.072 201.356 196.265 201.103 196.542C200.851 196.819 200.645 197.174 200.5 197.58C200.355 197.987 200.275 198.434 200.266 198.891C200.261 199.61 200.428 200.31 200.739 200.873C201.05 201.436 201.487 201.829 201.975 201.985L202.683 202.231C202.687 202.264 202.696 202.295 202.708 202.324C202.202 202.318 201.711 202.57 201.323 203.037C200.934 203.503 200.674 204.153 200.588 204.87C200.51 205.659 200.642 206.461 200.957 207.116C201.272 207.771 201.747 208.231 202.288 208.404L204.049 209.017C204.02 209.033 203.995 209.059 203.974 209.093C203.954 209.127 203.939 209.168 203.931 209.211C203.924 209.264 203.928 209.318 203.942 209.368C203.49 209.542 203.091 209.925 202.805 210.457C202.519 210.99 202.363 211.643 202.361 212.315C202.368 213.022 202.541 213.704 202.851 214.252C203.162 214.799 203.591 215.18 204.071 215.333L218.931 220.497C221.01 221.219 223.192 221.031 225.196 219.959C227.201 218.886 228.937 216.977 230.183 214.477C231.256 212.32 231.703 209.647 231.428 207.024C231.153 204.401 230.178 202.036 228.71 200.431L226.92 198.475Z" fill="#FBBFA8"/>
<g opacity="0.2">
<path d="M214.224 199.667C214.212 199.739 214.181 199.801 214.137 199.84C214.093 199.879 214.041 199.891 213.99 199.875L204.714 196.876C204.689 196.868 204.665 196.853 204.644 196.831C204.623 196.81 204.605 196.783 204.591 196.751C204.577 196.72 204.568 196.685 204.563 196.648C204.559 196.611 204.56 196.574 204.565 196.538C204.571 196.501 204.582 196.467 204.597 196.437C204.611 196.406 204.63 196.381 204.652 196.361C204.674 196.341 204.698 196.327 204.724 196.321C204.749 196.315 204.775 196.316 204.801 196.324L214.077 199.323C214.102 199.331 214.126 199.346 214.147 199.368C214.168 199.389 214.186 199.416 214.2 199.448C214.214 199.48 214.223 199.515 214.228 199.551C214.232 199.588 214.231 199.626 214.225 199.662L214.224 199.667Z" fill="#0C0C0C"/>
</g>
<g opacity="0.2">
<path d="M213.418 205.588C213.405 205.661 213.374 205.723 213.329 205.762C213.285 205.801 213.232 205.813 213.182 205.796L202.829 202.452C202.804 202.444 202.78 202.428 202.759 202.407C202.738 202.385 202.72 202.358 202.706 202.327C202.692 202.295 202.683 202.26 202.679 202.223C202.674 202.186 202.675 202.149 202.681 202.112C202.694 202.04 202.726 201.978 202.769 201.938C202.813 201.898 202.866 201.884 202.917 201.898L213.269 205.243C213.294 205.251 213.318 205.266 213.34 205.287C213.361 205.309 213.379 205.336 213.393 205.368C213.406 205.399 213.416 205.434 213.42 205.471C213.424 205.508 213.424 205.546 213.418 205.582V205.588Z" fill="#0C0C0C"/>
</g>
<g opacity="0.2">
<path d="M212.571 212.008C212.559 212.08 212.528 212.142 212.484 212.18C212.44 212.219 212.387 212.232 212.337 212.216L204.079 209.548C204.029 209.532 203.984 209.487 203.956 209.424C203.928 209.36 203.919 209.284 203.931 209.21C203.942 209.137 203.973 209.073 204.017 209.033C204.061 208.993 204.115 208.98 204.166 208.996L212.423 211.663C212.449 211.672 212.473 211.687 212.494 211.708C212.515 211.73 212.533 211.757 212.547 211.789C212.561 211.82 212.57 211.855 212.575 211.892C212.579 211.929 212.578 211.967 212.573 212.003L212.571 212.008Z" fill="#0C0C0C"/>
</g>
<path d="M175.993 117.808L181.982 100.448C182.114 100.066 182.299 99.7284 182.526 99.4556C182.754 99.1828 183.018 98.9812 183.303 98.8634C183.587 98.7457 183.886 98.7145 184.179 98.7717C184.472 98.829 184.754 98.9735 185.007 99.1961C185.464 99.6275 185.794 100.288 185.932 101.049C186.07 101.81 186.007 102.618 185.754 103.316L184.47 107.038L192.243 98.0004C193.095 96.9735 194.597 96.4976 195.335 97.9484C195.644 98.48 195.819 99.1467 195.831 99.8396C195.843 100.533 195.691 101.211 195.401 101.764C195.409 101.773 195.417 101.783 195.425 101.795C195.429 101.805 195.433 101.815 195.436 101.826L196.75 100.242C196.994 99.9486 197.28 99.7374 197.587 99.6234C197.895 99.5094 198.216 99.4955 198.528 99.5827C198.839 99.67 199.133 99.8561 199.389 100.128C199.644 100.399 199.854 100.749 200.003 101.152C200.23 101.794 200.296 102.527 200.191 103.231C200.086 103.934 199.817 104.564 199.428 105.016L198.868 105.69C198.875 105.722 198.877 105.756 198.874 105.789C199.326 105.46 199.843 105.372 200.335 105.542C200.827 105.712 201.261 106.128 201.56 106.715C201.873 107.372 202.002 108.175 201.922 108.963C201.842 109.752 201.558 110.467 201.127 110.968L199.738 112.641C199.769 112.637 199.801 112.644 199.83 112.661C199.859 112.678 199.884 112.705 199.905 112.739C199.927 112.782 199.941 112.833 199.944 112.887C200.402 112.754 200.879 112.842 201.299 113.136C201.719 113.431 202.061 113.916 202.271 114.517C202.483 115.155 202.538 115.876 202.429 116.565C202.32 117.254 202.053 117.87 201.67 118.313L189.951 132.433C188.311 134.408 186.299 135.634 184.172 135.954C182.045 136.274 179.9 135.672 178.012 134.227C176.384 132.981 175.158 130.872 174.595 128.346C174.031 125.821 174.174 123.08 174.994 120.704L175.993 117.808Z" fill="#FBBFA8"/>
<g opacity="0.2">
<path d="M187.736 110.764C187.769 110.821 187.817 110.857 187.869 110.864C187.92 110.871 187.972 110.848 188.012 110.801L195.397 102.19C195.438 102.143 195.464 102.075 195.469 102C195.474 101.925 195.459 101.851 195.426 101.792C195.393 101.734 195.346 101.697 195.294 101.689C195.242 101.681 195.19 101.703 195.149 101.751L187.764 110.361C187.724 110.409 187.698 110.477 187.692 110.551C187.687 110.625 187.702 110.699 187.735 110.758L187.736 110.764Z" fill="#0C0C0C"/>
</g>
<g opacity="0.2">
<path d="M190.287 115.555C190.32 115.612 190.368 115.648 190.419 115.654C190.471 115.661 190.522 115.638 190.562 115.591L198.804 105.982C198.845 105.934 198.87 105.866 198.875 105.792C198.881 105.718 198.866 105.644 198.833 105.585C198.799 105.53 198.752 105.494 198.701 105.487C198.65 105.479 198.599 105.499 198.558 105.544L190.313 115.151C190.272 115.199 190.247 115.267 190.241 115.341C190.236 115.415 190.251 115.489 190.283 115.547L190.287 115.555Z" fill="#0C0C0C"/>
</g>
<g opacity="0.2">
<path d="M193.029 120.765C193.062 120.822 193.11 120.858 193.161 120.865C193.213 120.872 193.264 120.849 193.304 120.802L199.879 113.136C199.92 113.089 199.945 113.021 199.951 112.946C199.956 112.871 199.941 112.797 199.908 112.738C199.875 112.68 199.827 112.643 199.776 112.635C199.724 112.627 199.672 112.649 199.631 112.697L193.055 120.362C193.015 120.409 192.989 120.477 192.984 120.551C192.978 120.626 192.993 120.7 193.026 120.758L193.029 120.765Z" fill="#0C0C0C"/>
</g>
<path d="M41.5844 102.923C41.5844 102.923 40.7398 121.152 37.8888 127.763C29.6802 146.802 27.3021 168.22 35.5221 179.411C43.7422 190.601 96.1726 190.756 100.145 165.019C103.489 143.35 96.3126 141.02 94.5663 123.147C93.7764 115.059 91.6028 98.0996 91.6028 98.0996" fill="#0A0A0A"/>
<path d="M86.5751 161.245C86.4846 161.228 85.4802 185.197 66.1206 183.108C52.7183 181.663 47.9397 161.21 47.6328 161.21C49.0778 160.768 51.5109 160.126 52.1526 159.633C54.2632 158.002 56.8734 156.305 57.5548 150.41C57.9482 147.015 57.2813 129.632 57.4863 126.193L78.0587 132.799C77.7712 140.059 75.7593 156.89 82.811 159.868C83.9841 160.362 85.2481 160.815 86.5751 161.245Z" fill="#FBBFA8"/>
<path opacity="0.5" d="M78.3482 152.991C78.0259 151.497 77.8184 149.957 77.7294 148.399C77.5033 144.842 77.5484 141.26 77.8639 137.717C73.6828 136.906 69.7438 134.423 66.4947 130.552C66.1127 132.581 64.0115 141.448 64.5934 143.376C65.6921 147.022 70.8586 152.991 78.3482 152.991Z" fill="#0C0C0C"/>
<path d="M75.6876 145.524C67.5765 146.655 57.0822 141.986 54.9083 126.45L52.9468 112.432C50.7728 96.8966 54.6836 82.6603 64.8534 79.7163C75.0236 76.774 84.3873 87.1655 86.5612 102.701L87.4298 108.908C88.2638 114.869 90.1588 143.509 75.6876 145.524Z" fill="#FBBFA8"/>
<path opacity="0.1" d="M70.5312 125.165C71.866 124.936 72.8534 123.609 72.7366 122.201C72.6197 120.793 71.443 119.837 70.1082 120.066C68.7735 120.295 67.7861 121.622 67.9029 123.03C68.0197 124.439 69.1965 125.394 70.5312 125.165Z" fill="#0C0C0C"/>
<path opacity="0.1" d="M84.6362 119.535C84.7542 120.942 85.9324 121.896 87.2672 121.67C87.4979 121.63 87.725 121.556 87.9451 121.449C88.0072 119.772 88.0107 118.159 87.9769 116.666C87.6062 116.533 87.2214 116.5 86.8424 116.571C85.5075 116.797 84.5205 118.124 84.6362 119.535Z" fill="#0C0C0C"/>
<path opacity="0.5" d="M78.7373 123.882C78.7439 123.881 78.7505 123.879 78.757 123.877C79.1692 123.754 79.5763 123.597 79.9765 123.409C80.5737 123.122 81.3534 122.65 81.2464 121.873C81.1229 120.988 78.0992 111.925 77.7562 110.896C77.7421 110.849 77.7217 110.808 77.6961 110.773C77.6705 110.738 77.6403 110.711 77.6073 110.693C77.5743 110.675 77.5392 110.668 77.504 110.67C77.4688 110.672 77.4343 110.685 77.4025 110.707C77.3708 110.728 77.3424 110.759 77.3192 110.797C77.2959 110.835 77.2782 110.88 77.2671 110.928C77.2561 110.976 77.2519 111.027 77.2548 111.077C77.2577 111.128 77.2677 111.177 77.2841 111.222C78.5733 115.081 80.6496 121.427 80.733 122.023C80.6677 122.301 79.6771 122.843 78.6547 123.14C78.6208 123.148 78.5883 123.165 78.559 123.191C78.5298 123.217 78.5044 123.251 78.4843 123.291C78.4642 123.331 78.4497 123.377 78.4418 123.425C78.4339 123.473 78.4326 123.523 78.4381 123.571C78.4436 123.62 78.4557 123.667 78.4737 123.709C78.4918 123.751 78.5154 123.788 78.5432 123.816C78.5711 123.845 78.6026 123.866 78.6361 123.878C78.6695 123.889 78.7042 123.891 78.7381 123.883L78.7373 123.882Z" fill="#0C0C0C"/>
<path d="M44.8319 117.465L53.9493 114.904C60.8366 110.761 62.7906 93.4971 62.7906 93.4971C62.7906 93.4971 71.2904 105.14 91.6047 98.0996C91.6047 98.0996 87.192 57.3111 57.196 69.6949C47.5243 73.6868 40.6732 87.8666 41.6921 106.648C42.4062 119.805 44.8319 117.465 44.8319 117.465Z" fill="#0A0A0A"/>
<path d="M56.2007 131C53.1102 131.895 49.9394 127.865 49.3162 123.418C48.6931 118.972 50.8568 115.797 53.9473 114.901L55.9568 117.419L58.8574 130.23L56.2007 131Z" fill="#FBBFA8"/>
<path d="M79.9463 103.669C80.7196 102.882 81.6238 102.404 82.5672 102.283C83.0411 102.218 83.5193 102.256 83.9854 102.397C84.4553 102.534 84.9114 102.756 85.343 103.057L85.3564 103.066C85.4042 103.097 85.4584 103.099 85.5073 103.073C85.5563 103.046 85.5962 102.994 85.6184 102.926C85.6406 102.857 85.6435 102.78 85.6264 102.709C85.6092 102.638 85.5735 102.579 85.5267 102.545C85.0694 102.198 84.5835 101.935 84.0806 101.762C83.5741 101.585 83.052 101.519 82.5317 101.565C81.478 101.648 80.4592 102.137 79.5812 102.979C79.5485 103.011 79.5205 103.052 79.4987 103.1C79.477 103.147 79.462 103.2 79.4546 103.256C79.4471 103.312 79.4475 103.369 79.4555 103.425C79.4635 103.481 79.4791 103.534 79.5013 103.581C79.5236 103.628 79.5521 103.668 79.5852 103.699C79.6182 103.73 79.6553 103.752 79.6941 103.762C79.733 103.773 79.7729 103.772 79.8116 103.76C79.8502 103.749 79.8869 103.726 79.9196 103.694L79.9266 103.687L79.9463 103.669Z" fill="#0C0C0C"/>
<path d="M71.6194 105.324C70.584 105.028 69.5124 105.137 68.5163 105.639C68.0239 105.883 67.5597 106.232 67.1394 106.674C66.7206 107.111 66.3418 107.621 66.0119 108.194C65.9786 108.251 65.9619 108.324 65.9653 108.399C65.9687 108.473 65.992 108.542 66.0302 108.592C66.0685 108.643 66.1188 108.669 66.1705 108.667C66.2222 108.665 66.2714 108.635 66.3077 108.582L66.3183 108.566C66.6367 108.05 66.9988 107.594 67.3962 107.208C67.7895 106.822 68.2211 106.524 68.6764 106.323C69.58 105.915 70.5426 105.859 71.4664 106.159L71.4892 106.168C71.5667 106.195 71.6485 106.176 71.7166 106.117C71.7847 106.057 71.8335 105.961 71.8523 105.849C71.8711 105.738 71.8583 105.62 71.8167 105.522C71.7752 105.424 71.7083 105.354 71.6308 105.327L71.6194 105.324Z" fill="#0C0C0C"/>
<path d="M53.9556 114.687C60.0843 111.406 62.1182 105.318 62.7445 100.788C63.1499 97.7672 63.1119 94.6576 62.6332 91.6587L62.4436 91.7339C62.9151 94.6937 62.9516 97.7625 62.5506 100.744C61.9321 105.2 59.9274 111.189 53.8867 114.423L53.9556 114.687Z" fill="#0C0C0C"/>
<path d="M105.243 167.72L163.437 195.698L146.352 206.621L175.369 121L199.085 136.896L172.161 223.921C170.8 228.322 168.383 231.871 165.352 233.92C162.321 235.969 158.879 236.381 155.654 235.081L155.075 234.845L96 210.99L105.243 167.72Z" fill="#7C9070" fill-opacity="0.973958"/>
<path d="M65.7582 177.116C52.3464 176.206 51.7819 159.833 51.7819 159.833C51.7819 159.833 45.1366 160.451 40.7191 161.311C33.4868 162.718 28.7157 166.245 24.9186 171.706C21.3866 176.787 19.2363 182.283 21.5117 217.375C23.1593 242.784 21.9999 298.673 21.9999 298.673H103.729C103.729 298.673 109.436 217.929 110.112 206.493C111.404 184.658 115.052 179.838 107.66 168.59C102.3 160.433 88.4625 159.834 82.8927 159.835C82.8018 159.835 84.0229 178.354 65.7582 177.116Z" fill="#7C9070" fill-opacity="0.973958"/>
<path d="M81.4548 126.944C78.8194 128.871 75.8127 129.481 72.9097 128.676C72.8092 128.649 72.7054 128.664 72.6105 128.718C72.5155 128.773 72.4333 128.865 72.3735 128.984C72.3136 129.104 72.2786 129.245 72.2725 129.392C72.2663 129.538 72.2894 129.685 72.3389 129.813C73.2044 132.007 75.2571 135.755 78.7789 134.227C81.0527 133.24 81.9123 129.876 82.2309 127.794C82.2527 127.65 82.2455 127.5 82.2101 127.362C82.1747 127.223 82.1126 127.103 82.0311 127.013C81.9496 126.924 81.852 126.87 81.7499 126.858C81.6478 126.846 81.5454 126.876 81.4548 126.944Z" fill="white"/>
<path d="M81.6211 110.087C82.3244 110.087 82.8945 109.267 82.8945 108.255C82.8945 107.244 82.3244 106.424 81.6211 106.424C80.9178 106.424 80.3477 107.244 80.3477 108.255C80.3477 109.267 80.9178 110.087 81.6211 110.087Z" fill="#0C0C0C"/>
<path d="M69.3848 113.168C70.0881 113.168 70.6582 112.348 70.6582 111.336C70.6582 110.324 70.0881 109.504 69.3848 109.504C68.6815 109.504 68.1113 110.324 68.1113 111.336C68.1113 112.348 68.6815 113.168 69.3848 113.168Z" fill="#0C0C0C"/>
<path d="M109.931 214.449C109.923 214.45 109.915 214.45 109.907 214.449C109.855 214.439 109.808 214.401 109.776 214.342C109.744 214.283 109.729 214.208 109.736 214.134L111.001 199.378C111.004 199.341 111.012 199.305 111.025 199.272C111.037 199.24 111.054 199.211 111.075 199.188C111.095 199.165 111.119 199.148 111.144 199.139C111.169 199.129 111.195 199.127 111.221 199.132C111.246 199.137 111.271 199.149 111.293 199.167C111.316 199.185 111.336 199.21 111.352 199.239C111.367 199.268 111.379 199.302 111.386 199.338C111.393 199.374 111.395 199.411 111.392 199.448L110.126 214.203C110.12 214.271 110.097 214.333 110.061 214.378C110.025 214.424 109.979 214.449 109.931 214.449Z" fill="#0C0C0C"/>
<path d="M316.806 100.591C316.806 100.591 311.931 92.7163 312.497 77.9691C312.935 66.5506 319.058 75.785 319.058 75.785C319.058 75.785 319.429 67.5674 323.373 69.5241C327.316 71.4807 328.424 80.5419 328.424 80.5419" fill="#0C0C0C"/>
<path d="M344.205 76.47C344.205 76.47 363.896 85.3416 351.188 122.472L349.384 122.133L345.721 121.445" fill="#0C0C0C"/>
<path d="M316.193 161.185C316.284 161.168 317.285 185.058 336.58 182.975C349.938 181.536 354.701 161.152 355.007 161.152C353.567 160.711 351.141 160.071 350.502 159.58C348.398 157.954 345.796 156.263 345.118 150.388C344.727 147.002 345.39 129.679 345.186 126.252L324.681 132.834C324.968 140.07 326.973 156.845 319.945 159.814C318.776 160.305 317.515 160.756 316.193 161.185Z" fill="#FBBFA8"/>
<path opacity="0.52" d="M324.395 152.958C324.716 151.47 324.922 149.935 325.011 148.381C325.237 144.836 325.192 141.266 324.877 137.735C329.045 136.926 332.971 134.452 336.21 130.594C336.59 132.616 338.684 141.453 338.105 143.376C337.009 147.009 331.859 152.958 324.395 152.958Z" fill="#0C0C0C"/>
<path d="M326.853 144.868C334.928 146.119 345.421 141.632 347.706 126.182L349.766 112.242C352.048 96.7947 348.259 82.5431 338.145 79.4508C328.032 76.3585 318.621 86.5718 316.338 102.021L315.426 108.193C315.138 110.32 314.952 112.472 314.868 114.635C314.616 120.35 314.25 129.044 316.083 135.522C317.814 141.637 321.694 144.069 326.853 144.868Z" fill="#FBBFA8"/>
<path d="M320.437 109.276C321.141 109.276 321.711 108.456 321.711 107.445C321.711 106.433 321.141 105.613 320.437 105.613C319.734 105.613 319.164 106.433 319.164 107.445C319.164 108.456 319.734 109.276 320.437 109.276Z" fill="#0C0C0C"/>
<path d="M332.533 111.108C333.236 111.108 333.807 110.288 333.807 109.276C333.807 108.265 333.236 107.445 332.533 107.445C331.83 107.445 331.26 108.265 331.26 109.276C331.26 110.288 331.83 111.108 332.533 111.108Z" fill="#0C0C0C"/>
<path d="M346.381 130.697C349.454 131.637 352.645 127.669 353.298 123.248C353.952 118.828 351.82 115.628 348.747 114.688L346.725 117.166L343.738 129.889L346.381 130.697Z" fill="#FBBFA8"/>
<path d="M344.305 122.697C344.305 122.697 346.302 100.482 341.869 97.8035C338.919 96.02 330.584 100.158 323.935 96.2809C321.026 94.5834 318.006 94.838 317.429 96.8088C317.201 97.5891 316.937 85.3592 322.902 77.845C327.651 71.8619 340.266 73.4049 345.558 77.3306C360.213 88.1997 349.252 115.836 349.252 115.836L347.511 123.192L344.305 122.697Z" fill="#0C0C0C"/>
<g opacity="0.52">
<path d="M323.752 124.286L323.732 124.281C322.741 123.982 321.102 123.32 321.256 122.255C321.386 121.372 324.458 112.342 324.809 111.316C324.839 111.228 324.892 111.16 324.957 111.128C325.021 111.097 325.092 111.103 325.154 111.146C325.215 111.19 325.262 111.266 325.284 111.359C325.306 111.452 325.302 111.554 325.272 111.642C323.909 115.641 321.849 121.807 321.761 122.407C321.822 122.69 322.811 123.245 323.837 123.555C323.901 123.576 323.958 123.631 323.995 123.71C324.032 123.789 324.046 123.885 324.035 123.979C324.024 124.072 323.989 124.156 323.936 124.214C323.883 124.271 323.817 124.297 323.752 124.286Z" fill="#0C0C0C"/>
</g>
<path d="M323.523 101.715C322.549 101.008 321.461 100.692 320.373 100.8C319.838 100.849 319.312 101.012 318.811 101.285C318.315 101.552 317.845 101.908 317.411 102.344C317.339 102.411 317.287 102.515 317.268 102.636C317.249 102.756 317.263 102.883 317.308 102.988C317.353 103.094 317.425 103.169 317.509 103.199C317.592 103.228 317.681 103.209 317.754 103.146L317.777 103.127C318.175 102.773 318.602 102.491 319.048 102.29C319.488 102.088 319.947 101.983 320.409 101.978C321.322 101.959 322.222 102.287 323.019 102.929L323.049 102.955C323.105 103.003 323.166 103.034 323.231 103.047C323.295 103.061 323.36 103.056 323.423 103.032C323.486 103.009 323.545 102.968 323.597 102.912C323.649 102.856 323.692 102.785 323.725 102.705C323.758 102.624 323.779 102.535 323.788 102.443C323.797 102.35 323.793 102.256 323.776 102.166C323.76 102.076 323.731 101.991 323.692 101.917C323.652 101.843 323.603 101.78 323.547 101.734L323.523 101.715Z" fill="#0C0C0C"/>
<path d="M330.804 104.546C331.689 104.219 332.617 104.235 333.497 104.591C333.942 104.766 334.366 105.037 334.755 105.395C335.151 105.755 335.513 106.184 335.834 106.674L335.852 106.699C335.912 106.784 335.994 106.832 336.078 106.832C336.162 106.833 336.244 106.787 336.305 106.703C336.367 106.62 336.403 106.506 336.407 106.384C336.411 106.263 336.383 106.144 336.327 106.052C335.986 105.47 335.596 104.953 335.165 104.511C334.729 104.063 334.249 103.71 333.741 103.466C332.709 102.959 331.601 102.861 330.534 103.183C330.471 103.203 330.411 103.24 330.358 103.293C330.305 103.346 330.259 103.414 330.225 103.492C330.154 103.65 330.13 103.842 330.158 104.025C330.186 104.209 330.263 104.369 330.373 104.47C330.483 104.572 330.616 104.606 330.744 104.566L330.769 104.557L330.804 104.546Z" fill="#0C0C0C"/>
<path d="M322.193 127.713C325.061 128.744 328.087 128.371 330.791 126.652C330.884 126.593 330.988 126.574 331.089 126.597C331.19 126.619 331.284 126.683 331.361 126.78C331.438 126.877 331.494 127.003 331.523 127.144C331.552 127.285 331.552 127.435 331.524 127.576C331.021 129.993 329.604 134.31 325.934 133.952C323.564 133.723 322.203 130.72 321.568 128.794C321.524 128.66 321.507 128.511 321.52 128.365C321.533 128.218 321.575 128.08 321.64 127.966C321.706 127.853 321.793 127.768 321.891 127.724C321.989 127.679 322.094 127.675 322.193 127.713Z" fill="white"/>
<path d="M333.575 81.0103C334.945 76.3829 334.284 71.5461 332.098 70.2068C329.913 68.8675 327.03 71.5331 325.659 76.1604C324.289 80.7877 324.95 85.6245 327.135 86.9638C329.321 88.303 332.204 85.6376 333.575 81.0103Z" fill="#0C0C0C"/>
<path d="M336.88 177.116C350.291 176.206 350.856 159.833 350.856 159.833C350.856 159.833 357.501 160.451 361.919 161.311C369.151 162.718 373.922 166.245 377.719 171.706C381.251 176.787 383.401 182.283 381.126 217.375C379.478 242.784 380.638 298.673 380.638 298.673H298.909C298.909 298.673 293.202 217.931 292.525 206.493C291.234 184.658 287.586 179.838 294.977 168.59C300.337 160.433 314.175 159.834 319.745 159.835C319.835 159.835 318.616 178.354 336.88 177.116Z" fill="#FF4133" fill-opacity="0.973958"/>
<path d="M292.333 173.647L271.202 238.079L229.532 193.007L212.98 224.663L268.159 284.345C268.653 284.873 269.169 285.356 269.704 285.793C271.28 287.064 273.015 287.875 274.81 288.181C276.605 288.487 278.424 288.282 280.163 287.577C281.902 286.872 283.528 285.681 284.948 284.072C286.367 282.463 287.552 280.468 288.436 278.2L288.675 277.587L320.913 194.824L292.333 173.647Z" fill="#FF4133" fill-opacity="0.973958"/>
<path d="M383.774 299.239H11.5848C11.4805 299.239 11.3804 299.179 11.3066 299.073C11.2329 298.967 11.1914 298.823 11.1914 298.673C11.1914 298.523 11.2329 298.379 11.3066 298.273C11.3804 298.167 11.4805 298.107 11.5848 298.107H383.774C383.878 298.107 383.978 298.167 384.052 298.273C384.126 298.379 384.167 298.523 384.167 298.673C384.167 298.823 384.126 298.967 384.052 299.073C383.978 299.179 383.878 299.239 383.774 299.239Z" fill="#292A2E"/>
<path d="M302.821 214.511H103.518V312.496H302.821V214.511Z" fill="white"/>
<path d="M303.017 312.78H103.32V214.228H303.017V312.78ZM103.714 312.214H302.624V214.794H103.714V312.214Z" fill="#0C0C0C"/>
<path d="M93.6755 244.457L105.978 236.554C106.249 236.38 106.541 236.289 106.837 236.287C107.133 236.285 107.426 236.372 107.698 236.542C107.969 236.712 108.213 236.961 108.414 237.274C108.615 237.586 108.769 237.956 108.865 238.359C109.026 239.11 108.988 239.921 108.757 240.634C108.527 241.347 108.12 241.912 107.616 242.218L104.978 243.916L114.975 244.064C116.087 244.052 117.456 245.061 117.383 246.855C117.386 247.548 117.226 248.223 116.928 248.768C116.631 249.313 116.213 249.698 115.744 249.858C115.747 249.873 115.749 249.888 115.749 249.904C115.748 249.916 115.746 249.927 115.744 249.938L117.458 249.921C117.776 249.918 118.09 250.017 118.377 250.21C118.664 250.404 118.918 250.687 119.12 251.039C119.321 251.392 119.466 251.804 119.543 252.247C119.62 252.69 119.627 253.152 119.564 253.599C119.455 254.301 119.181 254.928 118.789 255.374C118.397 255.821 117.91 256.06 117.41 256.052L116.68 256.059C116.671 256.09 116.657 256.117 116.641 256.141C117.135 256.301 117.573 256.707 117.877 257.289C118.181 257.87 118.332 258.588 118.302 259.314C118.253 260.108 117.998 260.846 117.587 261.381C117.177 261.916 116.641 262.208 116.087 262.2L114.275 262.219C114.301 262.244 114.322 262.278 114.336 262.317C114.351 262.357 114.359 262.4 114.36 262.445C114.358 262.499 114.346 262.55 114.325 262.594C114.737 262.911 115.065 263.415 115.259 264.027C115.453 264.639 115.502 265.326 115.397 265.982C115.278 266.667 115.002 267.275 114.613 267.706C114.224 268.137 113.745 268.367 113.254 268.359L97.9667 268.515C95.8282 268.537 93.7339 267.64 91.9522 265.939C90.1704 264.238 88.7824 261.81 87.9661 258.967C87.2622 256.516 87.2506 253.766 87.9338 251.303C88.617 248.839 89.941 246.856 91.6247 245.774L93.6755 244.457Z" fill="#FBBFA8"/>
<g opacity="0.2">
<path d="M105.85 249.779C105.85 249.854 105.871 249.925 105.908 249.977C105.945 250.029 105.995 250.058 106.046 250.058L115.553 250.181C115.605 250.182 115.656 250.153 115.693 250.1C115.73 250.047 115.751 249.976 115.752 249.901C115.752 249.826 115.732 249.753 115.695 249.7C115.659 249.646 115.609 249.616 115.557 249.615L106.05 249.492C105.998 249.492 105.948 249.522 105.911 249.575C105.874 249.628 105.853 249.7 105.853 249.775L105.85 249.779Z" fill="#0C0C0C"/>
</g>
<g opacity="0.2">
<path d="M105.695 255.811C105.696 255.885 105.717 255.956 105.754 256.008C105.791 256.061 105.84 256.09 105.892 256.09L116.502 256.227C116.554 256.227 116.604 256.197 116.641 256.144C116.678 256.091 116.698 256.019 116.698 255.944C116.697 255.87 116.675 255.8 116.639 255.747C116.602 255.695 116.553 255.664 116.502 255.661L105.892 255.524C105.866 255.524 105.84 255.531 105.816 255.545C105.792 255.559 105.77 255.579 105.752 255.606C105.733 255.632 105.719 255.663 105.709 255.698C105.699 255.732 105.693 255.769 105.693 255.807L105.695 255.811Z" fill="#0C0C0C"/>
</g>
<g opacity="0.2">
<path d="M105.504 262.337C105.505 262.411 105.526 262.482 105.562 262.534C105.599 262.587 105.649 262.616 105.701 262.616L114.164 262.726C114.216 262.726 114.266 262.697 114.303 262.645C114.341 262.592 114.362 262.52 114.362 262.445C114.363 262.37 114.342 262.298 114.306 262.244C114.269 262.191 114.22 262.16 114.167 262.16L105.704 262.05C105.652 262.05 105.602 262.08 105.565 262.133C105.528 262.186 105.507 262.258 105.507 262.333L105.504 262.337Z" fill="#0C0C0C"/>
</g>
<path d="M97.1958 275.964L28.9854 298.266C26.7194 298.621 24.4271 298.216 22.2884 297.082C20.1496 295.949 18.2225 294.118 16.6584 291.733C15.0942 289.348 13.9355 286.475 13.2732 283.338C12.6109 280.201 12.463 276.886 12.8411 273.653L20.6469 183.346C21.2961 177.796 23.4514 172.845 26.6388 169.581C29.8261 166.317 33.7844 165.008 37.6428 165.942C41.5012 166.876 44.9437 169.976 47.2129 174.56C49.4822 179.144 50.3923 184.838 49.7432 190.387L45.9842 255.025L93.3747 239.599L97.1958 275.964Z" fill="#7C9070" fill-opacity="0.973958"/>
<path d="M36.3943 257.565C36.3449 257.564 36.2975 257.537 36.2614 257.488C36.2254 257.44 36.2034 257.373 36.1997 257.303C36.1961 257.232 36.2112 257.162 36.2419 257.106C36.2726 257.05 36.3168 257.013 36.3656 257.002L45.8705 254.083C45.8961 254.077 45.9222 254.079 45.9474 254.087C45.9726 254.096 45.9963 254.112 46.0171 254.134C46.0379 254.156 46.0555 254.184 46.0687 254.216C46.0819 254.248 46.0905 254.284 46.094 254.321C46.1016 254.395 46.0885 254.47 46.0576 254.531C46.0266 254.591 45.9803 254.631 45.9287 254.642L36.4238 257.561C36.414 257.564 36.4042 257.565 36.3943 257.565Z" fill="#0C0C0C"/>
<path d="M31.0322 298.673C30.98 298.678 30.9286 298.653 30.8893 298.603C30.8501 298.554 30.8261 298.483 30.8227 298.408C30.8193 298.333 30.8368 298.26 30.8713 298.203C30.9057 298.147 30.9544 298.112 31.0066 298.107L96.7681 275.83L93.0418 240.013L45.9341 254.639C45.9037 254.645 45.8727 254.64 45.8438 254.626C45.8148 254.611 45.7885 254.587 45.767 254.556C45.7455 254.524 45.7295 254.485 45.7204 254.443C45.7112 254.4 45.7091 254.356 45.7142 254.312L48.3567 217.38C48.3606 217.343 48.3697 217.308 48.3833 217.276C48.3969 217.244 48.4148 217.217 48.4359 217.195C48.4571 217.174 48.481 217.158 48.5063 217.15C48.5316 217.142 48.5578 217.141 48.5833 217.148C48.6347 217.161 48.6806 217.202 48.7109 217.263C48.7411 217.324 48.7532 217.4 48.7446 217.474L46.1482 254.027L93.1335 239.389C93.1587 239.379 93.1852 239.376 93.2112 239.381C93.2372 239.386 93.2623 239.398 93.2849 239.417C93.3075 239.436 93.3272 239.462 93.343 239.492C93.3587 239.522 93.3701 239.556 93.3766 239.593L97.1977 275.961C97.2097 276.032 97.202 276.107 97.1761 276.171C97.1501 276.234 97.1081 276.281 97.0588 276.3L31.0577 298.671C31.0493 298.672 31.0407 298.673 31.0322 298.673Z" fill="#0C0C0C"/>
<path d="M308.964 261.432L296.661 253.529C296.391 253.355 296.098 253.265 295.802 253.262C295.506 253.26 295.213 253.347 294.942 253.517C294.67 253.687 294.426 253.936 294.225 254.249C294.025 254.562 293.871 254.931 293.775 255.334C293.614 256.085 293.652 256.896 293.883 257.609C294.113 258.323 294.52 258.887 295.023 259.193L297.662 260.891L287.665 261.039C286.553 261.027 285.184 262.036 285.257 263.83C285.254 264.524 285.414 265.198 285.712 265.743C286.009 266.289 286.427 266.673 286.895 266.833C286.893 266.848 286.891 266.864 286.89 266.879C286.891 266.891 286.893 266.902 286.895 266.914L285.181 266.896C284.864 266.893 284.55 266.992 284.263 267.185C283.975 267.379 283.722 267.662 283.52 268.014C283.318 268.366 283.174 268.779 283.097 269.222C283.02 269.665 283.013 270.127 283.076 270.574C283.185 271.276 283.459 271.902 283.851 272.349C284.243 272.795 284.73 273.035 285.23 273.027L285.96 273.034C285.969 273.065 285.983 273.092 285.999 273.116C285.505 273.276 285.067 273.682 284.763 274.264C284.459 274.845 284.308 275.563 284.338 276.289C284.387 277.083 284.642 277.821 285.053 278.356C285.464 278.891 285.999 279.183 286.553 279.175L288.365 279.194C288.34 279.219 288.319 279.253 288.304 279.292C288.289 279.332 288.281 279.375 288.28 279.42C288.281 279.474 288.294 279.525 288.315 279.569C287.903 279.887 287.575 280.39 287.381 281.002C287.187 281.615 287.138 282.301 287.242 282.957C287.362 283.643 287.638 284.25 288.027 284.681C288.416 285.113 288.895 285.342 289.386 285.334L304.674 285.49C306.812 285.512 308.907 284.615 310.688 282.914C312.47 281.212 313.858 278.784 314.674 275.941C315.378 273.489 315.39 270.74 314.706 268.276C314.023 265.813 312.699 263.829 311.016 262.747L308.964 261.432Z" fill="#FBBFA8"/>
<g opacity="0.2">
<path d="M296.791 266.755C296.79 266.829 296.769 266.9 296.732 266.952C296.695 267.004 296.646 267.034 296.594 267.034L287.087 267.156C287.061 267.157 287.036 267.15 287.012 267.136C286.988 267.122 286.966 267.101 286.948 267.075C286.929 267.049 286.914 267.018 286.904 266.984C286.894 266.95 286.889 266.913 286.889 266.876C286.888 266.839 286.893 266.802 286.903 266.768C286.913 266.733 286.927 266.702 286.945 266.675C286.963 266.649 286.985 266.628 287.008 266.613C287.032 266.599 287.058 266.591 287.084 266.591L296.591 266.467C296.643 266.467 296.693 266.497 296.73 266.55C296.766 266.603 296.787 266.675 296.787 266.75L296.791 266.755Z" fill="#0C0C0C"/>
</g>
<g opacity="0.2">
<path d="M296.945 272.786C296.944 272.86 296.923 272.93 296.887 272.982C296.851 273.034 296.801 273.064 296.75 273.065L286.14 273.202C286.088 273.202 286.038 273.172 286.001 273.119C285.964 273.066 285.943 272.994 285.943 272.919C285.945 272.845 285.966 272.774 286.003 272.722C286.039 272.669 286.088 272.639 286.14 272.636L296.75 272.499C296.802 272.499 296.852 272.529 296.889 272.582C296.926 272.635 296.946 272.707 296.946 272.782L296.945 272.786Z" fill="#0C0C0C"/>
</g>
<g opacity="0.2">
<path d="M297.003 275.845C297.002 276.583 296.981 277.286 296.945 277.804C296.909 278.322 296.86 278.612 296.809 278.612L288.475 279.701C288.449 279.704 288.424 279.635 288.401 279.497C288.377 279.359 288.355 279.155 288.337 278.897C288.319 278.638 288.305 278.331 288.295 277.992C288.285 277.653 288.28 277.288 288.279 276.92C288.279 276.551 288.284 276.186 288.293 275.844C288.303 275.502 288.317 275.191 288.335 274.928C288.353 274.666 288.374 274.456 288.397 274.312C288.421 274.168 288.446 274.092 288.471 274.089L296.805 273C296.857 273 296.906 273.296 296.942 273.822C296.979 274.348 296.999 275.062 296.999 275.806L297.003 275.845Z" fill="#0C0C0C"/>
</g>
<path d="M309.375 292.939L373.651 298.266C375.917 298.621 378.21 298.216 380.348 297.082C382.487 295.949 384.414 294.118 385.978 291.733C387.543 289.348 388.701 286.475 389.364 283.338C390.026 280.201 390.174 276.886 389.796 273.653L381.991 183.343C381.67 180.595 380.975 177.965 379.947 175.604C378.919 173.242 377.578 171.195 376 169.578C374.421 167.962 372.637 166.809 370.749 166.185C368.861 165.56 366.906 165.477 364.996 165.939C363.085 166.401 361.257 167.401 359.615 168.879C357.973 170.358 356.549 172.287 355.425 174.557C354.302 176.827 353.5 179.393 353.066 182.109C352.632 184.825 352.574 187.637 352.895 190.384L356.654 258.983L309.657 256.571L309.375 292.939Z" fill="#FF4133" fill-opacity="0.973958"/>
<path d="M366.243 258.697C366.292 258.696 366.34 258.669 366.376 258.62C366.412 258.572 366.434 258.506 366.438 258.435C366.441 258.364 366.426 258.294 366.396 258.238C366.365 258.182 366.321 258.145 366.272 258.134L356.767 258.044C356.741 258.038 356.715 258.04 356.69 258.048C356.665 258.057 356.641 258.073 356.62 258.095C356.599 258.117 356.582 258.145 356.569 258.177C356.555 258.209 356.547 258.245 356.543 258.282C356.535 258.356 356.549 258.432 356.58 258.492C356.611 258.552 356.657 258.592 356.709 258.603L366.214 258.693C366.223 258.695 366.233 258.697 366.243 258.697Z" fill="#0C0C0C"/>
<path d="M371.606 298.673C371.658 298.678 371.71 298.653 371.749 298.603C371.788 298.553 371.812 298.483 371.815 298.408C371.819 298.333 371.801 298.259 371.767 298.203C371.732 298.146 371.684 298.112 371.631 298.107L309.803 292.807L309.988 256.99L356.703 258.603C356.733 258.608 356.764 258.603 356.793 258.589C356.822 258.574 356.848 258.55 356.87 258.519C356.891 258.487 356.907 258.448 356.916 258.406C356.926 258.364 356.928 258.319 356.923 258.275L354.28 217.382C354.277 217.346 354.267 217.31 354.254 217.279C354.24 217.247 354.222 217.219 354.201 217.198C354.18 217.176 354.156 217.161 354.131 217.153C354.106 217.145 354.079 217.144 354.054 217.15C354.028 217.157 354.004 217.17 353.982 217.19C353.96 217.209 353.941 217.235 353.926 217.265C353.911 217.295 353.9 217.33 353.895 217.366C353.889 217.402 353.888 217.44 353.892 217.476L356.491 257.99L309.899 256.366C309.873 256.356 309.847 256.353 309.821 256.358C309.795 256.363 309.77 256.375 309.747 256.394C309.725 256.413 309.705 256.439 309.689 256.469C309.673 256.499 309.662 256.534 309.656 256.57L309.375 292.938C309.363 293.009 309.37 293.085 309.396 293.148C309.422 293.211 309.464 293.258 309.514 293.277L371.579 298.667C371.588 298.67 371.597 298.672 371.606 298.673Z" fill="#0C0C0C"/>
</svg>
