<svg width="428" height="331" viewBox="0 0 428 331" fill="none" xmlns="http://www.w3.org/2000/svg">
<path fill-rule="evenodd" clip-rule="evenodd" d="M335.233 111.576C335.032 111.431 334.562 111.38 334.342 111.337C333.429 111.157 332.49 111.079 331.558 111.079C328.691 111.083 325.776 111.365 322.958 111.852C321.166 112.161 319.004 113.202 317.221 112.637C314.119 111.652 310.983 111.7 308.039 113.106C305.347 114.392 303.304 116.834 302.112 119.472C301.932 119.87 301.202 121.337 300.995 122.325C300.907 122.527 300.822 122.73 300.746 122.936C300.529 123.523 300.334 124.119 300.153 124.717C300.075 124.972 299.881 125.535 300.112 125.644C299.743 126.325 299.416 127.026 299.144 127.75C298.352 129.857 297.486 132.168 297.207 134.401C297.104 135.228 297.1 136.059 297.196 136.888C297.243 137.297 297.224 138.12 297.501 138.432C298.091 139.092 298.393 138.168 298.327 137.727C297.82 134.37 298.799 131.217 299.959 128.062C300.71 126.021 301.943 124.154 303.324 122.464C304.442 121.095 305.641 120.017 307.174 119.11C309.048 118 311.051 117.104 313.036 116.204C314.342 115.612 315.649 115.036 316.991 114.526C317.29 114.412 317.759 114.121 318.09 114.12C318.791 114.117 319.783 114.634 320.457 114.826C322.679 115.458 324.93 116.267 327.23 116.59C328.702 116.797 330.085 116.564 331.461 116.073C331.602 116.023 331.837 115.894 332.128 115.71C333.153 115.316 334.118 114.821 334.961 114.106C335.449 113.694 335.889 113.162 336.292 112.675C336.411 112.53 336.463 112.363 336.467 112.204C336.556 112.156 336.616 112.101 336.631 112.036C336.731 111.556 335.818 111.548 335.233 111.576Z" fill="#89C5CC"/>
<path fill-rule="evenodd" clip-rule="evenodd" d="M102.282 151.537C101.719 151.993 101.167 152.458 100.629 152.942C100.219 153.312 99.4927 153.753 99.3455 154.312C99.1923 154.893 99.6758 155.437 100.057 155.788C102.077 157.646 104.35 158.902 107.148 159.111C111.456 159.433 115.206 158.332 118.944 156.168C121.569 154.647 123.309 152.398 123.689 149.36C126.816 150.66 129.84 152.451 132.41 154.65C133.678 155.734 134.77 156.937 135.78 158.268C136.427 159.122 137.053 159.989 137.634 160.89C137.886 161.281 138.143 161.975 138.56 162.2C139.049 162.465 139.641 162.05 139.616 161.506C139.596 161.053 139.107 160.528 138.878 160.157C138.499 159.543 138.113 158.932 137.708 158.334C137.051 157.367 136.372 156.413 135.632 155.507C133.968 153.472 131.851 151.791 129.657 150.357C125.447 147.607 120.827 145.875 115.704 145.728C112.555 145.637 109.905 146.714 107.212 148.321C105.535 149.321 103.804 150.305 102.282 151.537Z" fill="#DDE3E9"/>
<path fill-rule="evenodd" clip-rule="evenodd" d="M143.139 138.236C139.856 134.855 136.563 131.517 132.896 128.541C130.734 126.787 128.457 125.192 126.226 123.529C126.484 123.755 126.736 123.986 126.982 124.224C126.286 123.752 125.375 123.484 124.637 123.047C123.813 122.559 123.026 122.001 122.254 121.438C120.747 120.34 119.263 119.221 117.714 118.18C115.988 117.021 114.199 115.949 112.444 114.834C110.954 113.886 109.446 112.85 107.853 112.076C106.984 111.654 106.114 111.154 105.241 110.714C104.95 110.566 101.988 108.696 101.995 108.691C102.159 108.567 103.649 109.268 103.88 109.362C104.553 109.637 105.197 109.966 105.844 110.294C105.489 109.593 105.208 108.857 105.055 108.081C105.007 107.842 104.629 106.101 104.822 105.954C104.919 105.882 105.864 108.998 105.912 109.297C105.952 109.54 105.946 109.891 106.026 110.121C106.154 110.493 106.148 110.381 106.431 110.591C106.95 110.975 107.64 111.215 108.201 111.536C108.505 111.706 109.443 112.376 110.008 112.567C111.718 113.398 113.451 114.676 115.076 115.736C114.65 114.935 114.325 114.097 114.089 113.219C114.032 113.011 113.425 111.14 113.572 111.029C113.738 110.904 114.895 113.761 114.964 114.031C115.091 114.534 115.117 115.093 115.277 115.581C115.452 116.118 115.998 116.308 116.49 116.621C118.3 117.771 120.049 118.993 121.768 120.272C123.644 116.935 121.481 112.907 119.658 110.107C118.344 108.09 116.575 106.36 114.707 104.85C112.214 102.835 109.363 101.225 106.514 99.7519C103.195 98.0361 99.6077 96.973 95.878 96.4817C93.9274 96.2249 91.9321 96.232 89.9618 96.3144C88.9993 96.3547 88.0753 96.4821 87.1531 96.796C86.7371 96.9376 86.3353 97.1162 85.9439 97.316C85.6464 97.4677 84.9267 97.6283 84.756 97.8546C83.3477 99.687 82.6276 101.513 82.7375 103.816C82.8415 105.996 83.53 108.177 84.4641 110.121C85.5048 112.287 86.843 114.252 88.5934 115.901C89.9286 117.159 91.4214 118.255 92.9046 119.335C98.1793 123.179 104.867 126.523 111.699 125.664C113.91 125.386 116.013 124.613 117.979 123.562C118.442 123.314 118.903 123.064 119.34 122.771C119.635 122.574 120.423 121.686 120.719 121.654C121.126 121.609 122.001 122.436 122.382 122.688C125.28 124.6 128.102 126.617 130.864 128.715C133.804 130.947 136.598 133.331 139.311 135.827C140.465 136.889 141.612 137.953 142.732 139.05C142.993 139.305 143.63 140.245 144.103 140.288C144.402 140.315 144.604 140.06 144.561 139.783C144.487 139.302 143.475 138.582 143.139 138.236Z" fill="#C1DEE2"/>
<path fill-rule="evenodd" clip-rule="evenodd" d="M331.785 125.117C330.514 124.839 329.109 124.86 327.815 124.883C320.871 124.978 314.049 128.266 309.61 133.52C305.831 137.993 304.792 143.555 304.045 149.176C303.972 149.734 303.94 150.289 303.898 150.848C303.889 150.968 303.876 151.075 303.861 151.176C303.568 151.439 303.414 151.745 303.588 152.081C302.941 153.496 302.394 154.948 301.924 156.445C300.542 160.85 299.137 165.34 300.002 169.973C300.205 167.423 300.631 164.816 301.139 162.309C301.168 162.165 301.2 162.022 301.233 161.88C301.237 161.865 301.24 161.849 301.243 161.834C301.423 161.067 301.657 160.322 301.942 159.589C301.945 159.58 301.948 159.573 301.951 159.565C301.988 159.468 302.028 159.372 302.068 159.276C302.15 159.078 302.233 158.879 302.322 158.682C302.352 158.615 302.381 158.547 302.409 158.479C302.823 157.462 302.998 156.317 303.37 155.266C303.459 155.027 303.551 154.789 303.649 154.552C303.655 154.538 303.66 154.524 303.666 154.511C303.929 153.873 304.22 153.243 304.527 152.62C304.694 152.495 304.783 152.183 304.928 151.9C304.957 151.844 305.19 151.473 305.259 151.258C305.441 150.908 305.621 150.558 305.803 150.209C305.798 150.211 305.792 150.213 305.786 150.215C305.969 149.879 306.152 149.545 306.333 149.212C306.373 149.139 306.413 149.066 306.454 148.993C306.519 148.876 306.584 148.76 306.649 148.643C307.257 147.554 307.903 146.488 308.572 145.434C308.812 145.058 309.383 144.518 309.492 144.097C309.496 144.08 309.497 144.066 309.5 144.051C310.953 142.009 312.627 140.126 314.634 138.634C314.391 138.896 313.875 139.786 313.739 139.962C313.322 140.502 312.869 141.004 312.415 141.512C311.6 142.423 310.805 143.362 310.099 144.356C308.807 146.172 307.693 148.084 306.639 150.035C306.63 150.046 306.618 150.057 306.609 150.069C306.079 150.721 305.746 151.708 305.365 152.454C306.873 151.756 308.541 151.301 310.089 150.68C311.633 150.062 313.134 149.373 314.584 148.565C316.511 147.49 318.51 146.276 320.331 144.903C322.418 143.609 324.17 141.828 325.717 139.958C327.551 137.746 329.228 135.515 330.264 132.83C330.775 131.51 331.174 130.134 331.412 128.742C331.424 128.682 331.439 128.616 331.45 128.547C331.696 128.066 331.912 127.575 332.095 127.072C332.385 126.274 333.067 125.397 331.785 125.117Z" fill="#69A1AC"/>
<path fill-rule="evenodd" clip-rule="evenodd" d="M89.9888 129.348C89.4848 128.846 88.919 128.393 88.2548 128.07C88.0866 127.988 86.8357 127.441 86.7541 127.561C86.5643 127.841 89.8374 129.188 89.9888 129.348ZM95.9203 125.993C95.9162 126.015 96.3501 126.692 96.4682 126.901C96.7195 127.344 96.9517 127.796 97.1701 128.248C96.847 127.449 96.5148 126.707 95.9203 125.993ZM65.5835 131.511C65.1656 131.635 64.6636 131.146 65.2052 131.026C65.6439 130.929 65.6223 130.907 65.8191 130.582C65.979 130.317 66.0778 129.995 66.2179 129.718C66.5154 129.13 66.8531 128.569 67.2676 128.044C68.1555 126.918 69.2375 125.948 70.4512 125.13C72.5692 123.703 74.9436 122.399 77.4626 121.744C81.4678 120.702 86.0265 120.637 90.038 121.36C92.5223 121.807 94.7931 122.585 96.4425 124.427C97.267 125.347 97.9145 126.426 98.1974 127.613C98.2712 127.923 98.2574 128.269 98.3499 128.573C98.4919 129.04 98.4293 128.915 99.0227 129.006C99.6709 129.105 100.318 129.207 100.965 129.31C102.66 129.58 104.365 129.867 106.017 130.305C106.56 130.449 107.092 130.625 107.611 130.83C108.004 130.984 109.568 131.47 109.758 131.94C110.074 132.721 109.014 132.367 108.685 132.197C108.397 132.048 108.1 131.909 107.8 131.781C107.043 131.458 106.255 131.209 105.448 131.01C104.577 130.795 103.688 130.636 102.803 130.475C101.977 130.325 101.148 130.189 100.318 130.06C99.8569 129.987 99.3954 129.917 98.934 129.847C98.7763 129.823 98.4986 129.697 98.5195 129.886C97.5492 129.714 96.4999 129.739 95.5118 129.691C94.3015 129.633 93.0863 129.586 91.8719 129.62C90.9959 129.646 90.1192 129.698 89.2477 129.807C88.7386 129.87 88.2376 129.963 87.7377 130.08C87.4634 130.145 86.3813 130.281 86.2319 130.501C86.296 130.407 87.4903 130.499 87.6423 130.493C88.2503 130.472 88.8538 130.417 89.4595 130.355C90.5837 130.239 91.7086 130.179 92.8362 130.187C92.8321 130.369 92.0616 130.694 91.8734 130.815C91.4518 131.086 91.0481 131.381 90.6713 131.706C90.0078 132.277 89.2131 132.984 88.7539 133.66C88.8892 133.461 89.5568 133.202 89.7935 133.049C90.1729 132.805 90.5445 132.545 90.8964 132.266C91.2211 132.01 91.5241 131.732 91.8219 131.448C92.1198 131.165 92.5242 130.575 92.9156 130.386C92.9395 130.374 93.1102 130.498 93.2071 130.456C93.3047 130.414 93.4263 130.201 93.4512 130.192C93.8158 130.063 94.5076 130.224 94.8908 130.24C95.8845 130.283 96.8772 130.338 97.8698 130.388C98.1773 130.403 98.439 130.339 98.5549 130.548C98.6786 130.771 98.452 131.356 98.3875 131.599C98.1479 132.5 97.7229 133.309 97.0535 134.007C95.8003 135.315 94.2545 136.187 92.5086 136.77C85.8211 139.005 78.7061 139.899 72.0205 137.575C69.2528 136.613 65.0844 134.893 65.5835 131.511Z" fill="#89C5CC"/>
<mask id="mask0_225_2922" style="mask-type:luminance" maskUnits="userSpaceOnUse" x="59" y="173" width="313" height="102">
<path d="M371.928 173.315H59.8105V274.904H371.928V173.315Z" fill="white"/>
</mask>
<g mask="url(#mask0_225_2922)">
<g opacity="0.6">
<path fill-rule="evenodd" clip-rule="evenodd" d="M371.663 236.765C376.214 265.125 265.92 283.624 170.99 270.714C76.0595 257.805 32.5099 207.392 77.8092 180.53C123.109 153.668 367.115 208.406 371.663 236.765Z" fill="#DDE3E9"/>
</g>
</g>
<path d="M185.676 67.0947H132.373C130.726 67.0947 129.391 68.4298 129.391 70.0767V176.683C129.391 178.329 130.726 179.665 132.373 179.665H185.676C187.322 179.665 188.658 178.329 188.658 176.683V70.0767C188.658 68.4298 187.322 67.0947 185.676 67.0947Z" fill="#F2F2F2"/>
<path fill-rule="evenodd" clip-rule="evenodd" d="M158.837 172.582C161.925 172.582 164.429 170.079 164.429 166.991C164.429 163.903 161.925 161.4 158.837 161.4C155.749 161.4 153.246 163.903 153.246 166.991C153.246 170.079 155.749 172.582 158.837 172.582Z" fill="white"/>
<path fill-rule="evenodd" clip-rule="evenodd" d="M153.992 74.5496C154.403 74.5496 154.737 74.216 154.737 73.8041C154.737 73.3922 154.403 73.0586 153.992 73.0586C153.58 73.0586 153.246 73.3922 153.246 73.8041C153.246 74.216 153.58 74.5496 153.992 74.5496Z" fill="white"/>
<path d="M163.684 73.0586H157.347C156.935 73.0586 156.602 73.3924 156.602 73.8041C156.602 74.2158 156.935 74.5496 157.347 74.5496H163.684C164.095 74.5496 164.429 74.2158 164.429 73.8041C164.429 73.3924 164.095 73.0586 163.684 73.0586Z" fill="white"/>
<path d="M181.948 77.5317H136.1C135.277 77.5317 134.609 78.1993 134.609 79.0227V96.1691C134.609 96.9926 135.277 97.6601 136.1 97.6601H181.948C182.772 97.6601 183.439 96.9926 183.439 96.1691V79.0227C183.439 78.1993 182.772 77.5317 181.948 77.5317Z" fill="white"/>
<mask id="mask1_225_2922" style="mask-type:luminance" maskUnits="userSpaceOnUse" x="149" y="83" width="28" height="9">
<path d="M176.357 83.5703H149.146V91.6217H176.357V83.5703Z" fill="white"/>
</mask>
<g mask="url(#mask1_225_2922)">
<path d="M175.239 83.5703H150.265C149.647 83.5703 149.146 84.071 149.146 84.6886V85.4713C149.146 86.0889 149.647 86.5896 150.265 86.5896H175.239C175.856 86.5896 176.357 86.0889 176.357 85.4713V84.6886C176.357 84.071 175.856 83.5703 175.239 83.5703Z" fill="#DDE3E9"/>
<path d="M166.293 88.6023H150.265C149.647 88.6023 149.146 89.1029 149.146 89.7205V90.5033C149.146 91.1209 149.647 91.6216 150.265 91.6216H166.293C166.91 91.6216 167.411 91.1209 167.411 90.5033V89.7205C167.411 89.1029 166.91 88.6023 166.293 88.6023Z" fill="#DDE3E9"/>
</g>
<path fill-rule="evenodd" clip-rule="evenodd" d="M142.438 92.0687C144.908 92.0687 146.911 90.066 146.911 87.5958C146.911 85.1256 144.908 83.1228 142.438 83.1228C139.968 83.1228 137.965 85.1256 137.965 87.5958C137.965 90.066 139.968 92.0687 142.438 92.0687Z" fill="#C5CFD6"/>
<path d="M181.948 100.642H136.1C135.277 100.642 134.609 101.31 134.609 102.133V114.807C134.609 115.63 135.277 116.297 136.1 116.297H181.948C182.772 116.297 183.439 115.63 183.439 114.807V102.133C183.439 101.31 182.772 100.642 181.948 100.642Z" fill="white"/>
<mask id="mask2_225_2922" style="mask-type:luminance" maskUnits="userSpaceOnUse" x="149" y="105" width="28" height="7">
<path d="M176.357 105.339H149.146V111.601H176.357V105.339Z" fill="white"/>
</mask>
<g mask="url(#mask2_225_2922)">
<path d="M175.239 105.339H150.265C149.647 105.339 149.146 105.839 149.146 106.457V106.569C149.146 107.186 149.647 107.687 150.265 107.687H175.239C175.856 107.687 176.357 107.186 176.357 106.569V106.457C176.357 105.839 175.856 105.339 175.239 105.339Z" fill="#DDE3E9"/>
<path d="M166.293 109.252H150.265C149.647 109.252 149.146 109.753 149.146 110.371V110.483C149.146 111.1 149.647 111.601 150.265 111.601H166.293C166.91 111.601 167.411 111.1 167.411 110.483V110.371C167.411 109.753 166.91 109.252 166.293 109.252Z" fill="#DDE3E9"/>
</g>
<path fill-rule="evenodd" clip-rule="evenodd" d="M142.438 112.943C144.908 112.943 146.911 110.94 146.911 108.47C146.911 106 144.908 103.997 142.438 103.997C139.968 103.997 137.965 106 137.965 108.47C137.965 110.94 139.968 112.943 142.438 112.943Z" fill="#C5CFD6"/>
<path d="M181.948 119.28H136.1C135.277 119.28 134.609 119.947 134.609 120.771V133.444C134.609 134.267 135.277 134.935 136.1 134.935H181.948C182.772 134.935 183.439 134.267 183.439 133.444V120.771C183.439 119.947 182.772 119.28 181.948 119.28Z" fill="white"/>
<mask id="mask3_225_2922" style="mask-type:luminance" maskUnits="userSpaceOnUse" x="149" y="123" width="28" height="8">
<path d="M176.357 123.976H149.146V130.238H176.357V123.976Z" fill="white"/>
</mask>
<g mask="url(#mask3_225_2922)">
<path d="M175.239 123.976H150.265C149.647 123.976 149.146 124.477 149.146 125.094V125.206C149.146 125.824 149.647 126.324 150.265 126.324H175.239C175.856 126.324 176.357 125.824 176.357 125.206V125.094C176.357 124.477 175.856 123.976 175.239 123.976Z" fill="#DDE3E9"/>
<path d="M166.293 127.89H150.265C149.647 127.89 149.146 128.391 149.146 129.008V129.12C149.146 129.738 149.647 130.238 150.265 130.238H166.293C166.91 130.238 167.411 129.738 167.411 129.12V129.008C167.411 128.391 166.91 127.89 166.293 127.89Z" fill="#DDE3E9"/>
</g>
<path fill-rule="evenodd" clip-rule="evenodd" d="M142.438 131.58C144.908 131.58 146.911 129.577 146.911 127.107C146.911 124.637 144.908 122.634 142.438 122.634C139.968 122.634 137.965 124.637 137.965 127.107C137.965 129.577 139.968 131.58 142.438 131.58Z" fill="#AFB9C5"/>
<path d="M181.948 137.917H136.1C135.277 137.917 134.609 138.585 134.609 139.408V152.081C134.609 152.905 135.277 153.572 136.1 153.572H181.948C182.772 153.572 183.439 152.905 183.439 152.081V139.408C183.439 138.585 182.772 137.917 181.948 137.917Z" fill="white"/>
<mask id="mask4_225_2922" style="mask-type:luminance" maskUnits="userSpaceOnUse" x="149" y="142" width="28" height="7">
<path d="M176.357 142.614H149.146V148.876H176.357V142.614Z" fill="white"/>
</mask>
<g mask="url(#mask4_225_2922)">
<path d="M175.239 142.614H150.265C149.647 142.614 149.146 143.114 149.146 143.732V143.844C149.146 144.461 149.647 144.962 150.265 144.962H175.239C175.856 144.962 176.357 144.461 176.357 143.844V143.732C176.357 143.114 175.856 142.614 175.239 142.614Z" fill="#DDE3E9"/>
<path d="M166.293 146.527H150.265C149.647 146.527 149.146 147.028 149.146 147.646V147.757C149.146 148.375 149.647 148.876 150.265 148.876H166.293C166.91 148.876 167.411 148.375 167.411 147.757V147.646C167.411 147.028 166.91 146.527 166.293 146.527Z" fill="#DDE3E9"/>
</g>
<path fill-rule="evenodd" clip-rule="evenodd" d="M142.438 150.218C144.908 150.218 146.911 148.215 146.911 145.745C146.911 143.275 144.908 141.272 142.438 141.272C139.968 141.272 137.965 143.275 137.965 145.745C137.965 148.215 139.968 150.218 142.438 150.218Z" fill="#C5CFD6"/>
<path fill-rule="evenodd" clip-rule="evenodd" d="M140.626 158.045C140.132 158.045 139.64 158.055 139.147 158.081C138.77 158.1 138.196 158.022 137.878 158.257C137.547 158.5 137.57 158.998 137.622 159.35C137.895 161.211 138.561 162.861 139.955 164.179C142.101 166.209 144.56 167.24 147.471 167.699C149.516 168.022 151.404 167.574 152.909 166.12C154.009 168.161 154.843 170.42 155.262 172.7C155.468 173.825 155.531 174.936 155.495 176.082C155.471 176.815 155.431 177.547 155.352 178.278C155.318 178.595 155.156 179.075 155.281 179.375C155.426 179.727 155.918 179.761 156.139 179.461C156.322 179.211 156.289 178.72 156.326 178.424C156.389 177.933 156.447 177.441 156.488 176.948C156.556 176.149 156.605 175.348 156.602 174.546C156.593 172.744 156.193 170.936 155.645 169.226C154.594 165.944 152.888 163.028 150.236 160.741C148.605 159.334 146.738 158.764 144.62 158.458C143.302 158.268 141.962 158.045 140.626 158.045Z" fill="#89C5CC"/>
<path fill-rule="evenodd" clip-rule="evenodd" d="M148.242 171.091C142.912 171.091 139.323 175.387 137.626 179.852C136.986 181.534 136.836 183.382 136.589 185.149C136.51 185.716 136.54 186.58 136.309 187.086C136.226 187.269 136.034 187.335 136.126 187.584C136.181 187.735 136.29 187.828 136.453 187.858C136.789 187.92 137.263 187.554 137.55 187.411C139.934 186.215 141.5 184.366 142.778 182.104C143.571 180.702 144.374 179.247 144.845 177.708C145.132 176.767 145.3 175.777 145.398 174.802C145.437 174.417 145.474 174.024 145.472 173.638C145.47 173.254 145.291 173.052 145.163 172.718C146.941 172.045 148.949 171.861 150.75 172.559C152.416 173.204 153.8 174.451 154.575 176.018C154.777 176.425 154.932 176.854 155.045 177.292C155.119 177.579 155.123 177.951 155.26 178.211C155.593 178.84 156.293 178.42 156.226 177.834C156.038 176.201 155.104 174.561 153.91 173.426C152.403 171.994 150.362 171.091 148.242 171.091Z" fill="#89C5CC"/>
<path d="M210.279 76.7861H156.976C155.329 76.7861 153.994 78.1212 153.994 79.7681V186.374C153.994 188.021 155.329 189.356 156.976 189.356H210.279C211.926 189.356 213.261 188.021 213.261 186.374V79.7681C213.261 78.1212 211.926 76.7861 210.279 76.7861Z" fill="#DDE3E9"/>
<path fill-rule="evenodd" clip-rule="evenodd" d="M183.441 182.274C186.529 182.274 189.032 179.77 189.032 176.683C189.032 173.595 186.529 171.091 183.441 171.091C180.353 171.091 177.85 173.595 177.85 176.683C177.85 179.77 180.353 182.274 183.441 182.274Z" fill="white"/>
<path fill-rule="evenodd" clip-rule="evenodd" d="M178.595 84.241C179.007 84.241 179.341 83.9074 179.341 83.4955C179.341 83.0836 179.007 82.75 178.595 82.75C178.183 82.75 177.85 83.0836 177.85 83.4955C177.85 83.9074 178.183 84.241 178.595 84.241Z" fill="white"/>
<path d="M188.287 82.75H181.951C181.539 82.75 181.205 83.0838 181.205 83.4955C181.205 83.9072 181.539 84.241 181.951 84.241H188.287C188.699 84.241 189.033 83.9072 189.033 83.4955C189.033 83.0838 188.699 82.75 188.287 82.75Z" fill="white"/>
<path d="M206.55 87.2231H160.702C159.878 87.2231 159.211 87.8907 159.211 88.7141V105.861C159.211 106.684 159.878 107.352 160.702 107.352H206.55C207.373 107.352 208.041 106.684 208.041 105.861V88.7141C208.041 87.8907 207.373 87.2231 206.55 87.2231Z" fill="white"/>
<mask id="mask5_225_2922" style="mask-type:luminance" maskUnits="userSpaceOnUse" x="162" y="93" width="28" height="9">
<path d="M189.777 93.2617H162.566V101.313H189.777V93.2617Z" fill="white"/>
</mask>
<g mask="url(#mask5_225_2922)">
<path d="M188.659 93.2617H163.685C163.067 93.2617 162.566 93.7624 162.566 94.38V95.1627C162.566 95.7803 163.067 96.281 163.685 96.281H188.659C189.276 96.281 189.777 95.7803 189.777 95.1627V94.38C189.777 93.7624 189.276 93.2617 188.659 93.2617Z" fill="#DDE3E9"/>
<path d="M179.713 98.2937H163.685C163.067 98.2937 162.566 98.7944 162.566 99.4119V100.195C162.566 100.812 163.067 101.313 163.685 101.313H179.713C180.33 101.313 180.831 100.812 180.831 100.195V99.4119C180.831 98.7944 180.33 98.2937 179.713 98.2937Z" fill="#DDE3E9"/>
</g>
<path fill-rule="evenodd" clip-rule="evenodd" d="M202.822 99.8967C204.263 99.8967 205.431 98.7285 205.431 97.2875C205.431 95.8464 204.263 94.6782 202.822 94.6782C201.381 94.6782 200.213 95.8464 200.213 97.2875C200.213 98.7285 201.381 99.8967 202.822 99.8967Z" fill="#DDE3E9"/>
<path fill-rule="evenodd" clip-rule="evenodd" d="M202.821 98.4057C203.439 98.4057 203.94 97.9051 203.94 97.2874C203.94 96.6698 203.439 96.1692 202.821 96.1692C202.204 96.1692 201.703 96.6698 201.703 97.2874C201.703 97.9051 202.204 98.4057 202.821 98.4057Z" fill="#F2F2F2"/>
<path d="M206.55 110.333H160.702C159.878 110.333 159.211 111.001 159.211 111.824V124.498C159.211 125.321 159.878 125.989 160.702 125.989H206.55C207.373 125.989 208.041 125.321 208.041 124.498V111.824C208.041 111.001 207.373 110.333 206.55 110.333Z" fill="white"/>
<mask id="mask6_225_2922" style="mask-type:luminance" maskUnits="userSpaceOnUse" x="173" y="115" width="28" height="7">
<path d="M200.959 115.03H173.748V121.292H200.959V115.03Z" fill="white"/>
</mask>
<g mask="url(#mask6_225_2922)">
<path d="M199.84 115.03H174.866C174.249 115.03 173.748 115.531 173.748 116.149V116.26C173.748 116.878 174.249 117.379 174.866 117.379H199.84C200.458 117.379 200.959 116.878 200.959 116.26V116.149C200.959 115.531 200.458 115.03 199.84 115.03Z" fill="#DDE3E9"/>
<path d="M190.894 118.944H174.866C174.249 118.944 173.748 119.445 173.748 120.062V120.174C173.748 120.792 174.249 121.292 174.866 121.292H190.894C191.512 121.292 192.013 120.792 192.013 120.174V120.062C192.013 119.445 191.512 118.944 190.894 118.944Z" fill="#DDE3E9"/>
</g>
<path fill-rule="evenodd" clip-rule="evenodd" d="M167.039 122.634C169.51 122.634 171.512 120.631 171.512 118.161C171.512 115.691 169.51 113.688 167.039 113.688C164.569 113.688 162.566 115.691 162.566 118.161C162.566 120.631 164.569 122.634 167.039 122.634Z" fill="#C5CFD6"/>
<path d="M206.55 128.971H160.702C159.878 128.971 159.211 129.638 159.211 130.462V143.135C159.211 143.959 159.878 144.626 160.702 144.626H206.55C207.373 144.626 208.041 143.959 208.041 143.135V130.462C208.041 129.638 207.373 128.971 206.55 128.971Z" fill="white"/>
<mask id="mask7_225_2922" style="mask-type:luminance" maskUnits="userSpaceOnUse" x="162" y="133" width="28" height="7">
<path d="M189.777 133.668H162.566V139.93H189.777V133.668Z" fill="white"/>
</mask>
<g mask="url(#mask7_225_2922)">
<path d="M188.659 133.668H163.685C163.067 133.668 162.566 134.168 162.566 134.786V134.898C162.566 135.515 163.067 136.016 163.685 136.016H188.659C189.276 136.016 189.777 135.515 189.777 134.898V134.786C189.777 134.168 189.276 133.668 188.659 133.668Z" fill="#DDE3E9"/>
<path d="M179.713 137.582H163.685C163.067 137.582 162.566 138.082 162.566 138.7V138.812C162.566 139.429 163.067 139.93 163.685 139.93H179.713C180.33 139.93 180.831 139.429 180.831 138.812V138.7C180.831 138.082 180.33 137.582 179.713 137.582Z" fill="#AFB9C5"/>
</g>
<path fill-rule="evenodd" clip-rule="evenodd" d="M202.822 139.408C204.263 139.408 205.431 138.24 205.431 136.799C205.431 135.358 204.263 134.189 202.822 134.189C201.381 134.189 200.213 135.358 200.213 136.799C200.213 138.24 201.381 139.408 202.822 139.408Z" fill="#DDE3E9"/>
<path fill-rule="evenodd" clip-rule="evenodd" d="M202.821 137.917C203.439 137.917 203.94 137.416 203.94 136.799C203.94 136.181 203.439 135.68 202.821 135.68C202.204 135.68 201.703 136.181 201.703 136.799C201.703 137.416 202.204 137.917 202.821 137.917Z" fill="#F2F2F2"/>
<path d="M206.55 147.608H160.702C159.878 147.608 159.211 148.276 159.211 149.099V161.773C159.211 162.596 159.878 163.264 160.702 163.264H206.55C207.373 163.264 208.041 162.596 208.041 161.773V149.099C208.041 148.276 207.373 147.608 206.55 147.608Z" fill="white"/>
<mask id="mask8_225_2922" style="mask-type:luminance" maskUnits="userSpaceOnUse" x="173" y="152" width="28" height="7">
<path d="M200.959 152.305H173.748V158.567H200.959V152.305Z" fill="white"/>
</mask>
<g mask="url(#mask8_225_2922)">
<path d="M199.84 152.305H174.866C174.249 152.305 173.748 152.806 173.748 153.423V153.535C173.748 154.153 174.249 154.653 174.866 154.653H199.84C200.458 154.653 200.959 154.153 200.959 153.535V153.423C200.959 152.806 200.458 152.305 199.84 152.305Z" fill="#DDE3E9"/>
<path d="M190.894 156.219H174.866C174.249 156.219 173.748 156.72 173.748 157.337V157.449C173.748 158.067 174.249 158.567 174.866 158.567H190.894C191.512 158.567 192.013 158.067 192.013 157.449V157.337C192.013 156.72 191.512 156.219 190.894 156.219Z" fill="#DDE3E9"/>
</g>
<path fill-rule="evenodd" clip-rule="evenodd" d="M167.039 159.909C169.51 159.909 171.512 157.906 171.512 155.436C171.512 152.966 169.51 150.963 167.039 150.963C164.569 150.963 162.566 152.966 162.566 155.436C162.566 157.906 164.569 159.909 167.039 159.909Z" fill="#C5CFD6"/>
<path d="M300.482 86.105H181.576C179.929 86.105 178.594 87.4401 178.594 89.087V212.094C178.594 213.741 179.929 215.076 181.576 215.076H300.482C302.129 215.076 303.464 213.741 303.464 212.094V89.087C303.464 87.4401 302.129 86.105 300.482 86.105Z" fill="#F2F2F2"/>
<path d="M294.519 102.133H274.39C272.743 102.133 271.408 103.468 271.408 105.115V129.344C271.408 130.991 272.743 132.326 274.39 132.326H294.519C296.165 132.326 297.501 130.991 297.501 129.344V105.115C297.501 103.468 296.165 102.133 294.519 102.133Z" fill="white"/>
<path fill-rule="evenodd" clip-rule="evenodd" d="M284.454 119.652C287.748 119.652 290.418 116.982 290.418 113.688C290.418 110.394 287.748 107.724 284.454 107.724C281.16 107.724 278.49 110.394 278.49 113.688C278.49 116.982 281.16 119.652 284.454 119.652Z" fill="#DDE3E9"/>
<path d="M292.654 121.143H276.253C275.635 121.143 275.135 121.644 275.135 122.262C275.135 122.879 275.635 123.38 276.253 123.38H292.654C293.271 123.38 293.772 122.879 293.772 122.262C293.772 121.644 293.271 121.143 292.654 121.143Z" fill="#DDE3E9"/>
<path d="M289.672 124.871H279.235C278.618 124.871 278.117 125.371 278.117 125.989C278.117 126.606 278.618 127.107 279.235 127.107H289.672C290.29 127.107 290.791 126.606 290.791 125.989C290.791 125.371 290.29 124.871 289.672 124.871Z" fill="#DDE3E9"/>
<path d="M178.594 89.087C178.594 87.4402 179.929 86.105 181.576 86.105H300.482C302.129 86.105 303.464 87.4402 303.464 89.087V96.1692H178.594V89.087Z" fill="#C5CFD6"/>
<path fill-rule="evenodd" clip-rule="evenodd" d="M183.438 92.8145C184.262 92.8145 184.929 92.1469 184.929 91.3235C184.929 90.5001 184.262 89.8325 183.438 89.8325C182.615 89.8325 181.947 90.5001 181.947 91.3235C181.947 92.1469 182.615 92.8145 183.438 92.8145Z" fill="#F2F2F2"/>
<path fill-rule="evenodd" clip-rule="evenodd" d="M187.911 92.8145C188.734 92.8145 189.402 92.1469 189.402 91.3235C189.402 90.5001 188.734 89.8325 187.911 89.8325C187.088 89.8325 186.42 90.5001 186.42 91.3235C186.42 92.1469 187.088 92.8145 187.911 92.8145Z" fill="#F2F2F2"/>
<path fill-rule="evenodd" clip-rule="evenodd" d="M192.384 92.8145C193.207 92.8145 193.875 92.1469 193.875 91.3235C193.875 90.5001 193.207 89.8325 192.384 89.8325C191.56 89.8325 190.893 90.5001 190.893 91.3235C190.893 92.1469 191.56 92.8145 192.384 92.8145Z" fill="#F2F2F2"/>
<path d="M294.519 135.308H274.39C272.743 135.308 271.408 136.643 271.408 138.29V204.639C271.408 206.286 272.743 207.621 274.39 207.621H294.519C296.165 207.621 297.501 206.286 297.501 204.639V138.29C297.501 136.643 296.165 135.308 294.519 135.308Z" fill="white"/>
<path d="M289.3 142.017H279.608C278.785 142.017 278.117 142.685 278.117 143.508V150.218C278.117 151.041 278.785 151.709 279.608 151.709H289.3C290.123 151.709 290.791 151.041 290.791 150.218V143.508C290.791 142.685 290.123 142.017 289.3 142.017Z" fill="#DDE3E9"/>
<path d="M289.3 154.69H279.608C278.785 154.69 278.117 155.358 278.117 156.181V162.518C278.117 163.342 278.785 164.009 279.608 164.009H289.3C290.123 164.009 290.791 163.342 290.791 162.518V156.181C290.791 155.358 290.123 154.69 289.3 154.69Z" fill="#AFB9C5"/>
<path d="M289.3 166.991H279.608C278.785 166.991 278.117 167.659 278.117 168.482V174.819C278.117 175.642 278.785 176.31 279.608 176.31H289.3C290.123 176.31 290.791 175.642 290.791 174.819V168.482C290.791 167.659 290.123 166.991 289.3 166.991Z" fill="#DDE3E9"/>
<path d="M289.3 191.593H279.608C278.785 191.593 278.117 192.26 278.117 193.084V199.42C278.117 200.244 278.785 200.911 279.608 200.911H289.3C290.123 200.911 290.791 200.244 290.791 199.42V193.084C290.791 192.26 290.123 191.593 289.3 191.593Z" fill="#DDE3E9"/>
<path d="M289.3 179.292H279.608C278.785 179.292 278.117 179.96 278.117 180.783V187.12C278.117 187.943 278.785 188.611 279.608 188.611H289.3C290.123 188.611 290.791 187.943 290.791 187.12V180.783C290.791 179.96 290.123 179.292 289.3 179.292Z" fill="#C5CFD6"/>
<path d="M266.934 102.506H186.048C185.224 102.506 184.557 103.173 184.557 103.997V118.534C184.557 119.357 185.224 120.025 186.048 120.025H266.934C267.757 120.025 268.425 119.357 268.425 118.534V103.997C268.425 103.173 267.757 102.506 266.934 102.506Z" fill="white"/>
<mask id="mask9_225_2922" style="mask-type:luminance" maskUnits="userSpaceOnUse" x="187" y="107" width="64" height="8">
<path d="M250.161 107.761H187.912V114.769H250.161V107.761Z" fill="white"/>
</mask>
<g mask="url(#mask9_225_2922)">
<path d="M249.043 107.761H189.03C188.413 107.761 187.912 108.262 187.912 108.88V109.271C187.912 109.889 188.413 110.389 189.03 110.389H249.043C249.66 110.389 250.161 109.889 250.161 109.271V108.88C250.161 108.262 249.66 107.761 249.043 107.761Z" fill="#DDE3E9"/>
<path d="M228.577 112.141H189.03C188.413 112.141 187.912 112.642 187.912 113.26V113.651C187.912 114.269 188.413 114.769 189.03 114.769H228.577C229.195 114.769 229.696 114.269 229.696 113.651V113.26C229.696 112.642 229.195 112.141 228.577 112.141Z" fill="#DDE3E9"/>
</g>
<path fill-rule="evenodd" clip-rule="evenodd" d="M259.463 113.875C260.904 113.875 262.072 112.707 262.072 111.265C262.072 109.824 260.904 108.656 259.463 108.656C258.022 108.656 256.854 109.824 256.854 111.265C256.854 112.707 258.022 113.875 259.463 113.875Z" fill="#DDE3E9"/>
<path fill-rule="evenodd" clip-rule="evenodd" d="M259.462 112.384C260.08 112.384 260.58 111.883 260.58 111.265C260.58 110.648 260.08 110.147 259.462 110.147C258.844 110.147 258.344 110.648 258.344 111.265C258.344 111.883 258.844 112.384 259.462 112.384Z" fill="#F2F2F2"/>
<path d="M266.934 123.007H186.048C185.224 123.007 184.557 123.674 184.557 124.498V136.053C184.557 136.876 185.224 137.544 186.048 137.544H266.934C267.757 137.544 268.425 136.876 268.425 136.053V124.498C268.425 123.674 267.757 123.007 266.934 123.007Z" fill="white"/>
<mask id="mask10_225_2922" style="mask-type:luminance" maskUnits="userSpaceOnUse" x="187" y="127" width="64" height="7">
<path d="M250.161 127.368H187.912V133.183H250.161V127.368Z" fill="white"/>
</mask>
<g mask="url(#mask10_225_2922)">
<path d="M249.071 127.368H189.002C188.4 127.368 187.912 127.856 187.912 128.458C187.912 129.06 188.4 129.548 189.002 129.548H249.071C249.673 129.548 250.161 129.06 250.161 128.458C250.161 127.856 249.673 127.368 249.071 127.368Z" fill="#DDE3E9"/>
<path d="M228.605 131.002H189.002C188.4 131.002 187.912 131.49 187.912 132.092C187.912 132.695 188.4 133.183 189.002 133.183H228.605C229.208 133.183 229.696 132.695 229.696 132.092C229.696 131.49 229.208 131.002 228.605 131.002Z" fill="#DDE3E9"/>
</g>
<path fill-rule="evenodd" clip-rule="evenodd" d="M259.463 132.884C260.904 132.884 262.072 131.716 262.072 130.275C262.072 128.834 260.904 127.666 259.463 127.666C258.022 127.666 256.854 128.834 256.854 130.275C256.854 131.716 258.022 132.884 259.463 132.884Z" fill="#DDE3E9"/>
<path fill-rule="evenodd" clip-rule="evenodd" d="M259.462 131.393C260.08 131.393 260.58 130.893 260.58 130.275C260.58 129.658 260.08 129.157 259.462 129.157C258.844 129.157 258.344 129.658 258.344 130.275C258.344 130.893 258.844 131.393 259.462 131.393Z" fill="#F2F2F2"/>
<path d="M266.934 140.526H186.048C185.224 140.526 184.557 141.194 184.557 142.017V153.572C184.557 154.396 185.224 155.063 186.048 155.063H266.934C267.757 155.063 268.425 154.396 268.425 153.572V142.017C268.425 141.194 267.757 140.526 266.934 140.526Z" fill="white"/>
<mask id="mask11_225_2922" style="mask-type:luminance" maskUnits="userSpaceOnUse" x="187" y="144" width="64" height="7">
<path d="M250.161 144.887H187.912V150.702H250.161V144.887Z" fill="white"/>
</mask>
<g mask="url(#mask11_225_2922)">
<path d="M249.071 144.887H189.002C188.4 144.887 187.912 145.375 187.912 145.977C187.912 146.58 188.4 147.068 189.002 147.068H249.071C249.673 147.068 250.161 146.58 250.161 145.977C250.161 145.375 249.673 144.887 249.071 144.887Z" fill="#DDE3E9"/>
<path d="M228.605 148.521H189.002C188.4 148.521 187.912 149.01 187.912 149.612C187.912 150.214 188.4 150.702 189.002 150.702H228.605C229.208 150.702 229.696 150.214 229.696 149.612C229.696 149.01 229.208 148.521 228.605 148.521Z" fill="#DDE3E9"/>
</g>
<path fill-rule="evenodd" clip-rule="evenodd" d="M259.463 150.404C260.904 150.404 262.072 149.236 262.072 147.795C262.072 146.354 260.904 145.186 259.463 145.186C258.022 145.186 256.854 146.354 256.854 147.795C256.854 149.236 258.022 150.404 259.463 150.404Z" fill="#DDE3E9"/>
<path fill-rule="evenodd" clip-rule="evenodd" d="M259.462 148.913C260.08 148.913 260.58 148.412 260.58 147.795C260.58 147.177 260.08 146.677 259.462 146.677C258.844 146.677 258.344 147.177 258.344 147.795C258.344 148.412 258.844 148.913 259.462 148.913Z" fill="#AFB9C5"/>
<path d="M266.934 193.083H186.048C185.224 193.083 184.557 193.751 184.557 194.574V206.13C184.557 206.953 185.224 207.621 186.048 207.621H266.934C267.757 207.621 268.425 206.953 268.425 206.13V194.574C268.425 193.751 267.757 193.083 266.934 193.083Z" fill="white"/>
<mask id="mask12_225_2922" style="mask-type:luminance" maskUnits="userSpaceOnUse" x="187" y="197" width="64" height="7">
<path d="M250.161 197.445H187.912V203.259H250.161V197.445Z" fill="white"/>
</mask>
<g mask="url(#mask12_225_2922)">
<path d="M249.071 197.445H189.002C188.4 197.445 187.912 197.933 187.912 198.535C187.912 199.137 188.4 199.625 189.002 199.625H249.071C249.673 199.625 250.161 199.137 250.161 198.535C250.161 197.933 249.673 197.445 249.071 197.445Z" fill="#DDE3E9"/>
<path d="M228.605 201.079H189.002C188.4 201.079 187.912 201.567 187.912 202.169C187.912 202.771 188.4 203.259 189.002 203.259H228.605C229.208 203.259 229.696 202.771 229.696 202.169C229.696 201.567 229.208 201.079 228.605 201.079Z" fill="#DDE3E9"/>
</g>
<path fill-rule="evenodd" clip-rule="evenodd" d="M259.463 202.961C260.904 202.961 262.072 201.793 262.072 200.352C262.072 198.911 260.904 197.743 259.463 197.743C258.022 197.743 256.854 198.911 256.854 200.352C256.854 201.793 258.022 202.961 259.463 202.961Z" fill="#DDE3E9"/>
<path fill-rule="evenodd" clip-rule="evenodd" d="M259.462 201.47C260.08 201.47 260.58 200.97 260.58 200.352C260.58 199.734 260.08 199.234 259.462 199.234C258.844 199.234 258.344 199.734 258.344 200.352C258.344 200.97 258.844 201.47 259.462 201.47Z" fill="#F2F2F2"/>
<path d="M266.934 175.564H186.048C185.224 175.564 184.557 176.232 184.557 177.055V188.611C184.557 189.434 185.224 190.102 186.048 190.102H266.934C267.757 190.102 268.425 189.434 268.425 188.611V177.055C268.425 176.232 267.757 175.564 266.934 175.564Z" fill="white"/>
<mask id="mask13_225_2922" style="mask-type:luminance" maskUnits="userSpaceOnUse" x="187" y="179" width="64" height="7">
<path d="M250.161 179.926H187.912V185.74H250.161V179.926Z" fill="white"/>
</mask>
<g mask="url(#mask13_225_2922)">
<path d="M249.071 179.926H189.002C188.4 179.926 187.912 180.414 187.912 181.016C187.912 181.618 188.4 182.106 189.002 182.106H249.071C249.673 182.106 250.161 181.618 250.161 181.016C250.161 180.414 249.673 179.926 249.071 179.926Z" fill="#DDE3E9"/>
<path d="M228.605 183.56H189.002C188.4 183.56 187.912 184.048 187.912 184.65C187.912 185.252 188.4 185.74 189.002 185.74H228.605C229.208 185.74 229.696 185.252 229.696 184.65C229.696 184.048 229.208 183.56 228.605 183.56Z" fill="#DDE3E9"/>
</g>
<path fill-rule="evenodd" clip-rule="evenodd" d="M259.463 185.442C260.904 185.442 262.072 184.274 262.072 182.833C262.072 181.392 260.904 180.224 259.463 180.224C258.022 180.224 256.854 181.392 256.854 182.833C256.854 184.274 258.022 185.442 259.463 185.442Z" fill="#DDE3E9"/>
<path fill-rule="evenodd" clip-rule="evenodd" d="M259.462 183.951C260.08 183.951 260.58 183.451 260.58 182.833C260.58 182.215 260.08 181.715 259.462 181.715C258.844 181.715 258.344 182.215 258.344 182.833C258.344 183.451 258.844 183.951 259.462 183.951Z" fill="#F2F2F2"/>
<path d="M266.934 158.045H186.048C185.224 158.045 184.557 158.713 184.557 159.536V171.091C184.557 171.915 185.224 172.582 186.048 172.582H266.934C267.757 172.582 268.425 171.915 268.425 171.091V159.536C268.425 158.713 267.757 158.045 266.934 158.045Z" fill="white"/>
<mask id="mask14_225_2922" style="mask-type:luminance" maskUnits="userSpaceOnUse" x="187" y="162" width="64" height="7">
<path d="M250.161 162.406H187.912V168.221H250.161V162.406Z" fill="white"/>
</mask>
<g mask="url(#mask14_225_2922)">
<path d="M249.071 162.406H189.002C188.4 162.406 187.912 162.894 187.912 163.497C187.912 164.099 188.4 164.587 189.002 164.587H249.071C249.673 164.587 250.161 164.099 250.161 163.497C250.161 162.894 249.673 162.406 249.071 162.406Z" fill="#DDE3E9"/>
<path d="M228.605 166.041H189.002C188.4 166.041 187.912 166.529 187.912 167.131C187.912 167.733 188.4 168.221 189.002 168.221H228.605C229.208 168.221 229.696 167.733 229.696 167.131C229.696 166.529 229.208 166.041 228.605 166.041Z" fill="#DDE3E9"/>
</g>
<path fill-rule="evenodd" clip-rule="evenodd" d="M259.463 167.923C260.904 167.923 262.072 166.755 262.072 165.314C262.072 163.873 260.904 162.705 259.463 162.705C258.022 162.705 256.854 163.873 256.854 165.314C256.854 166.755 258.022 167.923 259.463 167.923Z" fill="#DDE3E9"/>
<path fill-rule="evenodd" clip-rule="evenodd" d="M259.462 166.432C260.08 166.432 260.58 165.931 260.58 165.314C260.58 164.696 260.08 164.196 259.462 164.196C258.844 164.196 258.344 164.696 258.344 165.314C258.344 165.931 258.844 166.432 259.462 166.432Z" fill="#F2F2F2"/>
<path fill-rule="evenodd" clip-rule="evenodd" d="M334.399 149.612C332.927 148.615 330.974 148.354 329.215 148.354C322.341 148.354 315.882 150.903 310.302 154.702C307.244 156.784 304.509 159.435 302.094 162.195C300.7 163.788 299.457 165.511 298.577 167.428C297.983 168.722 297.576 170.07 297.3 171.461C296.963 173.155 296.696 174.884 296.575 176.607C296.527 177.285 296.133 180.885 297.261 180.946C297.254 181.035 297.253 181.119 297.26 181.195C294.811 185.025 293.298 189.513 291.894 193.767C290.674 197.47 289.585 201.204 288.879 205.035C287.949 210.078 287.339 215.197 287.049 220.313C286.986 221.412 286.943 222.512 286.907 223.613C286.875 224.552 286.844 225.491 286.813 226.43C286.778 227.482 286.593 228.694 286.76 229.74C286.906 230.651 287.695 230.513 287.73 229.606C287.772 228.511 287.765 227.414 287.813 226.319C287.876 224.865 287.942 223.411 288.013 221.957C288.509 211.858 290.367 201.908 293.796 192.369C295.185 188.509 296.775 184.855 298.819 181.284C300.616 178.145 302.778 175.105 304.987 172.274C307.135 169.523 309.368 166.836 311.999 164.505C314.135 162.614 316.484 160.966 318.897 159.433C321.965 157.485 325.025 155.585 328.35 154.091C330.076 153.314 331.835 152.618 333.576 151.872C333.889 151.739 334.224 151.609 334.526 151.453C335.529 150.935 335.197 150.155 334.399 149.612Z" fill="#C1DEE2"/>
<path fill-rule="evenodd" clip-rule="evenodd" d="M306.751 184.883C309.538 184.883 312.018 185.245 314.586 186.353C316.803 187.309 318.821 188.574 320.786 189.952C323.544 191.89 325.717 194.145 327.238 197.133C328.148 198.918 328.815 201.445 328.203 203.392C327.484 205.685 325.508 207.598 322.91 207.194C321.304 206.944 319.828 205.88 318.607 204.878C317.145 203.68 315.975 202.239 315.009 200.639C313.433 198.029 312.507 195.078 311.168 192.35C310.533 191.056 309.919 189.752 309.158 188.522C308.781 187.913 308.38 187.309 307.809 186.856C307.503 186.614 306.214 186.195 306.707 185.651C299.48 185.746 293.076 191.297 291.689 198.168C291.56 198.809 291.459 199.454 291.352 200.099C291.285 200.505 291.312 202.006 290.948 202.266C290.146 202.839 290.483 201.097 290.518 200.846C290.607 200.198 290.701 199.551 290.801 198.904C291.343 195.387 292.908 192.118 295.519 189.611C298.504 186.743 302.533 184.883 306.751 184.883Z" fill="#89C5CC"/>
<path fill-rule="evenodd" clip-rule="evenodd" d="M69.3567 197.085C76.3144 208.758 84.4183 220.061 89.2849 232.823C89.0889 231.319 88.8809 229.816 88.6479 228.315C87.4134 220.361 85.8784 212.464 84.2659 204.577C83.4447 200.561 82.5758 196.56 81.685 192.559C81.206 190.41 80.7326 188.26 80.2436 186.114C80.125 185.593 80.0233 184.685 79.8753 183.765C84.6047 199.285 89.1656 214.816 92.5017 230.709C92.9393 232.795 93.3121 234.877 93.6174 236.956C93.7217 236.482 93.8246 236.007 93.9368 235.534C95.2869 229.866 97.3117 224.243 99.7226 218.942C100.875 216.408 102.199 213.929 103.758 211.619C104.73 210.179 107.022 208.467 107.909 206.992C103.059 215.887 101.308 227.015 98.5082 236.685C97.8249 239.045 97.1372 241.4 96.4633 243.76C100.686 235.292 107.237 228.334 116.346 225.32C105.32 232.605 98.7069 245.363 94.2503 258.411C94.2358 258.566 94.2182 258.72 94.203 258.876C95.5147 256.387 97.1663 254.135 99.405 252.559C104.197 249.183 109.512 250.167 114.161 253.062C110.513 250.743 103.92 252.855 100.85 255.212C98.6528 256.899 96.7749 259.162 95.1441 261.371C94.7535 261.9 94.2201 262.518 93.6569 263.176C92.8674 268.302 91.5807 273.393 89.7587 278.443C90.0595 276.993 89.8422 274.675 89.9257 273.594C89.9346 273.478 89.9421 273.36 89.951 273.244C89.6741 274.349 89.4064 275.442 89.1489 276.518C89.661 274.466 89.9391 272.323 90.1564 270.159C90.2123 269.229 90.2671 268.298 90.3245 267.368C90.3063 265.603 90.2336 263.83 90.1106 262.055C89.6748 260.33 89.1865 258.703 88.7836 257.349C87.331 252.466 85.2007 247.788 82.5792 243.423C80.1873 239.44 77.3238 235.833 74.0187 232.57C72.2366 230.812 70.3717 229.137 68.5333 227.439C67.8683 226.826 66.68 225.316 65.6523 224.529C73.1371 228.656 80.8414 233.12 86.3018 239.769C85.6614 237.311 84.9663 234.887 84.2308 232.513C80.4993 220.463 75.7877 207.976 69.3567 197.085Z" fill="#DDE3E9"/>
<path fill-rule="evenodd" clip-rule="evenodd" d="M76.834 263.16C76.834 276.541 77.8937 287.389 92.1166 287.389C106.34 287.389 107.399 276.541 107.399 263.16" fill="#C5CFD6"/>
<path d="M274.018 71.1949C274.018 70.5773 273.517 70.0767 272.899 70.0767C272.282 70.0767 271.781 70.5773 271.781 71.1949V78.2771C271.781 78.8947 272.282 79.3954 272.899 79.3954C273.517 79.3954 274.018 78.8947 274.018 78.2771V71.1949Z" fill="#DDE3E9"/>
<path d="M279.236 65.2308C279.236 64.6132 278.736 64.1125 278.118 64.1125C277.501 64.1125 277 64.6132 277 65.2308V78.277C277 78.8946 277.501 79.3952 278.118 79.3952C278.736 79.3952 279.236 78.8946 279.236 78.277V65.2308Z" fill="#DDE3E9"/>
<path d="M284.455 62.2489C284.455 61.6313 283.955 61.1306 283.337 61.1306C282.719 61.1306 282.219 61.6313 282.219 62.2489V78.277C282.219 78.8946 282.719 79.3953 283.337 79.3953C283.955 79.3953 284.455 78.8946 284.455 78.277V62.2489Z" fill="#DDE3E9"/>
<path d="M289.672 65.2308C289.672 64.6132 289.171 64.1125 288.554 64.1125C287.936 64.1125 287.436 64.6132 287.436 65.2308V78.277C287.436 78.8946 287.936 79.3952 288.554 79.3952C289.171 79.3952 289.672 78.8946 289.672 78.277V65.2308Z" fill="#DDE3E9"/>
<path d="M294.891 59.2669C294.891 58.6493 294.39 58.1487 293.773 58.1487C293.155 58.1487 292.654 58.6493 292.654 59.2669V78.2771C292.654 78.8946 293.155 79.3953 293.773 79.3953C294.39 79.3953 294.891 78.8946 294.891 78.2771V59.2669Z" fill="#C5CFD6"/>
<path fill-rule="evenodd" clip-rule="evenodd" d="M88.3887 172.305C88.3887 168.153 91.7441 164.755 95.8436 164.755V172.305L90.7489 177.801C89.2997 176.457 88.3887 174.486 88.3887 172.305Z" fill="#F2F2F2"/>
<path fill-rule="evenodd" clip-rule="evenodd" d="M95.647 172.21H103.175C103.175 174.156 102.381 175.979 101.126 177.304C99.7461 178.754 97.7806 179.665 95.647 179.665C93.6815 179.665 91.8826 178.879 90.502 177.636L95.647 172.21Z" fill="#AFB9C5"/>
<path fill-rule="evenodd" clip-rule="evenodd" d="M103.299 172.21C103.299 168.11 99.9431 164.755 95.8436 164.755V172.21H103.299ZM92.1161 164.755L95.0981 171.464L88.3887 168.482C89.0522 166.743 90.542 165.418 92.1161 164.755Z" fill="#C5CFD6"/>
<path fill-rule="evenodd" clip-rule="evenodd" d="M330.962 175.631C330.242 176.391 329.228 176.869 328.103 176.869C325.933 176.869 324.174 175.117 324.174 172.955C324.174 170.794 325.933 169.041 328.103 169.041V161.773C321.934 161.773 316.883 166.806 316.883 172.955C316.883 179.104 321.934 184.138 328.103 184.138C331.342 184.138 334.268 182.771 336.266 180.597L330.962 175.631Z" fill="#F2F2F2"/>
<path fill-rule="evenodd" clip-rule="evenodd" d="M328.064 161.773V169.041C330.226 169.041 331.978 170.794 331.978 172.955H339.247C339.247 166.806 334.215 161.773 328.064 161.773Z" fill="#AFB9C5"/>
<path fill-rule="evenodd" clip-rule="evenodd" d="M331.829 172.955C331.829 174.225 331.229 175.354 330.301 176.083L334.871 181.901C337.532 179.818 339.247 176.589 339.247 172.955H331.829Z" fill="#C5CFD6"/>
<path fill-rule="evenodd" clip-rule="evenodd" d="M259.872 72.8738C259.321 73.4568 258.54 73.8228 257.672 73.8228C256.004 73.8228 254.652 72.4795 254.652 70.8222C254.652 69.165 256.004 67.8216 257.672 67.8216V62.249C252.927 62.249 249.043 66.1077 249.043 70.8222C249.043 75.5367 252.927 79.3954 257.672 79.3954C260.165 79.3954 262.417 78.3476 263.953 76.6811L259.872 72.8738Z" fill="#F2F2F2"/>
<path fill-rule="evenodd" clip-rule="evenodd" d="M257.617 62.249V67.8216C259.274 67.8216 260.618 69.165 260.618 70.8222H266.19C266.19 66.1077 262.332 62.249 257.617 62.249Z" fill="#AFB9C5"/>
<path fill-rule="evenodd" clip-rule="evenodd" d="M260.626 70.8223C260.626 71.7746 260.177 72.6215 259.48 73.168L262.908 77.5317C264.904 75.9695 266.19 73.5478 266.19 70.8223H260.626Z" fill="#C5CFD6"/>
<path fill-rule="evenodd" clip-rule="evenodd" d="M124.174 79.3899C124.173 79.393 124.172 79.3962 124.17 79.4C124.172 79.3968 124.174 79.3842 124.174 79.3899Z" fill="#C5CFD6"/>
<path fill-rule="evenodd" clip-rule="evenodd" d="M124.172 79.394C124.172 79.3945 124.172 79.3954 124.172 79.3964C124.172 79.394 124.176 79.3868 124.172 79.394Z" fill="#C5CFD6"/>
<path fill-rule="evenodd" clip-rule="evenodd" d="M124.198 79.3328C124.193 79.3475 124.186 79.3615 124.18 79.3763C124.183 79.3689 124.186 79.363 124.189 79.3556C124.112 79.5473 124.161 79.4227 124.198 79.3328Z" fill="#C5CFD6"/>
<path fill-rule="evenodd" clip-rule="evenodd" d="M124.18 79.3779C124.177 79.3843 124.174 79.3914 124.171 79.3978C124.151 79.4376 124.18 79.3779 124.18 79.3779Z" fill="#C5CFD6"/>
<path fill-rule="evenodd" clip-rule="evenodd" d="M124.17 79.3992C124.167 79.4066 124.188 79.3705 124.17 79.3992V79.3992Z" fill="#C5CFD6"/>
<path d="M140.201 60.0125H107.772C106.949 60.0125 106.281 60.68 106.281 61.5034V82.0046C106.281 82.828 106.949 83.4956 107.772 83.4956H140.201C141.025 83.4956 141.692 82.828 141.692 82.0046V61.5034C141.692 60.68 141.025 60.0125 140.201 60.0125Z" fill="#DDE3E9"/>
<path fill-rule="evenodd" clip-rule="evenodd" d="M119.701 66.7219L109.264 83.4956H130.138L119.701 66.7219Z" fill="#AFB9C5"/>
<path fill-rule="evenodd" clip-rule="evenodd" d="M129.951 71.1948L120.818 83.4955H139.083L129.951 71.1948Z" fill="#C5CFD6"/>
<path fill-rule="evenodd" clip-rule="evenodd" d="M133.864 71.1951C135.717 71.1951 137.219 69.6933 137.219 67.8403C137.219 65.9874 135.717 64.4856 133.864 64.4856C132.012 64.4856 130.51 65.9874 130.51 67.8403C130.51 69.6933 132.012 71.1951 133.864 71.1951Z" fill="white"/>
<path fill-rule="evenodd" clip-rule="evenodd" d="M301.971 238.553C301.972 238.556 301.973 238.559 301.975 238.563C301.973 238.56 301.971 238.548 301.971 238.553Z" fill="#C5CFD6"/>
<path fill-rule="evenodd" clip-rule="evenodd" d="M301.972 238.557C301.972 238.558 301.973 238.559 301.973 238.56C301.973 238.557 301.968 238.55 301.972 238.557Z" fill="#C5CFD6"/>
<path fill-rule="evenodd" clip-rule="evenodd" d="M301.947 238.496C301.952 238.511 301.959 238.525 301.965 238.54C301.962 238.532 301.959 238.526 301.956 238.519C302.033 238.711 301.984 238.586 301.947 238.496Z" fill="#C5CFD6"/>
<path fill-rule="evenodd" clip-rule="evenodd" d="M301.965 238.541C301.968 238.548 301.971 238.555 301.973 238.561C301.994 238.601 301.965 238.541 301.965 238.541Z" fill="#C5CFD6"/>
<path fill-rule="evenodd" clip-rule="evenodd" d="M301.976 238.562C301.958 238.534 301.979 238.57 301.976 238.562V238.562Z" fill="#C5CFD6"/>
<path d="M276.998 209.857H326.947C327.77 209.857 328.438 210.525 328.438 211.348V243.404C328.438 244.228 327.77 244.895 326.947 244.895H276.998C276.175 244.895 275.507 244.228 275.507 243.404V211.348C275.507 210.525 276.175 209.857 276.998 209.857Z" fill="#DDE3E9"/>
<path fill-rule="evenodd" clip-rule="evenodd" d="M308.784 219.921L324.087 244.895H293.48L308.784 219.921Z" fill="#AFB9C5"/>
<path fill-rule="evenodd" clip-rule="evenodd" d="M293.005 226.611L306.534 244.895H279.477L293.005 226.611Z" fill="#C5CFD6"/>
<path fill-rule="evenodd" clip-rule="evenodd" d="M287.249 226.631C284.47 226.631 282.217 224.378 282.217 221.599C282.217 218.82 284.47 216.567 287.249 216.567C290.028 216.567 292.281 218.82 292.281 221.599C292.281 224.378 290.028 226.631 287.249 226.631Z" fill="white"/>
<path fill-rule="evenodd" clip-rule="evenodd" d="M145.117 183.61C147.828 185.245 150.492 186.035 151.743 185.713C154.879 184.904 155.167 173.424 152.741 168.898C150.314 164.372 137.841 162.399 137.212 171.366C136.994 174.478 138.3 177.256 140.229 179.522L136.77 195.659H146.819L145.117 183.61Z" fill="#B28B67"/>
<path fill-rule="evenodd" clip-rule="evenodd" d="M132.83 168.381C132.505 168.06 132.328 167.6 132.175 167.164C132.016 166.711 131.861 166.253 131.756 165.781C131.545 164.839 131.543 163.755 132.215 163.023C132.753 162.436 133.562 162.173 134.308 162.116C134.805 162.078 135.316 162.147 135.792 162.304C136.265 162.46 136.673 162.77 137.131 162.962C137.148 161.946 137.323 160.884 137.837 160.017C138.333 159.182 139.123 158.714 140.022 158.59C140.946 158.463 141.858 158.679 142.684 159.126C142.891 159.238 143.096 159.356 143.292 159.489C143.457 159.6 143.628 159.734 143.82 159.779C144.035 159.829 144.142 159.705 144.281 159.548C144.445 159.365 144.63 159.203 144.825 159.059C145.688 158.424 146.821 158.163 147.821 158.544C148.282 158.719 148.73 159.017 149.043 159.427C149.321 159.793 149.52 160.373 149.905 160.628C150.068 160.736 150.183 160.593 150.332 160.487C150.555 160.328 150.768 160.152 150.994 159.997C151.311 159.78 151.655 159.617 152.023 159.532C152.561 159.407 153.306 159.436 153.46 160.142C153.517 160.407 153.473 160.691 153.454 160.958C153.429 161.325 153.402 161.692 153.37 162.058C153.346 162.336 153.316 162.605 153.263 162.878C153.235 163.024 153.148 163.295 153.21 163.441C153.288 163.623 153.648 163.52 153.801 163.526C154.105 163.538 154.41 163.592 154.691 163.721C154.908 163.822 155.137 163.97 155.229 164.22C155.286 164.373 155.271 164.531 155.244 164.688C155.212 164.878 155.249 164.978 155.273 165.169C155.68 164.968 157.093 164.522 157.271 165.253C157.331 165.496 157.196 165.771 157.093 165.977C156.912 166.337 156.676 166.666 156.434 166.981C155.93 167.636 155.328 168.201 154.68 168.684C155.439 169.021 155.637 170.017 154.98 170.611C154.69 170.873 154.299 170.931 153.933 170.915C153.8 170.908 153.606 170.857 153.501 170.88C153.444 170.893 153.384 170.941 153.305 170.946C152.788 170.982 152.205 170.857 151.7 170.742C150.801 170.538 149.949 170.111 149.253 169.462C149.075 169.295 148.927 169.199 148.687 169.201C148.477 169.204 148.27 169.261 148.06 169.267C147.503 169.281 147.002 169.009 146.485 168.828C146.454 169.526 146.255 170.295 145.969 170.924C145.737 171.436 145.251 171.511 144.773 171.555C143.245 171.699 141.712 171.539 140.182 171.541C141.663 171.876 143.193 172.014 144.66 172.408C145.324 172.586 144.817 173.034 144.534 173.344C144.067 173.854 143.719 174.487 143.479 175.154C142.754 174.209 141.474 173.586 140.34 173.877C139.086 174.197 138.204 175.893 139.005 177.113C139.47 177.821 140.311 178.094 141.01 178.398C140.464 178.966 140.333 179.804 140.004 180.51C139.842 180.858 139.615 181.251 139.253 181.373C139.119 181.418 138.962 181.422 138.856 181.531C138.725 181.666 138.694 181.818 138.527 181.934C137.86 182.398 136.818 182.362 136.226 181.756C135.692 181.208 135.831 180.342 136.277 179.786C135.567 179.49 134.271 179.108 134.554 178C133.014 177.898 129.273 175.398 131.341 173.571C130.206 172.929 129.164 171.361 129.893 169.978C130.454 168.914 131.759 168.438 132.83 168.381Z" fill="#191847"/>
<path fill-rule="evenodd" clip-rule="evenodd" d="M121.955 248.454H154.303L158.541 300.412H110.389L121.955 248.454Z" fill="#C5CFD6"/>
<path fill-rule="evenodd" clip-rule="evenodd" d="M121.955 248.454H131.904L137.858 300.412H110.389L121.955 248.454Z" fill="black" fill-opacity="0.1"/>
<path fill-rule="evenodd" clip-rule="evenodd" d="M172.075 258.748C168.44 266.463 162.76 285.19 162.76 285.19L167.582 287.395C167.582 287.395 179.817 267.709 187.295 254.252C186.947 257.281 186.592 260.692 186.263 264.277C185.484 272.771 186.263 291.121 186.682 296.422C186.945 299.753 191.469 299.055 191.891 296.413C191.962 295.966 192.254 294.395 192.689 292.05C194.821 280.556 200.403 250.473 200.413 243.107C200.417 240.143 194.63 237.481 191.181 239.553C188.812 237.023 184.328 235.565 181.753 239.744C180.115 242.4 176.225 249.942 172.075 258.748Z" fill="#B28B67"/>
<path fill-rule="evenodd" clip-rule="evenodd" d="M163.105 278.257L179.657 239.021C183.622 232.639 194.738 240.32 193.386 244.022C190.316 252.426 174.704 279.635 173.79 282.139L163.105 278.257Z" fill="#FF4133"/>
<path fill-rule="evenodd" clip-rule="evenodd" d="M163.366 282.81C163.11 282.457 162.61 282.373 162.275 282.653C161.59 283.225 160.543 284.158 160.174 284.797C159.607 285.779 158.848 287.85 158.848 287.85C159.986 288.508 179.3 299.667 179.3 299.667C179.3 299.667 181.619 297.49 180.023 296.287C178.427 295.085 177.388 294.259 177.388 294.259L170.301 284.488C170.178 284.317 169.938 284.283 169.772 284.411L168.268 285.57C168.268 285.57 166.249 285.394 165.255 284.819C164.625 284.455 163.849 283.478 163.366 282.81Z" fill="#E4E4E4"/>
<path fill-rule="evenodd" clip-rule="evenodd" d="M186.692 293.786C186.294 293.608 185.819 293.786 185.668 294.196C185.361 295.035 184.92 296.366 184.92 297.104C184.92 298.238 185.297 300.412 185.297 300.412C186.611 300.412 208.914 300.412 208.914 300.412C208.914 300.412 209.834 297.367 207.851 297.124C205.868 296.881 204.556 296.685 204.556 296.685L193.536 291.769C193.344 291.683 193.12 291.773 193.039 291.967L192.316 293.724C192.316 293.724 190.48 294.581 189.332 294.581C188.604 294.581 187.444 294.123 186.692 293.786Z" fill="#E4E4E4"/>
<path fill-rule="evenodd" clip-rule="evenodd" d="M201.573 246.122C201.573 257.254 196.291 283.22 196.287 285.671L184.921 285.68C184.921 285.68 187.416 250.926 186.691 250.551C185.965 250.177 156.94 253.451 148.235 253.451C135.683 253.451 130.49 245.53 130.068 230.856H154.935C159.998 231.398 186.407 236.728 196.215 238.561C200.413 239.345 201.573 243.055 201.573 246.122Z" fill="#FF4133"/>
<path fill-rule="evenodd" clip-rule="evenodd" d="M167.64 235.995C159.688 252.568 126.213 241.377 126.213 241.377C126.213 238.505 127.351 235.626 128.547 232.603C129.828 229.36 131.176 225.952 131.257 222.208C131.405 215.319 132.692 194.449 138.063 187.399C138.161 187.08 138.26 186.761 138.361 186.44L138.733 186.616C138.791 186.556 138.849 186.497 138.908 186.44L150.629 188.254C150.629 193.559 154.021 198.589 157.075 203.118C157.818 204.219 158.541 205.291 159.19 206.33C160.04 207.691 161 209.077 161.984 210.496C166.964 217.686 172.554 225.754 167.64 235.995Z" fill="#9CA777"/>
<path fill-rule="evenodd" clip-rule="evenodd" d="M152.621 232.862C153.405 228.814 153.913 226.112 154.147 224.755C160.391 231.816 163.998 235.387 164.968 235.469C166.793 235.623 168.142 234.003 168.526 234.459C169.16 236.344 167.368 241.064 163.941 241.75C162.305 242.078 159.773 238.702 158.73 237.505C158.32 237.035 156.284 235.487 152.621 232.862ZM163.407 211.281C165.025 211.281 165.895 211.95 166.852 213.301C167.809 214.652 168.714 221.024 167.178 221.024C165.642 221.024 159.204 218.561 159.204 216.905C159.204 215.249 163.596 214.548 163.596 213.301C163.596 212.055 161.788 211.281 163.407 211.281Z" fill="#B28B67"/>
<path fill-rule="evenodd" clip-rule="evenodd" d="M136.168 194.284C132.057 211.435 133.731 225.9 149.354 239.021C149.171 239.68 149.061 240.074 149.061 240.074C130.723 227.248 130.714 211.706 136.168 194.284Z" fill="black" fill-opacity="0.2"/>
<path fill-rule="evenodd" clip-rule="evenodd" d="M263.143 157.169C260.428 158.806 257.76 159.596 256.507 159.274C253.366 158.464 253.078 146.975 255.508 142.446C257.938 137.916 270.43 135.942 271.06 144.916C271.278 148.031 269.971 150.811 268.038 153.079L271.503 169.227H261.439L263.143 157.169Z" fill="#B28B67"/>
<path fill-rule="evenodd" clip-rule="evenodd" d="M261.245 137.226C262.572 137.008 266.143 136.858 266.801 136.858C267.222 136.858 267.679 136.955 267.928 136.568C268.132 136.252 268.057 135.717 268.118 135.349C268.189 134.923 268.289 134.502 268.391 134.081C268.68 132.886 269.118 131.749 269.729 130.681C270.878 128.678 272.56 127.109 274.684 126.196C277.029 125.188 279.683 124.957 282.205 125.161C284.904 125.38 287.348 126.271 289.897 127.11C292.326 127.909 294.869 128.223 297.41 127.833C299.969 127.44 301.903 126.053 304.062 124.736C306.272 123.388 308.797 122.507 311.41 122.71C313.849 122.899 316.097 123.906 318.113 125.251C320.002 126.509 321.556 128.024 322.436 130.155C323.383 132.447 323.379 134.964 321.825 136.99C319.573 139.926 315.388 140.686 311.907 140.61C309.893 140.567 307.916 140.199 306.015 139.531C303.48 138.639 301.289 137.128 298.917 135.902C297.804 135.326 296.654 134.853 295.448 134.513C294.277 134.183 293.125 134.031 292.066 134.738C290.945 135.486 289.94 136.221 288.658 136.689C287.428 137.138 286.125 137.389 284.815 137.379C282.265 137.359 279.751 136.565 277.275 136.032C275.255 135.599 273.094 135.166 271.035 135.583C270.176 135.757 268.921 136.117 268.611 137.01C273.833 137.956 275.885 144.415 274.412 149.156C273.618 151.716 268.841 154.707 266.984 153.362C265.807 152.51 266.522 151.391 266.984 150.652C267.869 149.237 268.172 147.42 266.534 146.435C265.121 145.586 263.635 147.603 263.607 147.601C263.219 147.57 259.862 145.672 257.551 142.903C255.269 143.038 254.923 141.534 255.468 140.304C256.013 139.074 259.412 137.526 261.245 137.226Z" fill="#191847"/>
<path fill-rule="evenodd" clip-rule="evenodd" d="M278.199 204.638L262.442 256.252L254.809 300.145H248.824L256.89 204.638H278.199Z" fill="#997659"/>
<path fill-rule="evenodd" clip-rule="evenodd" d="M283.835 204.638C282.765 232.977 284.025 247.594 284.264 250.169C284.504 252.743 287.783 269.438 295.548 301.009L289.171 298.815C276.9 269.859 272.718 254.81 271.31 251.008C269.903 247.206 266.164 231.749 260.096 204.638H283.835Z" fill="#B28B67"/>
<path fill-rule="evenodd" clip-rule="evenodd" d="M294.431 298.274C294.83 298.095 295.305 298.273 295.455 298.684C295.762 299.523 296.203 300.856 296.203 301.596C296.203 302.73 295.826 304.907 295.826 304.907C294.512 304.907 272.209 304.907 272.209 304.907C272.209 304.907 271.289 301.858 273.272 301.615C275.255 301.372 276.567 301.176 276.567 301.176L287.587 296.254C287.779 296.168 288.004 296.258 288.084 296.452L288.807 298.211C288.807 298.211 290.644 299.069 291.791 299.069C292.519 299.069 293.679 298.61 294.431 298.274Z" fill="#E4E4E4"/>
<path fill-rule="evenodd" clip-rule="evenodd" d="M255.071 298.274C255.47 298.095 255.946 298.273 256.096 298.684C256.403 299.523 256.844 300.856 256.844 301.596C256.844 302.73 256.467 304.907 256.467 304.907C255.153 304.907 232.85 304.907 232.85 304.907C232.85 304.907 231.929 301.858 233.913 301.615C235.896 301.372 237.208 301.176 237.208 301.176L248.228 296.254C248.42 296.168 248.645 296.258 248.724 296.452L249.448 298.211C249.448 298.211 251.284 299.069 252.432 299.069C253.16 299.069 254.319 298.61 255.071 298.274Z" fill="#E4E4E4"/>
<path fill-rule="evenodd" clip-rule="evenodd" d="M280.291 204.638L273.592 230.935H253.129L256.18 204.638H280.291Z" fill="#9CA777"/>
<path fill-rule="evenodd" clip-rule="evenodd" d="M284.061 204.638C287.367 214.569 285.317 230.935 285.317 230.935H264.435L258.693 204.638H284.061Z" fill="#9CA777"/>
<path fill-rule="evenodd" clip-rule="evenodd" d="M306.845 217.865C305.282 215.571 294.745 184.709 294.745 184.709L285.657 186.022C285.657 186.022 300.767 218.159 301.63 219.653C302.751 221.595 301.758 224.785 301.085 226.948C300.981 227.282 300.884 227.592 300.804 227.869C302.218 228.276 302.756 227.468 303.323 226.617C303.963 225.655 304.641 224.637 306.66 225.251C307.44 225.488 308.189 225.793 308.921 226.09C311.449 227.118 313.772 228.062 316.441 225.852C316.864 225.502 317.221 224.356 315.876 223.689C312.527 222.027 307.61 218.986 306.845 217.865ZM228.525 216.27L238.678 203.162L243.534 209.361L232.313 218.279C229.924 223.533 228.416 225.87 227.788 225.29C227.259 224.801 227.38 224.167 227.493 223.582C227.58 223.127 227.662 222.702 227.425 222.4C226.885 221.71 224.489 222.485 222.248 223.318C220.006 224.151 220.382 222.941 220.79 222.28C222.729 220.212 225.307 218.208 228.525 216.27Z" fill="#B28B67"/>
<path fill-rule="evenodd" clip-rule="evenodd" d="M263.417 162.855L259.74 162.745C256.889 183.5 229.737 201.19 229.002 208.902C228.732 211.73 230.899 212.836 229.998 213.813L235.144 216.568C235.805 215.536 237.728 216.983 241.085 215.31C244.442 213.637 266.739 186.489 263.417 162.855Z" fill="#FF4133"/>
<path fill-rule="evenodd" clip-rule="evenodd" d="M269.401 157.751C270.206 157.58 270.998 158.095 271.169 158.9L271.719 161.484C279.206 165.725 298.135 178.883 306.558 207.147C307.443 210.116 306.842 211.857 306.362 213.248C306.034 214.2 305.762 214.988 306.061 215.893L300.189 218.435C300.093 217.749 299.249 217.335 298.161 216.802C296.58 216.026 294.481 214.997 293.409 212.508C292.392 210.148 290.977 207.222 289.324 203.978C289.847 208.509 289.573 212.782 288.187 216.484C284.731 225.72 256.466 220.096 252.421 211.738C250.262 207.278 251.842 203.056 253.932 197.474C256.585 190.387 260.059 181.106 257.75 166.357L256.813 161.95C256.641 161.144 257.155 160.353 257.961 160.182L269.401 157.751Z" fill="#FF4133"/>
</svg>
