<svg width="224" height="167" viewBox="0 0 224 167" fill="none" xmlns="http://www.w3.org/2000/svg">
<g clip-path="url(#clip0_225_3524)">
<path d="M13.507 134.983C13.7824 145.261 15.5043 155.449 18.622 165.247C18.6911 165.475 18.7678 165.699 18.8425 165.926H37.9289C37.9089 165.722 37.8881 165.495 37.8681 165.247C36.5956 150.617 43.8657 62.6349 52.6386 47.4075C51.87 48.6427 12.0271 88.4959 13.507 134.983Z" fill="#9CA777" fill-opacity="0.3"/>
<path d="M14.94 165.247C15.0996 165.475 15.2656 165.702 15.4356 165.926H29.7547C29.6462 165.733 29.5204 165.505 29.3746 165.247C27.0093 160.978 20.008 148.214 13.5092 134.983C6.52795 120.763 0.117661 106.004 0.657489 100.663C0.490192 101.867 -4.34274 138.594 14.94 165.247Z" fill="#E6E6E6"/>
<path d="M76.1754 113.771C76.1301 113.939 76.0982 114.11 76.0798 114.283L62.2918 121.524L59.0903 119.508L55.416 123.942L60.7368 128.062C61.1666 128.394 61.6928 128.579 62.2364 128.587C62.78 128.596 63.3116 128.427 63.7514 128.108L78.0863 117.694C78.7043 117.951 79.386 118.014 80.0407 117.874C80.6953 117.734 81.2919 117.399 81.7511 116.912C82.2102 116.424 82.5102 115.809 82.6111 115.147C82.712 114.485 82.609 113.809 82.3159 113.207C82.0227 112.605 81.5533 112.107 80.9701 111.778C80.3868 111.45 79.7174 111.307 79.0507 111.368C78.3841 111.429 77.752 111.692 77.2384 112.121C76.7247 112.55 76.354 113.126 76.1754 113.771Z" fill="#E2A9B1"/>
<path d="M92.7989 162.837L95.5637 161.059L90.0216 149.55L85.9414 152.174L92.7989 162.837Z" fill="#E2A9B1"/>
<path d="M91.5117 162.388L96.9561 158.886C97.8763 158.295 98.9941 158.093 100.063 158.325C101.132 158.557 102.065 159.204 102.657 160.125L102.73 160.237L93.8156 165.97L91.5117 162.388Z" fill="#2F2E41"/>
<path d="M52.968 143.067L74.1892 129.481C74.1892 129.481 78.0883 129.104 80.4284 133.716L94.5618 154.018L88.5319 158.098L72.8487 141.813L62.0869 152.457C62.0869 152.457 77.9426 149.856 77.4064 160.312C76.9809 168.61 55.2799 165.764 46.3401 164.235C44.6421 163.958 43.0259 163.311 41.6062 162.339C40.1865 161.367 38.9981 160.095 38.1254 158.612C37.1666 156.949 36.6512 155.061 37.4565 153.276C39.604 148.516 52.968 143.067 52.968 143.067Z" fill="#2F2E41"/>
<path d="M42.4476 154.423L36.332 153.185L38.0748 123.169L45.1115 114.55L49.3039 113.808C50.5537 113.581 51.8431 113.833 52.9164 114.512C53.9897 115.191 54.7687 116.249 55.099 117.475L56.9469 124.226C60.0823 129.535 55.69 135.69 55.2849 136.237L55.5131 145.547L42.4476 154.423Z" fill="#F97B22"/>
<path d="M48.1426 115.726L48.5306 114.353C48.5306 114.353 52.7415 111.25 59.1759 119.293L56.0928 124.789L49.3902 124.521L48.1426 115.726Z" fill="#F97B22"/>
<path d="M57.8286 105.044C59.0216 109.934 54.3193 110.298 48.7413 111.658C43.1633 113.019 38.8219 114.862 37.629 109.972C36.4361 105.081 36.5304 95.8741 44.4214 93.9492C52.5843 91.958 56.6357 100.154 57.8286 105.044Z" fill="#2F2E41"/>
<path d="M47.0482 111.858C50.9117 111.858 54.0437 108.726 54.0437 104.862C54.0437 100.999 50.9117 97.8669 47.0482 97.8669C43.1847 97.8669 40.0527 100.999 40.0527 104.862C40.0527 108.726 43.1847 111.858 47.0482 111.858Z" fill="#E2A9B1"/>
<path d="M39.0332 106.111L41.7213 105.455L42.0971 101.846L43.1442 105.108L44.429 104.795L44.6483 102.689L45.2591 104.592L54.8055 102.264C54.3401 100.356 53.1357 98.7106 51.4574 97.6905C49.7791 96.6704 47.7643 96.3588 45.8562 96.8243L44.4726 97.1618C43.5279 97.3922 42.6377 97.8065 41.8531 98.381C41.0684 98.9555 40.4046 99.6789 39.8995 100.51C39.3944 101.341 39.0579 102.263 38.9093 103.224C38.7606 104.185 38.8028 105.166 39.0332 106.111Z" fill="#2F2E41"/>
<path d="M59.0287 139.455C58.8606 139.499 58.6961 139.556 58.537 139.626L45.4129 131.241L45.5767 127.461L39.9045 126.469L38.9641 133.132C38.8881 133.67 38.9888 134.219 39.2511 134.695C39.5133 135.171 39.923 135.549 40.4185 135.773L56.569 143.06C56.6521 143.724 56.9355 144.347 57.3814 144.846C57.8274 145.346 58.4147 145.697 59.0654 145.854C59.7161 146.012 60.3992 145.967 61.0239 145.727C61.6487 145.486 62.1854 145.061 62.5627 144.508C62.9401 143.956 63.1401 143.301 63.1363 142.631C63.1324 141.962 62.9249 141.31 62.5412 140.761C62.1576 140.213 61.616 139.794 60.9886 139.56C60.3611 139.327 59.6775 139.291 59.0287 139.455Z" fill="#E2A9B1"/>
<path d="M46.1727 115.921L45.1837 114.674C45.1837 114.674 41.2122 113.395 39.0674 118.757C36.9226 124.119 38.9334 129.347 38.9334 129.347L48.3169 130.151L48.9872 121.438L46.1727 115.921Z" fill="#F97B22"/>
<path d="M150.586 37.3218H223.861V61.3768H221.086V67.668L214.794 61.3768H150.586V37.3218Z" fill="#E6E6E6"/>
<path d="M221.826 39.6641H152.621V58.9081H221.826V39.6641Z" fill="white"/>
<path d="M191.506 45.2825H158.186V46.2937H191.506V45.2825Z" fill="#7C9070"/>
<path d="M216.26 48.7805H158.186V49.7917H216.26V48.7805Z" fill="#7C9070"/>
<path d="M216.203 52.2786H158.186V53.2897H216.203V52.2786Z" fill="#E6E6E6"/>
<path d="M180.064 0H106.789V24.055H109.565V30.3465L115.856 24.055H180.064V0Z" fill="#E6E6E6"/>
<path d="M178.029 2.34253H108.824V21.5866H178.029V2.34253Z" fill="white"/>
<path d="M148.266 8.146H114.945V9.15718H148.266V8.146Z" fill="#7C9070"/>
<path d="M173.02 11.644H114.945V12.6552H173.02V11.644Z" fill="#7C9070"/>
<path d="M172.963 15.1421H114.945V16.1533H172.963V15.1421Z" fill="#E6E6E6"/>
<path d="M89.3501 108.422H89.2204V104.868C89.2204 104.598 89.1672 104.33 89.0639 104.081C88.9605 103.831 88.809 103.605 88.618 103.414C88.427 103.223 88.2003 103.071 87.9508 102.968C87.7012 102.864 87.4338 102.811 87.1637 102.811H79.6349C79.3648 102.811 79.0973 102.864 78.8478 102.968C78.5982 103.071 78.3715 103.223 78.1805 103.414C77.9895 103.605 77.838 103.831 77.7347 104.081C77.6313 104.33 77.5781 104.598 77.5781 104.868V124.363C77.5781 124.634 77.6313 124.901 77.7347 125.151C77.838 125.4 77.9895 125.627 78.1805 125.818C78.3715 126.009 78.5982 126.16 78.8478 126.264C79.0973 126.367 79.3648 126.42 79.6349 126.42H87.1637C87.4338 126.42 87.7012 126.367 87.9508 126.264C88.2003 126.16 88.427 126.009 88.618 125.818C88.809 125.627 88.9605 125.4 89.0639 125.151C89.1672 124.901 89.2204 124.634 89.2204 124.363V110.951H89.3501V108.422Z" fill="#3F3D56"/>
<path d="M87.2475 103.346H86.2647C86.3099 103.457 86.3272 103.577 86.315 103.696C86.3028 103.816 86.2615 103.93 86.1947 104.029C86.128 104.128 86.0378 104.21 85.9322 104.266C85.8266 104.322 85.7088 104.352 85.5891 104.352H81.276C81.1563 104.352 81.0385 104.322 80.9329 104.266C80.8273 104.21 80.7371 104.128 80.6704 104.029C80.6036 103.93 80.5623 103.816 80.5501 103.696C80.5379 103.577 80.5551 103.457 80.6003 103.346H79.6824C79.2751 103.346 78.8844 103.508 78.5963 103.796C78.3083 104.084 78.1465 104.475 78.1465 104.882V124.349C78.1465 124.551 78.1862 124.751 78.2634 124.937C78.3406 125.123 78.4537 125.293 78.5963 125.435C78.739 125.578 78.9083 125.691 79.0946 125.768C79.281 125.845 79.4807 125.885 79.6824 125.885H87.2475C87.4492 125.885 87.6489 125.845 87.8353 125.768C88.0216 125.691 88.191 125.578 88.3336 125.435C88.4762 125.293 88.5894 125.123 88.6665 124.937C88.7437 124.751 88.7835 124.551 88.7835 124.349V104.882C88.7835 104.681 88.7437 104.481 88.6665 104.295C88.5894 104.108 88.4762 103.939 88.3336 103.796C88.191 103.654 88.0216 103.541 87.8353 103.463C87.6489 103.386 87.4492 103.346 87.2475 103.346Z" fill="white"/>
<path d="M170.926 70.9824H80.9473V100.521H84.3555V108.246L92.0809 100.521H170.926V70.9824Z" fill="white"/>
<path d="M84.0704 108.936V100.806H80.6621V70.6968H171.212V100.806H92.1997L84.0704 108.936ZM81.2333 100.235H84.6416V107.557L91.963 100.235H170.641V71.268H81.2333L81.2333 100.235Z" fill="#3F3D56"/>
<path d="M131.876 80.9854H90.9609V82.227H131.876V80.9854Z" fill="#7C9070"/>
<path d="M162.273 85.2805H90.9609V86.5222H162.273V85.2805Z" fill="#E6E6E6"/>
<path d="M162.203 89.5759H90.9609V90.8176H162.203V89.5759Z" fill="#E6E6E6"/>
<path d="M122.487 166.212H13.6782C13.6024 166.212 13.5298 166.182 13.4762 166.128C13.4227 166.075 13.3926 166.002 13.3926 165.926C13.3926 165.85 13.4227 165.778 13.4762 165.724C13.5298 165.671 13.6024 165.641 13.6782 165.641H122.487C122.563 165.641 122.635 165.671 122.689 165.724C122.742 165.778 122.772 165.85 122.772 165.926C122.772 166.002 122.742 166.075 122.689 166.128C122.635 166.182 122.563 166.212 122.487 166.212Z" fill="#3F3D56"/>
</g>
<defs>
<clipPath id="clip0_225_3524">
<rect width="223.86" height="166.212" fill="white"/>
</clipPath>
</defs>
</svg>
