<svg width="24" height="30" viewBox="0 0 24 30" fill="none" xmlns="http://www.w3.org/2000/svg">
<path d="M4.08 2.76822L4.46571 3.861L4.93714 5.2239H8.57143V11.3631H1.71429V2.76822H4.08ZM4.61143 0.31253H0.857143C0.629814 0.31253 0.411797 0.441892 0.251051 0.672157C0.0903058 0.902422 0 1.21473 0 1.54037V12.591C0 12.9166 0.0903058 13.2289 0.251051 13.4592C0.411797 13.6894 0.629814 13.8188 0.857143 13.8188H9.42857C9.6559 13.8188 9.87392 13.6894 10.0347 13.4592C10.1954 13.2289 10.2857 12.9166 10.2857 12.591V3.99606C10.2857 3.67041 10.1954 3.35811 10.0347 3.12784C9.87392 2.89758 9.6559 2.76822 9.42857 2.76822H6L5.38286 0.987844C5.31098 0.783487 5.20066 0.611972 5.06435 0.492647C4.92804 0.373323 4.77117 0.310937 4.61143 0.31253ZM17.7943 2.76822L18.18 3.861L18.6514 5.2239H22.2857V11.3631H15.4286V2.76822H17.7943ZM18.3257 0.31253H14.5714C14.3441 0.31253 14.1261 0.441892 13.9653 0.672157C13.8046 0.902422 13.7143 1.21473 13.7143 1.54037V12.591C13.7143 12.9166 13.8046 13.2289 13.9653 13.4592C14.1261 13.6894 14.3441 13.8188 14.5714 13.8188H23.1429C23.3702 13.8188 23.5882 13.6894 23.7489 13.4592C23.9097 13.2289 24 12.9166 24 12.591V3.99606C24 3.67041 23.9097 3.35811 23.7489 3.12784C23.5882 2.89758 23.3702 2.76822 23.1429 2.76822H19.7143L19.0971 0.987844C19.0253 0.783487 18.9149 0.611972 18.7786 0.492647C18.6423 0.373323 18.4855 0.310937 18.3257 0.31253ZM4.08 18.7302L4.46571 19.823L4.93714 21.1859H8.57143V27.3251H1.71429V18.7302H4.08ZM4.61143 16.2745H0.857143C0.629814 16.2745 0.411797 16.4039 0.251051 16.6341C0.0903058 16.8644 0 17.1767 0 17.5023V28.5529C0 28.8786 0.0903058 29.1909 0.251051 29.4211C0.411797 29.6514 0.629814 29.7808 0.857143 29.7808H9.42857C9.6559 29.7808 9.87392 29.6514 10.0347 29.4211C10.1954 29.1909 10.2857 28.8786 10.2857 28.5529V19.958C10.2857 19.6324 10.1954 19.3201 10.0347 19.0898C9.87392 18.8595 9.6559 18.7302 9.42857 18.7302H6L5.38286 16.9498C5.31098 16.7454 5.20066 16.5739 5.06435 16.4546C4.92804 16.3353 4.77117 16.2729 4.61143 16.2745ZM17.7943 18.7302L18.18 19.823L18.6514 21.1859H22.2857V27.3251H15.4286V18.7302H17.7943ZM18.3257 16.2745H14.5714C14.3441 16.2745 14.1261 16.4039 13.9653 16.6341C13.8046 16.8644 13.7143 17.1767 13.7143 17.5023V28.5529C13.7143 28.8786 13.8046 29.1909 13.9653 29.4211C14.1261 29.6514 14.3441 29.7808 14.5714 29.7808H23.1429C23.3702 29.7808 23.5882 29.6514 23.7489 29.4211C23.9097 29.1909 24 28.8786 24 28.5529V19.958C24 19.6324 23.9097 19.3201 23.7489 19.0898C23.5882 18.8595 23.3702 18.7302 23.1429 18.7302H19.7143L19.0971 16.9498C19.0253 16.7454 18.9149 16.5739 18.7786 16.4546C18.6423 16.3353 18.4855 16.2729 18.3257 16.2745Z" fill="#7C9070"/>
</svg>
