<svg width="56" height="56" viewBox="0 0 56 56" fill="none" xmlns="http://www.w3.org/2000/svg">
<g clip-path="url(#clip0_225_5658)">
<path d="M28.0002 3.11108C23.0777 3.11108 18.2657 4.57079 14.1727 7.30562C10.0797 10.0404 6.88967 13.9276 5.00589 18.4754C3.12211 23.0233 2.62923 28.0276 3.58957 32.8556C4.54992 37.6835 6.92035 42.1183 10.4011 45.5991C13.8819 49.0798 18.3167 51.4503 23.1446 52.4106C27.9726 53.371 32.9769 52.8781 37.5248 50.9943C42.0726 49.1105 45.9598 45.9205 48.6946 41.8275C51.4294 37.7345 52.8891 32.9225 52.8891 28C52.8891 21.399 50.2669 15.0684 45.5993 10.4009C40.9318 5.7333 34.6012 3.11108 28.0002 3.11108ZM44.2558 19.6466L23.8158 40.0711L11.7447 28C11.3321 27.5874 11.1003 27.0279 11.1003 26.4444C11.1003 25.861 11.3321 25.3014 11.7447 24.8889C12.1572 24.4763 12.7168 24.2445 13.3002 24.2445C13.8837 24.2445 14.4432 24.4763 14.8558 24.8889L23.8469 33.88L41.1758 16.5666C41.3801 16.3624 41.6226 16.2003 41.8895 16.0898C42.1564 15.9792 42.4424 15.9223 42.7313 15.9223C43.0202 15.9223 43.3063 15.9792 43.5732 16.0898C43.8401 16.2003 44.0826 16.3624 44.2869 16.5666C44.4912 16.7709 44.6532 17.0134 44.7638 17.2803C44.8743 17.5472 44.9312 17.8333 44.9312 18.1222C44.9312 18.4111 44.8743 18.6972 44.7638 18.9641C44.6532 19.231 44.4912 19.4735 44.2869 19.6777L44.2558 19.6466Z" fill="#4ECB71"/>
</g>
<defs>
<clipPath id="clip0_225_5658">
<rect width="56" height="56" fill="white"/>
</clipPath>
</defs>
</svg>
