<svg width="20" height="20" viewBox="0 0 20 20" fill="none" xmlns="http://www.w3.org/2000/svg">
<path d="M19.3493 9.1H10.1793V11.83H16.6893C16.3593 15.64 13.1893 17.27 10.1893 17.27C6.3593 17.27 2.9993 14.25 2.9993 10C2.9993 5.9 6.1993 2.73 10.1993 2.73C13.2893 2.73 15.0993 4.7 15.0993 4.7L16.9993 2.72C16.9993 2.72 14.5593 0 10.0993 0C4.4193 0 0.0292969 4.8 0.0292969 10C0.0292969 15.05 4.1593 20 10.2493 20C15.5993 20 19.4993 16.33 19.4993 10.91C19.4993 9.76 19.3493 9.1 19.3493 9.1Z" fill="#BB1717"/>
</svg>
