<svg width="20" height="22" viewBox="0 0 20 22" fill="none" xmlns="http://www.w3.org/2000/svg">
<path d="M0.5 20.7929V4C0.5 3.17614 1.17614 2.5 2 2.5H11.5113C11.4998 2.67771 11.4999 2.84274 11.5 2.96961C11.5 2.98 11.5 2.99013 11.5 3C11.5 3.00987 11.5 3.02 11.5 3.03039C11.4999 3.15726 11.4998 3.32229 11.5113 3.5H2H1.5V4V16V16.5H2H18H18.5V16V8.30341C18.849 8.20547 19.1861 8.05617 19.5 7.88807V16C19.5 16.8239 18.8239 17.5 18 17.5H4H3.79289L3.64645 17.6464L0.5 20.7929ZM17 5.5C15.5761 5.5 14.5 4.42386 14.5 3C14.5 1.57614 15.5761 0.5 17 0.5C18.4239 0.5 19.5 1.57614 19.5 3C19.5 4.42386 18.4239 5.5 17 5.5Z" stroke="black" stroke-opacity="0.77"/>
</svg>
