<svg width="207" height="163" viewBox="0 0 207 163" fill="none" xmlns="http://www.w3.org/2000/svg">
<path d="M104.702 136.156C135.091 136.156 159.726 111.521 159.726 81.1324C159.726 50.7438 135.091 26.1089 104.702 26.1089C74.3136 26.1089 49.6787 50.7438 49.6787 81.1324C49.6787 111.521 74.3136 136.156 104.702 136.156Z" fill="#DBE8EC"/>
<path d="M185.553 69.6279V63.8627C185.553 63.3184 185.445 62.7794 185.237 62.2765C185.029 61.7735 184.723 61.3166 184.339 60.9317C183.954 60.5467 183.497 60.2414 182.994 60.0331C182.491 59.8248 181.952 59.7176 181.407 59.7176H166.776C166.232 59.7176 165.693 59.6103 165.19 59.402C164.687 59.1937 164.23 58.8884 163.845 58.5035C163.46 58.1186 163.155 57.6616 162.947 57.1587C162.738 56.6558 162.631 56.1167 162.631 55.5724V49.8072C162.631 49.2628 162.738 48.7238 162.947 48.2209C163.155 47.718 163.46 47.261 163.845 46.8761C164.23 46.4912 164.687 46.1859 165.19 45.9775C165.693 45.7692 166.232 45.662 166.776 45.662H167.238C168.338 45.662 169.392 45.2253 170.169 44.4479C170.947 43.6705 171.384 42.6162 171.384 41.5168V35.7516C171.384 34.6523 170.947 33.5979 170.169 32.8205C169.392 32.0432 168.338 31.6064 167.238 31.6064H49.3724C48.273 31.6064 47.2187 32.0432 46.4413 32.8205C45.664 33.5979 45.2272 34.6523 45.2272 35.7516V41.5168C45.2272 42.6162 45.664 43.6705 46.4413 44.4479C47.2187 45.2253 48.273 45.662 49.3724 45.662C50.4718 45.662 51.5261 46.0987 52.3035 46.8761C53.0809 47.6535 53.5176 48.7078 53.5176 49.8072V55.5724C53.5176 56.6718 53.0809 57.7261 52.3035 58.5035C51.5261 59.2808 50.4718 59.7176 49.3724 59.7176H33.3426C32.2433 59.7176 31.1889 60.1543 30.4116 60.9317C29.6342 61.709 29.1975 62.7634 29.1975 63.8627V69.6279C29.1975 70.1723 29.3047 70.7113 29.513 71.2142C29.7213 71.7172 30.0266 72.1741 30.4116 72.559C30.7965 72.944 31.2534 73.2493 31.7563 73.4576C32.2593 73.6659 32.7983 73.7731 33.3426 73.7731H39.6325C40.1768 73.7731 40.7159 73.8804 41.2188 74.0887C41.7217 74.297 42.1786 74.6023 42.5636 74.9872C42.9485 75.3721 43.2538 75.8291 43.4621 76.332C43.6704 76.8349 43.7777 77.374 43.7777 77.9183V83.6835C43.7777 84.7829 43.3409 85.8373 42.5636 86.6146C41.7862 87.392 40.7318 87.8287 39.6325 87.8287H39.6173C38.5179 87.8287 37.4636 88.2655 36.6862 89.0428C35.9088 89.8202 35.4721 90.8745 35.4721 91.9739V97.7391C35.4721 98.8384 35.9088 99.8928 36.6862 100.67C37.4636 101.448 38.5179 101.884 39.6173 101.884H40.5273C41.6267 101.884 42.681 102.321 43.4584 103.098C44.2358 103.876 44.6725 104.93 44.6725 106.029V111.795C44.6725 112.339 44.5653 112.878 44.3569 113.381C44.1486 113.884 43.8433 114.341 43.4584 114.726C43.0735 115.111 42.6165 115.416 42.1136 115.624C41.6107 115.833 41.0717 115.94 40.5273 115.94H25.5924C24.4931 115.94 23.4387 116.377 22.6614 117.154C21.884 117.931 21.4473 118.986 21.4473 120.085V125.85C21.4473 126.95 21.884 128.004 22.6614 128.781C23.4387 129.559 24.4931 129.995 25.5924 129.995H169.464C170.563 129.995 171.617 129.559 172.395 128.781C173.172 128.004 173.609 126.95 173.609 125.85V120.085C173.609 118.986 173.172 117.931 172.395 117.154C171.617 116.377 170.563 115.94 169.464 115.94H165.87C165.325 115.94 164.786 115.833 164.283 115.624C163.781 115.416 163.324 115.111 162.939 114.726C162.554 114.341 162.248 113.884 162.04 113.381C161.832 112.878 161.725 112.339 161.725 111.795V106.029C161.725 104.93 162.161 103.876 162.939 103.098C163.716 102.321 164.77 101.884 165.87 101.884H174.344C175.444 101.884 176.498 101.448 177.275 100.67C178.053 99.8928 178.489 98.8384 178.489 97.7391V91.9739C178.489 90.8745 178.053 89.8202 177.275 89.0428C176.498 88.2654 175.444 87.8287 174.344 87.8287H171.773C170.674 87.8287 169.62 87.392 168.842 86.6146C168.065 85.8372 167.628 84.7829 167.628 83.6835V77.9183C167.628 76.8189 168.065 75.7646 168.842 74.9872C169.62 74.2099 170.674 73.7731 171.773 73.7731H181.407C181.952 73.7731 182.491 73.6659 182.994 73.4576C183.497 73.2493 183.954 72.944 184.339 72.559C184.723 72.1741 185.029 71.7172 185.237 71.2142C185.445 70.7113 185.553 70.1723 185.553 69.6279Z" fill="#DBE8EC"/>
<path d="M54.3259 89.2747C56.7426 89.2747 58.7017 87.3156 58.7017 84.899C58.7017 82.4823 56.7426 80.5232 54.3259 80.5232C51.9093 80.5232 49.9502 82.4823 49.9502 84.899C49.9502 87.3156 51.9093 89.2747 54.3259 89.2747Z" fill="#B9D4DB"/>
<path d="M58.2796 95.8771C59.5326 95.8771 60.5484 94.8613 60.5484 93.6082C60.5484 92.3552 59.5326 91.3394 58.2796 91.3394C57.0265 91.3394 56.0107 92.3552 56.0107 93.6082C56.0107 94.8613 57.0265 95.8771 58.2796 95.8771Z" fill="#B9D4DB"/>
<path d="M52.1253 102.673C53.3784 102.673 54.3942 101.658 54.3942 100.405C54.3942 99.1515 53.3784 98.1357 52.1253 98.1357C50.8722 98.1357 49.8564 99.1515 49.8564 100.405C49.8564 101.658 50.8722 102.673 52.1253 102.673Z" fill="#B9D4DB"/>
<path d="M47.3509 95.1251C49.1411 95.1251 50.5924 93.6738 50.5924 91.8836C50.5924 90.0934 49.1411 88.6421 47.3509 88.6421C45.5606 88.6421 44.1094 90.0934 44.1094 91.8836C44.1094 93.6738 45.5606 95.1251 47.3509 95.1251Z" fill="#B9D4DB"/>
<path d="M137.243 58.7684C139.66 58.7684 141.619 56.8093 141.619 54.3926C141.619 51.9759 139.66 50.0168 137.243 50.0168C134.826 50.0168 132.867 51.9759 132.867 54.3926C132.867 56.8093 134.826 58.7684 137.243 58.7684Z" fill="#B9D4DB"/>
<path d="M127.687 57.1C128.94 57.1 129.956 56.0842 129.956 54.8311C129.956 53.5781 128.94 52.5623 127.687 52.5623C126.434 52.5623 125.418 53.5781 125.418 54.8311C125.418 56.0842 126.434 57.1 127.687 57.1Z" fill="#B9D4DB"/>
<path d="M123.661 48.8622C124.914 48.8622 125.93 47.8464 125.93 46.5933C125.93 45.3403 124.914 44.3245 123.661 44.3245C122.408 44.3245 121.393 45.3403 121.393 46.5933C121.393 47.8464 122.408 48.8622 123.661 48.8622Z" fill="#B9D4DB"/>
<path d="M133.347 48.5653C135.137 48.5653 136.588 47.114 136.588 45.3238C136.588 43.5335 135.137 42.0823 133.347 42.0823C131.557 42.0823 130.105 43.5335 130.105 45.3238C130.105 47.114 131.557 48.5653 133.347 48.5653Z" fill="#B9D4DB"/>
<path d="M131.412 97.1033H66.9575C65.3964 97.1033 64.7184 69.3593 65.9503 68.4005L98.1776 45.1416C98.4655 44.9176 98.8199 44.7959 99.1848 44.7959C99.5496 44.7959 99.904 44.9176 100.192 45.1416L132.419 68.4004C133.651 69.3593 132.973 97.1033 131.412 97.1033Z" fill="#E06714"/>
<path d="M65.3145 115.826V70.112C65.3145 69.7703 65.4212 69.4372 65.6197 69.1591C65.8183 68.8811 66.0987 68.672 66.4219 68.561C66.745 68.4501 67.0948 68.4429 67.4222 68.5403C67.7497 68.6378 68.0385 68.8352 68.2484 69.1048L96.1924 91.9616C96.4165 92.2495 96.5382 92.6039 96.5382 92.9687C96.5382 93.3336 96.4165 93.688 96.1924 93.9759L68.2484 116.833C68.0385 117.102 67.7497 117.3 67.4222 117.397C67.0948 117.495 66.745 117.487 66.4219 117.376C66.0987 117.266 65.8183 117.056 65.6197 116.778C65.4212 116.5 65.3145 116.167 65.3145 115.826ZM133.055 115.826V70.112C133.055 69.7703 132.948 69.4372 132.75 69.1591C132.551 68.8811 132.271 68.672 131.948 68.561C131.624 68.4501 131.275 68.4429 130.947 68.5403C130.62 68.6378 130.331 68.8352 130.121 69.1048L102.177 91.9616C101.953 92.2495 101.831 92.6039 101.831 92.9687C101.831 93.3336 101.953 93.688 102.177 93.9759L130.121 116.833C130.331 117.102 130.62 117.3 130.947 117.397C131.275 117.495 131.624 117.487 131.948 117.376C132.271 117.266 132.551 117.056 132.75 116.778C132.948 116.5 133.055 116.167 133.055 115.826Z" fill="#EE781D"/>
<path d="M131.412 117.469H66.9572C66.6156 117.469 66.2824 117.362 66.0043 117.163C65.7263 116.965 65.5172 116.684 65.4062 116.361C65.2953 116.038 65.2881 115.688 65.3856 115.361C65.4831 115.033 65.6804 114.745 65.95 114.535L98.1773 91.2759C98.4652 91.0518 98.8196 90.9302 99.1845 90.9302C99.5493 90.9302 99.9037 91.0518 100.192 91.2759L132.419 114.535C132.689 114.745 132.886 115.033 132.983 115.361C133.081 115.688 133.074 116.038 132.963 116.361C132.852 116.684 132.643 116.965 132.365 117.163C132.087 117.362 131.753 117.469 131.412 117.469Z" fill="#F98232"/>
<path d="M65.3138 75.2585C71.5628 75.2585 76.6286 70.1927 76.6286 63.9437C76.6286 57.6947 71.5628 52.6289 65.3138 52.6289C59.0648 52.6289 53.999 57.6947 53.999 63.9437C53.999 70.1927 59.0648 75.2585 65.3138 75.2585Z" fill="#F9AE2B"/>
<path d="M65.9032 56.5273H64.7246V66.9934H65.9032V56.5273Z" fill="#409CB5"/>
<path d="M65.3144 71.3603C66.7364 71.3603 66.7388 69.1504 65.3144 69.1504C63.8925 69.1504 63.8901 71.3603 65.3144 71.3603Z" fill="#409CB5"/>
<path d="M153.293 66.062H163.53" stroke="#B9D4DB" stroke-width="0.950769" stroke-miterlimit="10" stroke-linecap="round"/>
<path d="M153.293 69.0129H163.53" stroke="#B9D4DB" stroke-width="0.950769" stroke-miterlimit="10" stroke-linecap="round"/>
<path d="M153.293 71.9634H163.53" stroke="#B9D4DB" stroke-width="0.950769" stroke-miterlimit="10" stroke-linecap="round"/>
<path d="M47.2109 116.698H57.4485" stroke="#B9D4DB" stroke-width="0.950769" stroke-miterlimit="10" stroke-linecap="round"/>
<path d="M47.2109 119.648H57.4485" stroke="#B9D4DB" stroke-width="0.950769" stroke-miterlimit="10" stroke-linecap="round"/>
<path d="M47.2109 122.599H57.4485" stroke="#B9D4DB" stroke-width="0.950769" stroke-miterlimit="10" stroke-linecap="round"/>
<path d="M75.8076 40.6333H86.0452" stroke="#B9D4DB" stroke-width="0.950769" stroke-miterlimit="10" stroke-linecap="round"/>
<path d="M75.8076 43.5842H86.0452" stroke="#B9D4DB" stroke-width="0.950769" stroke-miterlimit="10" stroke-linecap="round"/>
<path d="M75.8076 46.5347H86.0452" stroke="#B9D4DB" stroke-width="0.950769" stroke-miterlimit="10" stroke-linecap="round"/>
<path d="M166.524 112.836C168.941 112.836 170.9 110.877 170.9 108.46C170.9 106.044 168.941 104.084 166.524 104.084C164.108 104.084 162.148 106.044 162.148 108.46C162.148 110.877 164.108 112.836 166.524 112.836Z" fill="#B9D4DB"/>
<path d="M154.976 113.887C156.229 113.887 157.245 112.872 157.245 111.618C157.245 110.365 156.229 109.35 154.976 109.35C153.723 109.35 152.707 110.365 152.707 111.618C152.707 112.872 153.723 113.887 154.976 113.887Z" fill="#B9D4DB"/>
<path d="M160.738 100.994C162.528 100.994 163.979 99.5432 163.979 97.753C163.979 95.9627 162.528 94.5115 160.738 94.5115C158.947 94.5115 157.496 95.9627 157.496 97.753C157.496 99.5432 158.947 100.994 160.738 100.994Z" fill="#B9D4DB"/>
<path d="M151.343 90.47L142.564 97.6633L125.217 111.878L120.394 121.721C120.336 121.839 120.24 121.934 120.121 121.991C120.002 122.048 119.868 122.063 119.739 122.034L119.711 122.026C119.589 121.992 119.481 121.92 119.404 121.819C119.327 121.718 119.284 121.595 119.283 121.469L119.587 112.139L119.695 108.799L150.678 89.5111C150.805 89.4376 150.955 89.4147 151.099 89.4468C151.242 89.4789 151.368 89.5638 151.452 89.6845C151.536 89.8052 151.571 89.953 151.551 90.0985C151.53 90.244 151.456 90.3766 151.343 90.47Z" fill="#3086A3"/>
<path d="M151.539 90.1654L151.536 90.1745C151.495 90.3218 151.398 90.4471 151.266 90.5235L145.018 94.1403L119.695 108.802L109.033 101.542C108.94 101.478 108.868 101.39 108.824 101.287C108.78 101.183 108.767 101.069 108.786 100.959C108.805 100.848 108.855 100.745 108.93 100.662C109.006 100.58 109.104 100.52 109.212 100.491L150.809 89.4548L150.826 89.4497L150.858 89.4426L150.892 89.4365L150.923 89.4331L150.961 89.4309L150.994 89.4311L150.998 89.4323L151.03 89.4345L151.065 89.4385C151.087 89.4422 151.109 89.447 151.131 89.4529C151.16 89.461 151.188 89.4713 151.216 89.4837C151.228 89.4892 151.241 89.4954 151.253 89.5023C151.266 89.5088 151.279 89.5162 151.291 89.5243L151.33 89.5513C151.338 89.5567 151.345 89.5629 151.352 89.5699C151.356 89.5715 151.359 89.5739 151.361 89.5769L151.383 89.5967L151.388 89.5982L151.407 89.6174C151.423 89.6346 151.437 89.6528 151.451 89.6718C151.458 89.6803 151.464 89.6894 151.47 89.6987C151.488 89.7286 151.504 89.7602 151.517 89.793C151.523 89.8083 151.529 89.8239 151.534 89.8398C151.538 89.8534 151.542 89.8673 151.545 89.8813C151.548 89.8952 151.553 89.9173 151.556 89.9358C151.558 89.9518 151.559 89.968 151.56 89.9841C151.561 90.0039 151.562 90.0237 151.56 90.0435C151.559 90.0556 151.558 90.0678 151.558 90.0801C151.553 90.1089 151.547 90.1374 151.539 90.1654Z" fill="#409CB5"/>
<mask id="mask0_225_4253" style="mask-type:luminance" maskUnits="userSpaceOnUse" x="104" y="79" width="49" height="50">
<path d="M114.773 79.2421L104.066 117.667L141.59 128.123L152.297 89.6976L114.773 79.2421Z" fill="white"/>
</mask>
<g mask="url(#mask0_225_4253)">
<path d="M142.832 123.561C142.813 123.637 142.778 123.707 142.731 123.769C142.684 123.831 142.625 123.883 142.558 123.921C142.49 123.96 142.416 123.985 142.339 123.994C142.262 124.004 142.183 123.998 142.109 123.977C142.048 123.96 141.99 123.933 141.937 123.898L123.809 111.561L145.02 94.1403L150.603 89.5648C150.666 89.5127 150.74 89.4743 150.819 89.4521C150.831 89.4491 150.843 89.4459 150.856 89.4437L150.89 89.4381L150.921 89.4343L150.96 89.4321L150.992 89.4323L150.997 89.4336L151.028 89.4361L151.063 89.44C151.085 89.4437 151.107 89.4486 151.129 89.4544C151.158 89.4625 151.186 89.4728 151.214 89.4852C151.226 89.4907 151.239 89.4969 151.251 89.5038C151.264 89.5103 151.277 89.5177 151.289 89.5259L151.328 89.5528C151.336 89.5583 151.343 89.5644 151.35 89.5711C151.354 89.5729 151.357 89.5755 151.359 89.5785L151.381 89.5983L151.386 89.5998L151.405 89.619C151.421 89.6362 151.436 89.6543 151.449 89.6733C151.456 89.6819 151.462 89.6909 151.468 89.7004C151.486 89.7302 151.502 89.7618 151.515 89.7946C151.521 89.81 151.527 89.8254 151.532 89.8413C151.536 89.8547 151.54 89.8686 151.543 89.8825C151.547 89.8964 151.551 89.9188 151.554 89.9374C151.556 89.9534 151.557 89.9696 151.558 89.9857C151.56 90.0054 151.56 90.0251 151.559 90.0448C151.557 90.0569 151.556 90.0691 151.556 90.0813C151.553 90.11 151.547 90.1384 151.54 90.1663L151.538 90.1745L142.832 123.561Z" fill="#409CB5"/>
<path d="M129.202 115.232L120.22 121.933C120.149 121.986 120.066 122.022 119.978 122.039C119.89 122.055 119.8 122.051 119.714 122.027C119.634 122.005 119.56 121.967 119.497 121.914C119.396 121.83 119.326 121.715 119.298 121.586C119.271 121.458 119.287 121.324 119.345 121.206L123.809 111.562L129.202 115.232Z" fill="#4469A0"/>
</g>
<path d="M123.807 111.562L129.201 115.232L127.894 116.208L123.314 112.624L123.807 111.562Z" fill="#4469A0"/>
</svg>
