<svg width="24" height="24" viewBox="0 0 24 24" fill="none" xmlns="http://www.w3.org/2000/svg">
<path d="M6.5 14.9751V13.9751H4V11.9751H9V9.9751H5C4.71667 9.9751 4.479 9.87943 4.287 9.6881C4.095 9.49676 3.99934 9.2591 4 8.9751V4.9751C4 4.69176 4.096 4.45443 4.288 4.2631C4.48 4.07176 4.71734 3.97576 5 3.9751H6.5V2.9751H8.5V3.9751H11V5.9751H6V7.9751H10C10.2833 7.9751 10.521 8.0711 10.713 8.2631C10.905 8.4551 11.0007 8.69243 11 8.9751V12.9751C11 13.2584 10.904 13.4961 10.712 13.6881C10.52 13.8801 10.2827 13.9758 10 13.9751H8.5V14.9751H6.5ZM13.95 20.9751L9.7 16.7251L11.1 15.3251L13.95 18.1751L19.6 12.5251L21 13.9251L13.95 20.9751Z" fill="black" fill-opacity="0.7"/>
</svg>
