<svg width="24" height="24" viewBox="0 0 24 24" fill="none" xmlns="http://www.w3.org/2000/svg">
<path d="M12 17C12.2833 17 12.521 16.904 12.713 16.712C12.905 16.52 13.0007 16.2827 13 16C13 15.7167 12.904 15.479 12.712 15.287C12.52 15.095 12.2827 14.9993 12 15C11.7167 15 11.479 15.096 11.287 15.288C11.095 15.48 10.9993 15.7173 11 16C11 16.2833 11.096 16.521 11.288 16.713C11.48 16.905 11.7173 17.0007 12 17ZM12 13C12.2833 13 12.521 12.904 12.713 12.712C12.905 12.52 13.0007 12.2827 13 12C13 11.7167 12.904 11.479 12.712 11.287C12.52 11.095 12.2827 10.9993 12 11C11.7167 11 11.479 11.096 11.287 11.288C11.095 11.48 10.9993 11.7173 11 12C11 12.2833 11.096 12.521 11.288 12.713C11.48 12.905 11.7173 13.0007 12 13ZM12 9C12.2833 9 12.521 8.904 12.713 8.712C12.905 8.52 13.0007 8.28267 13 8C13 7.71667 12.904 7.479 12.712 7.287C12.52 7.095 12.2827 6.99934 12 7C11.7167 7 11.479 7.096 11.287 7.288C11.095 7.48 10.9993 7.71734 11 8C11 8.28334 11.096 8.521 11.288 8.713C11.48 8.905 11.7173 9.00067 12 9ZM20 20H4C3.45 20 2.979 19.804 2.587 19.412C2.195 19.02 1.99934 18.5493 2 18V14C2.55 14 3.021 13.804 3.413 13.412C3.805 13.02 4.00067 12.5493 4 12C4 11.45 3.804 10.979 3.412 10.587C3.02 10.195 2.54934 9.99934 2 10V6C2 5.45 2.196 4.979 2.588 4.587C2.98 4.195 3.45067 3.99934 4 4H20C20.55 4 21.021 4.196 21.413 4.588C21.805 4.98 22.0007 5.45067 22 6V10C21.45 10 20.979 10.196 20.587 10.588C20.195 10.98 19.9993 11.4507 20 12C20 12.55 20.196 13.021 20.588 13.413C20.98 13.805 21.4507 14.0007 22 14V18C22 18.55 21.804 19.021 21.412 19.413C21.02 19.805 20.5493 20.0007 20 20ZM20 18V15.45C19.3833 15.0833 18.8957 14.596 18.537 13.988C18.1783 13.38 17.9993 12.7173 18 12C18 11.2833 18.179 10.6207 18.537 10.012C18.895 9.40334 19.3827 8.916 20 8.55V6H4V8.55C4.61667 8.91667 5.10433 9.40434 5.463 10.013C5.82167 10.6217 6.00067 11.284 6 12C6 12.7167 5.821 13.3793 5.463 13.988C5.105 14.5967 4.61734 15.084 4 15.45V18H20Z" fill="black" fill-opacity="0.7"/>
</svg>
