<svg width="24" height="24" viewBox="0 0 24 24" fill="none" xmlns="http://www.w3.org/2000/svg">
<path d="M11 11.0001H13.1L19.3 4.8001L17.2 2.7001L11 8.9001V11.0001ZM20 4.1001L21.4 2.7001L19.3 0.600098L17.9 2.0001L20 4.1001ZM12 22.0001C9.31667 19.7168 7.31267 17.5961 5.988 15.6381C4.66333 13.6801 4.00067 11.8674 4 10.2001C4 7.7001 4.80433 5.70843 6.413 4.2251C8.02167 2.74176 9.884 2.0001 12 2.0001C12.45 2.0001 12.896 2.03776 13.338 2.1131C13.78 2.18843 14.209 2.29243 14.625 2.4251L13 4.0751C12.8333 4.04176 12.6707 4.02076 12.512 4.0121C12.3533 4.00343 12.1827 3.99943 12 4.0001C10.3167 4.0001 8.89567 4.57943 7.737 5.7381C6.57833 6.89676 5.99933 8.3841 6 10.2001C6 11.3834 6.49167 12.7378 7.475 14.2631C8.45833 15.7884 9.96667 17.4841 12 19.3501C14.0333 17.4834 15.5417 15.7874 16.525 14.2621C17.5083 12.7368 18 11.3828 18 10.2001C18 10.0001 17.9917 9.80443 17.975 9.6131C17.9583 9.42176 17.9333 9.2341 17.9 9.0501L19.55 7.4001C19.7 7.83343 19.8127 8.28343 19.888 8.7501C19.9633 9.21676 20.0007 9.7001 20 10.2001C20 11.8668 19.3373 13.6794 18.012 15.6381C16.6867 17.5968 14.6827 19.7174 12 22.0001Z" fill="black" fill-opacity="0.7"/>
</svg>
