<svg width="33" height="33" viewBox="0 0 33 33" fill="none" xmlns="http://www.w3.org/2000/svg">
<path d="M28.1051 7.39177L28.361 24.7232C28.3683 25.2121 28.1738 25.5874 27.7776 25.8493C27.3814 26.1103 26.9598 26.1552 26.5128 25.984L5.85374 17.6214C5.29463 17.3852 5.01081 16.9782 5.00228 16.4005C4.99375 15.8228 5.26543 15.4076 5.81732 15.155L26.2205 6.18613C26.6622 6.00181 27.085 6.03468 27.4887 6.28475C27.8924 6.53393 28.0979 6.90294 28.1051 7.39177ZM25.4683 9.43092L9.76843 16.3301L25.6651 22.7628L25.5962 18.0966L17.5676 16.215L25.5372 14.0971L25.4683 9.43092ZM25.5667 16.0969L25.6651 22.7628L25.4683 9.43092L25.5667 16.0969Z" fill="#F8F8F8"/>
</svg>
