<svg width="24" height="24" viewBox="0 0 24 24" fill="none" xmlns="http://www.w3.org/2000/svg">
<path d="M4.79981 6.5999C4.79981 5.48599 5.2423 4.41771 6.02996 3.63005C6.81761 2.8424 7.8859 2.3999 8.99981 2.3999H11.9998C12.9814 2.3999 13.8526 2.8715 14.3998 3.5999H8.99981C8.20416 3.5999 7.44109 3.91597 6.87849 4.47858C6.31588 5.04119 5.99981 5.80425 5.99981 6.5999V17.9999C5.62694 17.7207 5.32433 17.3584 5.11602 16.9418C4.9077 16.5252 4.79943 16.0657 4.79981 15.5999V6.5999ZM16.1182 2.4059L16.1998 2.3999C16.5034 2.3999 16.7542 2.6711 16.7938 3.0227L16.7998 3.1199V20.8799C16.7998 21.2771 16.531 21.5999 16.1998 21.5999C15.8962 21.5999 15.6454 21.3287 15.6058 20.9771L15.5998 20.8799V20.3999H9.59981C8.96329 20.3999 8.35284 20.147 7.90275 19.697C7.45266 19.2469 7.19981 18.6364 7.19981 17.9999V7.1999C7.19981 6.56338 7.45266 5.95293 7.90275 5.50285C8.35284 5.05276 8.96329 4.7999 9.59981 4.7999H15.5998V3.1199C15.5998 2.7551 15.8254 2.4539 16.1182 2.4059ZM9.59981 5.9999C9.28155 5.9999 8.97632 6.12633 8.75128 6.35137C8.52623 6.57642 8.39981 6.88164 8.39981 7.1999V17.9999C8.39981 18.3182 8.52623 18.6234 8.75128 18.8484C8.97632 19.0735 9.28155 19.1999 9.59981 19.1999H15.5998V5.9999H9.59981Z" fill="black" fill-opacity="0.7"/>
</svg>
