<svg width="24" height="24" viewBox="0 0 24 24" fill="none" xmlns="http://www.w3.org/2000/svg">
<path d="M16.8002 2.9999C16.8002 2.84077 16.737 2.68816 16.6245 2.57564C16.5119 2.46312 16.3593 2.3999 16.2002 2.3999C16.0411 2.3999 15.8885 2.46312 15.7759 2.57564C15.6634 2.68816 15.6002 2.84077 15.6002 2.9999V3.5999H9.6002C8.96368 3.5999 8.35323 3.85276 7.90314 4.30285C7.45305 4.75293 7.2002 5.36338 7.2002 5.9999V17.9999C7.2002 18.6364 7.45305 19.2469 7.90314 19.697C8.35323 20.147 8.96368 20.3999 9.6002 20.3999H11.5202C11.324 20.0164 11.166 19.6144 11.0486 19.1999H9.6002C9.28194 19.1999 8.97671 19.0735 8.75167 18.8484C8.52662 18.6234 8.4002 18.3182 8.4002 17.9999V5.9999C8.4002 5.68164 8.52662 5.37642 8.75167 5.15137C8.97671 4.92633 9.28194 4.7999 9.6002 4.7999H15.6002V11.0483C15.9924 10.9373 16.3942 10.8629 16.8002 10.8263V2.9999ZM17.4002 11.9999C18.8324 11.9999 20.2059 12.5688 21.2186 13.5815C22.2313 14.5942 22.8002 15.9677 22.8002 17.3999C22.8002 18.8321 22.2313 20.2056 21.2186 21.2183C20.2059 22.231 18.8324 22.7999 17.4002 22.7999C15.968 22.7999 14.5945 22.231 13.5818 21.2183C12.5691 20.2056 12.0002 18.8321 12.0002 17.3999C12.0002 15.9677 12.5691 14.5942 13.5818 13.5815C14.5945 12.5688 15.968 11.9999 17.4002 11.9999ZM20.2238 17.8247L20.2274 17.8211C20.3373 17.7098 20.3994 17.5599 20.4002 17.4035V17.3963C20.3992 17.2387 20.3363 17.0879 20.225 16.9763L17.825 14.5763C17.7125 14.4636 17.5598 14.4003 17.4006 14.4002C17.2414 14.4001 17.0887 14.4632 16.976 14.5757C16.8633 14.6882 16.8 14.8409 16.7999 15.0001C16.7997 15.1593 16.8629 15.312 16.9754 15.4247L18.3518 16.7999H15.0002C14.8411 16.7999 14.6885 16.8631 14.5759 16.9756C14.4634 17.0882 14.4002 17.2408 14.4002 17.3999C14.4002 17.559 14.4634 17.7116 14.5759 17.8242C14.6885 17.9367 14.8411 17.9999 15.0002 17.9999H18.3518L16.9754 19.3751C16.8627 19.4878 16.7994 19.6406 16.7994 19.7999C16.7994 19.9592 16.8627 20.112 16.9754 20.2247C17.0881 20.3374 17.2409 20.4007 17.4002 20.4007C17.5595 20.4007 17.7123 20.3374 17.825 20.2247L20.2238 17.8247Z" fill="black"/>
</svg>
