<svg width="24" height="24" viewBox="0 0 24 24" fill="none" xmlns="http://www.w3.org/2000/svg">
<path d="M17 13H13V11H15C15.5304 11 16.0391 10.7893 16.4142 10.4142C16.7893 10.0391 17 9.53043 17 9V7C17 6.46957 16.7893 5.96086 16.4142 5.58579C16.0391 5.21071 15.5304 5 15 5H11V7H15V9H13C12.4696 9 11.9609 9.21071 11.5858 9.58579C11.2107 9.96086 11 10.4696 11 11V15H17M21 17H7V3H21M21 1H7C6.46957 1 5.96086 1.21071 5.58579 1.58579C5.21071 1.96086 5 2.46957 5 3V17C5 17.5304 5.21071 18.0391 5.58579 18.4142C5.96086 18.7893 6.46957 19 7 19H21C21.5304 19 22.0391 18.7893 22.4142 18.4142C22.7893 18.0391 23 17.5304 23 17V3C23 2.46957 22.7893 1.96086 22.4142 1.58579C22.0391 1.21071 21.5304 1 21 1ZM3 5H1V21C1 21.5304 1.21071 22.0391 1.58579 22.4142C1.96086 22.7893 2.46957 23 3 23H19V21H3V5Z" fill="black" fill-opacity="0.7"/>
</svg>
